%TF.GenerationSoftware,Altium Limited,Altium Designer,21.6.1 (37)*%
G04 Layer_Color=255*
%FSLAX43Y43*%
%MOMM*%
%TF.SameCoordinates,A8206A2C-5CB0-4F6E-B559-DFDA062B5CA2*%
%TF.FilePolarity,Positive*%
%TF.FileFunction,Pads,Top*%
%TF.Part,Single*%
G01*
G75*
%TA.AperFunction,SMDPad,CuDef*%
G04:AMPARAMS|DCode=11|XSize=1.44mm|YSize=0.3mm|CornerRadius=0.075mm|HoleSize=0mm|Usage=FLASHONLY|Rotation=0.000|XOffset=0mm|YOffset=0mm|HoleType=Round|Shape=RoundedRectangle|*
%AMROUNDEDRECTD11*
21,1,1.440,0.150,0,0,0.0*
21,1,1.290,0.300,0,0,0.0*
1,1,0.150,0.645,-0.075*
1,1,0.150,-0.645,-0.075*
1,1,0.150,-0.645,0.075*
1,1,0.150,0.645,0.075*
%
%ADD11ROUNDEDRECTD11*%
%ADD12O,2.200X0.600*%
G04:AMPARAMS|DCode=13|XSize=1.5mm|YSize=1mm|CornerRadius=0.25mm|HoleSize=0mm|Usage=FLASHONLY|Rotation=90.000|XOffset=0mm|YOffset=0mm|HoleType=Round|Shape=RoundedRectangle|*
%AMROUNDEDRECTD13*
21,1,1.500,0.500,0,0,90.0*
21,1,1.000,1.000,0,0,90.0*
1,1,0.500,0.250,0.500*
1,1,0.500,0.250,-0.500*
1,1,0.500,-0.250,-0.500*
1,1,0.500,-0.250,0.500*
%
%ADD13ROUNDEDRECTD13*%
G04:AMPARAMS|DCode=14|XSize=1.5mm|YSize=1mm|CornerRadius=0.25mm|HoleSize=0mm|Usage=FLASHONLY|Rotation=0.000|XOffset=0mm|YOffset=0mm|HoleType=Round|Shape=RoundedRectangle|*
%AMROUNDEDRECTD14*
21,1,1.500,0.500,0,0,0.0*
21,1,1.000,1.000,0,0,0.0*
1,1,0.500,0.500,-0.250*
1,1,0.500,-0.500,-0.250*
1,1,0.500,-0.500,0.250*
1,1,0.500,0.500,0.250*
%
%ADD14ROUNDEDRECTD14*%
%ADD15R,1.800X1.900*%
%ADD16R,0.400X1.350*%
G04:AMPARAMS|DCode=17|XSize=1.45mm|YSize=0.95mm|CornerRadius=0.238mm|HoleSize=0mm|Usage=FLASHONLY|Rotation=90.000|XOffset=0mm|YOffset=0mm|HoleType=Round|Shape=RoundedRectangle|*
%AMROUNDEDRECTD17*
21,1,1.450,0.475,0,0,90.0*
21,1,0.975,0.950,0,0,90.0*
1,1,0.475,0.238,0.488*
1,1,0.475,0.238,-0.488*
1,1,0.475,-0.238,-0.488*
1,1,0.475,-0.238,0.488*
%
%ADD17ROUNDEDRECTD17*%
%ADD18R,1.359X0.356*%
%ADD19R,3.099X3.099*%
%ADD20O,0.600X1.700*%
%ADD21O,1.700X0.600*%
G04:AMPARAMS|DCode=22|XSize=0.239mm|YSize=0.729mm|CornerRadius=0.12mm|HoleSize=0mm|Usage=FLASHONLY|Rotation=0.000|XOffset=0mm|YOffset=0mm|HoleType=Round|Shape=RoundedRectangle|*
%AMROUNDEDRECTD22*
21,1,0.239,0.490,0,0,0.0*
21,1,0.000,0.729,0,0,0.0*
1,1,0.239,0.000,-0.245*
1,1,0.239,0.000,-0.245*
1,1,0.239,0.000,0.245*
1,1,0.239,0.000,0.245*
%
%ADD22ROUNDEDRECTD22*%
G04:AMPARAMS|DCode=23|XSize=0.729mm|YSize=0.239mm|CornerRadius=0.12mm|HoleSize=0mm|Usage=FLASHONLY|Rotation=0.000|XOffset=0mm|YOffset=0mm|HoleType=Round|Shape=RoundedRectangle|*
%AMROUNDEDRECTD23*
21,1,0.729,0.000,0,0,0.0*
21,1,0.490,0.239,0,0,0.0*
1,1,0.239,0.245,0.000*
1,1,0.239,-0.245,0.000*
1,1,0.239,-0.245,0.000*
1,1,0.239,0.245,0.000*
%
%ADD23ROUNDEDRECTD23*%
%ADD24R,0.729X0.239*%
%ADD25R,2.800X2.800*%
%ADD26R,1.500X0.600*%
%ADD27R,1.500X0.800*%
G04:AMPARAMS|DCode=28|XSize=0.6mm|YSize=1.45mm|CornerRadius=0.051mm|HoleSize=0mm|Usage=FLASHONLY|Rotation=90.000|XOffset=0mm|YOffset=0mm|HoleType=Round|Shape=RoundedRectangle|*
%AMROUNDEDRECTD28*
21,1,0.600,1.348,0,0,90.0*
21,1,0.498,1.450,0,0,90.0*
1,1,0.102,0.674,0.249*
1,1,0.102,0.674,-0.249*
1,1,0.102,-0.674,-0.249*
1,1,0.102,-0.674,0.249*
%
%ADD28ROUNDEDRECTD28*%
%ADD29R,0.600X1.350*%
G04:AMPARAMS|DCode=30|XSize=1.45mm|YSize=0.95mm|CornerRadius=0.238mm|HoleSize=0mm|Usage=FLASHONLY|Rotation=0.000|XOffset=0mm|YOffset=0mm|HoleType=Round|Shape=RoundedRectangle|*
%AMROUNDEDRECTD30*
21,1,1.450,0.475,0,0,0.0*
21,1,0.975,0.950,0,0,0.0*
1,1,0.475,0.488,-0.238*
1,1,0.475,-0.488,-0.238*
1,1,0.475,-0.488,0.238*
1,1,0.475,0.488,0.238*
%
%ADD30ROUNDEDRECTD30*%
%ADD31R,1.400X1.400*%
%ADD32R,1.000X1.400*%
%ADD33R,0.800X0.800*%
%ADD34R,0.800X1.500*%
%ADD35R,0.400X1.500*%
%ADD36R,0.800X0.900*%
%ADD37R,1.550X1.300*%
%TA.AperFunction,ComponentPad*%
%ADD40C,1.800*%
%ADD41R,1.800X1.800*%
%ADD42R,2.400X2.400*%
%ADD43C,2.400*%
%ADD44O,1.050X1.250*%
%ADD45C,2.100*%
%ADD46C,3.450*%
%ADD47C,2.388*%
%ADD48R,1.950X1.950*%
%ADD49C,1.950*%
%TA.AperFunction,ViaPad*%
%ADD50C,7.400*%
%TA.AperFunction,ComponentPad*%
%ADD51R,1.778X1.778*%
%ADD52C,1.778*%
D11*
X42855Y50000D02*
D03*
Y49500D02*
D03*
Y49000D02*
D03*
Y48500D02*
D03*
Y48000D02*
D03*
X47145D02*
D03*
Y48500D02*
D03*
Y49000D02*
D03*
Y49500D02*
D03*
Y50000D02*
D03*
D12*
X127200Y25695D02*
D03*
Y26965D02*
D03*
Y28235D02*
D03*
Y29505D02*
D03*
X122400Y25695D02*
D03*
Y26965D02*
D03*
Y28235D02*
D03*
Y29505D02*
D03*
D13*
X125750Y32042D02*
D03*
X123450D02*
D03*
X35784Y50000D02*
D03*
X38084D02*
D03*
X44000Y33000D02*
D03*
X46300D02*
D03*
X66175Y54000D02*
D03*
X63875D02*
D03*
X43850Y45000D02*
D03*
X46150D02*
D03*
X38150Y42000D02*
D03*
X35850D02*
D03*
X58150Y42000D02*
D03*
X55850D02*
D03*
X43700Y54000D02*
D03*
X46000D02*
D03*
X57850Y81000D02*
D03*
X60150D02*
D03*
X112675Y27000D02*
D03*
X114975D02*
D03*
X108350Y27000D02*
D03*
X106050D02*
D03*
X108350Y35000D02*
D03*
X106050D02*
D03*
X116850Y51000D02*
D03*
X119150D02*
D03*
X116850Y47000D02*
D03*
X119150D02*
D03*
X116850Y39000D02*
D03*
X119150D02*
D03*
X116850Y43000D02*
D03*
X119150D02*
D03*
X51450Y75882D02*
D03*
X49150D02*
D03*
D14*
X128400Y31550D02*
D03*
Y33850D02*
D03*
X130900Y26790D02*
D03*
Y29090D02*
D03*
X76000Y58150D02*
D03*
Y55850D02*
D03*
X142519Y58235D02*
D03*
Y55935D02*
D03*
X22000Y49150D02*
D03*
Y46850D02*
D03*
D15*
X40850Y92805D02*
D03*
X43150D02*
D03*
D16*
X43300Y90000D02*
D03*
X40700D02*
D03*
X42650D02*
D03*
X42000D02*
D03*
X41350D02*
D03*
D17*
X45950Y80950D02*
D03*
X43700D02*
D03*
X38063Y46000D02*
D03*
X35813D02*
D03*
X66750Y81000D02*
D03*
X69000D02*
D03*
X58160Y50050D02*
D03*
X55910D02*
D03*
X58125Y54000D02*
D03*
X55875D02*
D03*
X63750Y50000D02*
D03*
X66000D02*
D03*
X55875Y46000D02*
D03*
X58125D02*
D03*
X35875Y54000D02*
D03*
X38125D02*
D03*
X102875Y55000D02*
D03*
X105125D02*
D03*
X114975Y31000D02*
D03*
X112725D02*
D03*
X114975Y35000D02*
D03*
X112725D02*
D03*
X106100Y31026D02*
D03*
X108350D02*
D03*
X112125Y55000D02*
D03*
X109875D02*
D03*
X119125Y55000D02*
D03*
X116875D02*
D03*
X45950Y75915D02*
D03*
X43700D02*
D03*
X50750Y81000D02*
D03*
X53000D02*
D03*
X57875Y72000D02*
D03*
X60125D02*
D03*
X66875Y76400D02*
D03*
X69125D02*
D03*
Y71325D02*
D03*
X66875D02*
D03*
X57900Y66000D02*
D03*
X60150D02*
D03*
X66875Y66000D02*
D03*
X69125D02*
D03*
X39250Y81000D02*
D03*
X37000D02*
D03*
X37000Y76000D02*
D03*
X39250D02*
D03*
X49100Y66000D02*
D03*
X51350D02*
D03*
D18*
X52927Y68725D02*
D03*
Y69375D02*
D03*
Y70025D02*
D03*
Y70675D02*
D03*
Y71325D02*
D03*
Y71975D02*
D03*
Y72625D02*
D03*
Y73275D02*
D03*
X47073D02*
D03*
Y72625D02*
D03*
Y71975D02*
D03*
Y71325D02*
D03*
Y70675D02*
D03*
Y70025D02*
D03*
Y69375D02*
D03*
Y68725D02*
D03*
D19*
X50000Y71000D02*
D03*
D20*
X104000Y39150D02*
D03*
X104800D02*
D03*
X105600D02*
D03*
X106400D02*
D03*
X107200D02*
D03*
X108000D02*
D03*
X108800D02*
D03*
X109600D02*
D03*
X110400D02*
D03*
X111200D02*
D03*
X112000D02*
D03*
Y50850D02*
D03*
X111200D02*
D03*
X110400D02*
D03*
X109600D02*
D03*
X108800D02*
D03*
X108000D02*
D03*
X107200D02*
D03*
X106400D02*
D03*
X105600D02*
D03*
X104800D02*
D03*
X104000D02*
D03*
D21*
X113850Y41000D02*
D03*
Y41800D02*
D03*
Y42600D02*
D03*
Y43400D02*
D03*
Y44200D02*
D03*
Y45000D02*
D03*
Y45800D02*
D03*
Y46600D02*
D03*
Y47400D02*
D03*
Y48200D02*
D03*
Y49000D02*
D03*
X102150D02*
D03*
Y48200D02*
D03*
Y47400D02*
D03*
Y46600D02*
D03*
Y45800D02*
D03*
Y45000D02*
D03*
Y44200D02*
D03*
Y43400D02*
D03*
Y42600D02*
D03*
Y41800D02*
D03*
Y41000D02*
D03*
D22*
X58000Y78829D02*
D03*
X58500D02*
D03*
X59000D02*
D03*
X59500D02*
D03*
X60000D02*
D03*
Y75000D02*
D03*
X59500D02*
D03*
X59000D02*
D03*
X58500D02*
D03*
X58000D02*
D03*
D23*
X60915Y77915D02*
D03*
Y77415D02*
D03*
Y76915D02*
D03*
Y76415D02*
D03*
Y75915D02*
D03*
X57085D02*
D03*
Y76415D02*
D03*
Y76915D02*
D03*
Y77415D02*
D03*
D24*
Y77915D02*
D03*
D25*
X59000Y76915D02*
D03*
D26*
X150800Y37000D02*
D03*
X148000Y38000D02*
D03*
X150800Y39000D02*
D03*
X148000Y40000D02*
D03*
X80600Y40225D02*
D03*
X83400Y39225D02*
D03*
X80600Y38225D02*
D03*
X83400Y37225D02*
D03*
D27*
X150800Y35500D02*
D03*
X148000D02*
D03*
X150800Y41500D02*
D03*
X148000D02*
D03*
X80600Y41725D02*
D03*
X83400D02*
D03*
X80600Y35725D02*
D03*
X83400D02*
D03*
D28*
X42275Y39905D02*
D03*
Y38635D02*
D03*
Y37365D02*
D03*
Y36095D02*
D03*
X47725Y39905D02*
D03*
Y38635D02*
D03*
Y37365D02*
D03*
Y36095D02*
D03*
D29*
X128000Y46820D02*
D03*
X128950Y44420D02*
D03*
X127050D02*
D03*
D30*
X38125Y68875D02*
D03*
Y71125D02*
D03*
D31*
X75250Y37900D02*
D03*
X143750Y40100D02*
D03*
D32*
X76950Y37900D02*
D03*
Y40100D02*
D03*
X75050D02*
D03*
X143950Y37900D02*
D03*
X142050D02*
D03*
Y40100D02*
D03*
D33*
X127000Y55000D02*
D03*
X125500D02*
D03*
D34*
X90000Y8200D02*
D03*
Y11000D02*
D03*
X82500Y8200D02*
D03*
Y11000D02*
D03*
D35*
X86500Y8200D02*
D03*
X87000Y11000D02*
D03*
X85500Y8200D02*
D03*
X86000Y11000D02*
D03*
X83500Y8200D02*
D03*
X84000Y11000D02*
D03*
X84500Y8200D02*
D03*
X85000Y11000D02*
D03*
X88000D02*
D03*
X89000D02*
D03*
X87500Y8200D02*
D03*
X88500D02*
D03*
D36*
X42100Y65000D02*
D03*
X44000D02*
D03*
X43050Y67000D02*
D03*
X43000Y71000D02*
D03*
X43950Y69000D02*
D03*
X42050D02*
D03*
D37*
X103025Y65250D02*
D03*
X110975D02*
D03*
X103025Y60750D02*
D03*
X110975D02*
D03*
D40*
X135700Y27940D02*
D03*
Y30480D02*
D03*
X133375Y40920D02*
D03*
Y43460D02*
D03*
Y46000D02*
D03*
Y48540D02*
D03*
Y51080D02*
D03*
D41*
X135700Y25400D02*
D03*
X133375Y38380D02*
D03*
D42*
X87000Y89579D02*
D03*
D43*
Y76979D02*
D03*
Y83279D02*
D03*
X103300Y89579D02*
D03*
Y76979D02*
D03*
Y83279D02*
D03*
D44*
X39775Y89750D02*
D03*
X44225D02*
D03*
D45*
X59000Y33006D02*
D03*
X61000Y88200D02*
D03*
X51000Y88200D02*
D03*
X129000Y63000D02*
D03*
X69000Y88200D02*
D03*
X77000D02*
D03*
X68000Y33006D02*
D03*
X120000Y63000D02*
D03*
D46*
X30001Y74311D02*
D03*
X13999Y19066D02*
D03*
D47*
X30001Y10836D02*
D03*
D48*
X105500Y10250D02*
D03*
X61500D02*
D03*
D49*
X110500D02*
D03*
X66500D02*
D03*
D50*
X149000Y89000D02*
D03*
Y6000D02*
D03*
X6000D02*
D03*
Y89000D02*
D03*
D51*
X82000Y61000D02*
D03*
X149000Y60810D02*
D03*
D52*
X82000Y55920D02*
D03*
Y53380D02*
D03*
Y58460D02*
D03*
X149000Y58270D02*
D03*
Y53190D02*
D03*
Y55730D02*
D03*
%TF.MD5,dc7626d23fc44b7a599d2f3696d95272*%
M02*
