%TF.GenerationSoftware,Altium Limited,Altium Designer,21.6.1 (37)*%
G04 Layer_Color=255*
%FSLAX43Y43*%
%MOMM*%
%TF.SameCoordinates,A8206A2C-5CB0-4F6E-B559-DFDA062B5CA2*%
%TF.FilePolarity,Positive*%
%TF.FileFunction,Pads,Bot*%
%TF.Part,Single*%
G01*
G75*
%TA.AperFunction,ComponentPad*%
%ADD40C,1.800*%
%ADD41R,1.800X1.800*%
%ADD42R,2.400X2.400*%
%ADD43C,2.400*%
%ADD44O,1.050X1.250*%
%ADD45C,2.100*%
%ADD46C,3.450*%
%ADD47C,2.388*%
%ADD48R,1.950X1.950*%
%ADD49C,1.950*%
%TA.AperFunction,ViaPad*%
%ADD50C,7.400*%
%TA.AperFunction,ComponentPad*%
%ADD51R,1.778X1.778*%
%ADD52C,1.778*%
%TA.AperFunction,SMDPad,CuDef*%
%ADD55R,6.477X7.468*%
%TA.AperFunction,ComponentPad*%
%ADD56O,1.400X2.100*%
D40*
X135700Y27940D02*
D03*
Y30480D02*
D03*
X133375Y40920D02*
D03*
Y43460D02*
D03*
Y46000D02*
D03*
Y48540D02*
D03*
Y51080D02*
D03*
D41*
X135700Y25400D02*
D03*
X133375Y38380D02*
D03*
D42*
X87000Y89579D02*
D03*
D43*
Y76979D02*
D03*
Y83279D02*
D03*
X103300Y89579D02*
D03*
Y76979D02*
D03*
Y83279D02*
D03*
D44*
X39775Y89750D02*
D03*
X44225D02*
D03*
D45*
X59000Y33006D02*
D03*
X61000Y88200D02*
D03*
X51000Y88200D02*
D03*
X129000Y63000D02*
D03*
X69000Y88200D02*
D03*
X77000D02*
D03*
X68000Y33006D02*
D03*
X120000Y63000D02*
D03*
D46*
X30001Y74311D02*
D03*
X13999Y19066D02*
D03*
D47*
X30001Y10836D02*
D03*
D48*
X105500Y10250D02*
D03*
X61500D02*
D03*
D49*
X110500D02*
D03*
X66500D02*
D03*
D50*
X149000Y89000D02*
D03*
Y6000D02*
D03*
X6000D02*
D03*
Y89000D02*
D03*
D51*
X82000Y61000D02*
D03*
X149000Y60810D02*
D03*
D52*
X82000Y55920D02*
D03*
Y53380D02*
D03*
Y58460D02*
D03*
X149000Y58270D02*
D03*
Y53190D02*
D03*
Y55730D02*
D03*
D55*
X22000Y86376D02*
D03*
Y7001D02*
D03*
D56*
X46175Y92805D02*
D03*
X37825D02*
D03*
%TF.MD5,7f1b83abe57278960470c9119bc258f2*%
M02*
