M48
;Layer_Color=9474304
;FILE_FORMAT=4:3
METRIC,LZ
;TYPE=PLATED
T1F00S00C0.300
T2F00S00C0.305
T5F00S00C1.000
T6F00S00C1.100
T7F00S00C1.300
T8F00S00C1.600
T9F00S00C4.500
;TYPE=NON_PLATED
T10F00S00C2.388
T11F00S00C3.450
%
T01
X0022Y00119
X00624Y00241
X0096227Y0019523
X0120307Y002432
Y0025635
Y0027
X0126174Y0026174
X0148018Y0038773
X0141
X012895Y004092
X0125082
X01233Y00409
X0115117Y00442
X0115083Y0047039
X0111946Y00458
X0109066Y0045437
Y00442
X0109Y0047
Y004854
X01096Y0037574
X01104
X0111946
X01072
X010835Y0028778
X01127Y002879
X0114975Y0029464
X0117995Y0051117
X012Y0056575
X0117792Y005861
X01147Y0056575
X0128Y0048526
X0103809Y0046494
Y00442
Y0042823
X01056Y0040908
X01064Y0037574
X0102831Y0036994
X0099174Y0045067
X0095648Y0042163
X0090233Y0042456
Y0044488
Y0040068
Y003836
X0084Y0033006
X0077Y0032836
X0077127Y006018
X0100503Y0057463
X0101892Y0057475
X0103716Y0057463
X010515Y0057475
X0066382Y0058364
X0066342Y0059702
X0062972Y0056527
X006181Y0063182
Y0064879
X0059042Y0066255
X0051438Y0053124
X0049Y0051
Y0048498
Y0046113
X0047407Y0046688
X0045974Y004989
X0044137Y004989
X0037135Y0046022
X0051Y00401
Y0037365
Y0036095
X0054989Y0037365
X0055Y00401
X0056607Y0044
X0055Y0033
X0064884Y0049872
X0066875Y0051882
Y0074129
X0062268Y0077406
Y0079463
X0060134Y0084035
X0055491Y0080987
Y0077406
X0055652Y0073797
X0057823Y0073825
X0051244Y0074404
X0048365Y0072994
X0043891Y0071389
X004017Y0075653
X0051244Y0078994
X0054059Y0068725
T02
X0008788Y0010008
X0023788Y0020008
X0033788
X0043788
X0053788
X0063788
X0058788Y0010008
X0048788
X0038788
X0068788
X0098788
X0103788Y0020008
X0093788
X0113788
X0123788
X0133788
X0143788
X0138788Y0010008
X0128788
X0118788
X0108788
X0118788Y0030008
X0123788Y0040008
X0113788
Y0060008
X0123788
X0133788
X0138788Y0050008
Y0030008
X0098788Y0050008
X0088788
X0068788
X0053788Y0060008
X0043788
X0033788
X0028788Y0050008
Y0030008
X0038788
X0048788
X0058788
X0053788Y0040008
X0043788
X0023788
X0013788
X0018788Y0050008
X0008788
X0013788Y0060008
X0018788Y0030008
X0008788
Y0070008
X0018788
X0023788Y0080008
X0013788
X0033788
X0038788Y0070008
X0028788
X0063788Y0080008
X0073788
X0083788
X0093788
X0103788
X0098788Y0070008
X0088788
X0078788
X0108788
X0118788
X0128788
X0138788
X0143788Y0080008
X0133788
X0123788
X0113788
T05
X01357Y00254
Y002794
Y003048
X0133375Y003838
Y004092
Y004346
Y0046
Y004854
Y005108
T06
X0149Y005319
Y005573
Y005827
Y006081
X0082Y0061
Y005846
Y005592
Y005338
T07
X00615Y001025
X00665
X01055
X01105
T08
X012Y0063
X0129
X0068Y0033006
X0059
X0061Y00882
X0051Y00882
X0069Y00882
X0077
X0087Y0089579
Y0083279
Y0076979
X01033
Y0083279
Y0089579
T09
X0006Y0006
X0149
X0006Y0089
X0149
T10
X0030001Y0010836
T11
X0013999Y0019066
X0030001Y0074311
M30
