%TF.GenerationSoftware,Altium Limited,Altium Designer,21.6.1 (37)*%
G04 Layer_Physical_Order=1*
G04 Layer_Color=255*
%FSLAX43Y43*%
%MOMM*%
%TF.SameCoordinates,A8206A2C-5CB0-4F6E-B559-DFDA062B5CA2*%
%TF.FilePolarity,Positive*%
%TF.FileFunction,Copper,L1,Top,Signal*%
%TF.Part,Single*%
G01*
G75*
%TA.AperFunction,Conductor*%
%ADD10C,0.400*%
%TA.AperFunction,SMDPad,CuDef*%
G04:AMPARAMS|DCode=11|XSize=1.44mm|YSize=0.3mm|CornerRadius=0.075mm|HoleSize=0mm|Usage=FLASHONLY|Rotation=0.000|XOffset=0mm|YOffset=0mm|HoleType=Round|Shape=RoundedRectangle|*
%AMROUNDEDRECTD11*
21,1,1.440,0.150,0,0,0.0*
21,1,1.290,0.300,0,0,0.0*
1,1,0.150,0.645,-0.075*
1,1,0.150,-0.645,-0.075*
1,1,0.150,-0.645,0.075*
1,1,0.150,0.645,0.075*
%
%ADD11ROUNDEDRECTD11*%
%ADD12O,2.200X0.600*%
G04:AMPARAMS|DCode=13|XSize=1.5mm|YSize=1mm|CornerRadius=0.25mm|HoleSize=0mm|Usage=FLASHONLY|Rotation=90.000|XOffset=0mm|YOffset=0mm|HoleType=Round|Shape=RoundedRectangle|*
%AMROUNDEDRECTD13*
21,1,1.500,0.500,0,0,90.0*
21,1,1.000,1.000,0,0,90.0*
1,1,0.500,0.250,0.500*
1,1,0.500,0.250,-0.500*
1,1,0.500,-0.250,-0.500*
1,1,0.500,-0.250,0.500*
%
%ADD13ROUNDEDRECTD13*%
G04:AMPARAMS|DCode=14|XSize=1.5mm|YSize=1mm|CornerRadius=0.25mm|HoleSize=0mm|Usage=FLASHONLY|Rotation=0.000|XOffset=0mm|YOffset=0mm|HoleType=Round|Shape=RoundedRectangle|*
%AMROUNDEDRECTD14*
21,1,1.500,0.500,0,0,0.0*
21,1,1.000,1.000,0,0,0.0*
1,1,0.500,0.500,-0.250*
1,1,0.500,-0.500,-0.250*
1,1,0.500,-0.500,0.250*
1,1,0.500,0.500,0.250*
%
%ADD14ROUNDEDRECTD14*%
%ADD15R,1.800X1.900*%
%ADD16R,0.400X1.350*%
G04:AMPARAMS|DCode=17|XSize=1.45mm|YSize=0.95mm|CornerRadius=0.238mm|HoleSize=0mm|Usage=FLASHONLY|Rotation=90.000|XOffset=0mm|YOffset=0mm|HoleType=Round|Shape=RoundedRectangle|*
%AMROUNDEDRECTD17*
21,1,1.450,0.475,0,0,90.0*
21,1,0.975,0.950,0,0,90.0*
1,1,0.475,0.238,0.488*
1,1,0.475,0.238,-0.488*
1,1,0.475,-0.238,-0.488*
1,1,0.475,-0.238,0.488*
%
%ADD17ROUNDEDRECTD17*%
%ADD18R,1.359X0.356*%
%ADD19R,3.099X3.099*%
%ADD20O,0.600X1.700*%
%ADD21O,1.700X0.600*%
G04:AMPARAMS|DCode=22|XSize=0.239mm|YSize=0.729mm|CornerRadius=0.12mm|HoleSize=0mm|Usage=FLASHONLY|Rotation=0.000|XOffset=0mm|YOffset=0mm|HoleType=Round|Shape=RoundedRectangle|*
%AMROUNDEDRECTD22*
21,1,0.239,0.490,0,0,0.0*
21,1,0.000,0.729,0,0,0.0*
1,1,0.239,0.000,-0.245*
1,1,0.239,0.000,-0.245*
1,1,0.239,0.000,0.245*
1,1,0.239,0.000,0.245*
%
%ADD22ROUNDEDRECTD22*%
G04:AMPARAMS|DCode=23|XSize=0.729mm|YSize=0.239mm|CornerRadius=0.12mm|HoleSize=0mm|Usage=FLASHONLY|Rotation=0.000|XOffset=0mm|YOffset=0mm|HoleType=Round|Shape=RoundedRectangle|*
%AMROUNDEDRECTD23*
21,1,0.729,0.000,0,0,0.0*
21,1,0.490,0.239,0,0,0.0*
1,1,0.239,0.245,0.000*
1,1,0.239,-0.245,0.000*
1,1,0.239,-0.245,0.000*
1,1,0.239,0.245,0.000*
%
%ADD23ROUNDEDRECTD23*%
%ADD24R,0.729X0.239*%
%ADD25R,2.800X2.800*%
%ADD26R,1.500X0.600*%
%ADD27R,1.500X0.800*%
G04:AMPARAMS|DCode=28|XSize=0.6mm|YSize=1.45mm|CornerRadius=0.051mm|HoleSize=0mm|Usage=FLASHONLY|Rotation=90.000|XOffset=0mm|YOffset=0mm|HoleType=Round|Shape=RoundedRectangle|*
%AMROUNDEDRECTD28*
21,1,0.600,1.348,0,0,90.0*
21,1,0.498,1.450,0,0,90.0*
1,1,0.102,0.674,0.249*
1,1,0.102,0.674,-0.249*
1,1,0.102,-0.674,-0.249*
1,1,0.102,-0.674,0.249*
%
%ADD28ROUNDEDRECTD28*%
%ADD29R,0.600X1.350*%
G04:AMPARAMS|DCode=30|XSize=1.45mm|YSize=0.95mm|CornerRadius=0.238mm|HoleSize=0mm|Usage=FLASHONLY|Rotation=0.000|XOffset=0mm|YOffset=0mm|HoleType=Round|Shape=RoundedRectangle|*
%AMROUNDEDRECTD30*
21,1,1.450,0.475,0,0,0.0*
21,1,0.975,0.950,0,0,0.0*
1,1,0.475,0.488,-0.238*
1,1,0.475,-0.488,-0.238*
1,1,0.475,-0.488,0.238*
1,1,0.475,0.488,0.238*
%
%ADD30ROUNDEDRECTD30*%
%ADD31R,1.400X1.400*%
%ADD32R,1.000X1.400*%
%ADD33R,0.800X0.800*%
%ADD34R,0.800X1.500*%
%ADD35R,0.400X1.500*%
%ADD36R,0.800X0.900*%
%ADD37R,1.550X1.300*%
%TA.AperFunction,Conductor*%
%ADD38C,0.254*%
%ADD39C,0.390*%
%TA.AperFunction,ComponentPad*%
%ADD40C,1.800*%
%ADD41R,1.800X1.800*%
%ADD42R,2.400X2.400*%
%ADD43C,2.400*%
%ADD44O,1.050X1.250*%
%ADD45C,2.100*%
%ADD46C,3.450*%
%ADD47C,2.388*%
%ADD48R,1.950X1.950*%
%ADD49C,1.950*%
%TA.AperFunction,ViaPad*%
%ADD50C,7.400*%
%TA.AperFunction,ComponentPad*%
%ADD51R,1.778X1.778*%
%ADD52C,1.778*%
%TA.AperFunction,ViaPad*%
%ADD53C,0.600*%
%ADD54C,0.610*%
G36*
X154745Y255D02*
X255D01*
Y94745D01*
X154745D01*
X154745Y255D01*
D02*
G37*
%LPC*%
G36*
X44202Y93907D02*
X42098D01*
Y91703D01*
X44202D01*
Y93907D01*
D02*
G37*
G36*
X41902D02*
X39798D01*
Y91703D01*
X41902D01*
Y93907D01*
D02*
G37*
G36*
X46452Y93920D02*
X44667D01*
X44551Y93871D01*
X44503Y93755D01*
Y91855D01*
X44551Y91739D01*
X44667Y91690D01*
X46612D01*
X46642Y91703D01*
X46675D01*
X46785Y91749D01*
X46808Y91772D01*
X46839Y91784D01*
X46923Y91869D01*
X46936Y91899D01*
X46959Y91922D01*
X47004Y92032D01*
Y92065D01*
X47017Y92095D01*
Y93354D01*
X47004Y93385D01*
Y93417D01*
X46928Y93601D01*
X46905Y93624D01*
X46893Y93655D01*
X46752Y93795D01*
X46722Y93808D01*
X46699Y93831D01*
X46515Y93907D01*
X46482D01*
X46452Y93920D01*
D02*
G37*
G36*
X39332D02*
X37548D01*
X37518Y93907D01*
X37485D01*
X37301Y93831D01*
X37278Y93808D01*
X37248Y93795D01*
X37107Y93655D01*
X37095Y93624D01*
X37072Y93601D01*
X36995Y93417D01*
Y93385D01*
X36983Y93354D01*
Y92095D01*
X36995Y92065D01*
Y92032D01*
X37041Y91922D01*
X37064Y91899D01*
X37077Y91869D01*
X37161Y91784D01*
X37191Y91772D01*
X37215Y91749D01*
X37325Y91703D01*
X37358D01*
X37388Y91690D01*
X39332D01*
X39449Y91739D01*
X39497Y91855D01*
Y93755D01*
X39449Y93871D01*
X39332Y93920D01*
D02*
G37*
G36*
X51165Y89450D02*
X51100D01*
Y88300D01*
X52250D01*
Y88365D01*
X52165Y88682D01*
X52000Y88967D01*
X51767Y89200D01*
X51482Y89365D01*
X51165Y89450D01*
D02*
G37*
G36*
X50900D02*
X50835D01*
X50517Y89365D01*
X50232Y89200D01*
X50000Y88967D01*
X49835Y88682D01*
X49750Y88365D01*
Y88300D01*
X50900D01*
Y89450D01*
D02*
G37*
G36*
X52250Y88100D02*
X51100D01*
Y86950D01*
X51165D01*
X51482Y87035D01*
X51767Y87200D01*
X52000Y87432D01*
X52165Y87717D01*
X52250Y88035D01*
Y88100D01*
D02*
G37*
G36*
X149303Y92852D02*
X148697D01*
X148098Y92757D01*
X147521Y92570D01*
X146981Y92295D01*
X146491Y91938D01*
X146062Y91509D01*
X145705Y91019D01*
X145430Y90479D01*
X145243Y89902D01*
X145148Y89303D01*
Y88697D01*
X145243Y88098D01*
X145430Y87521D01*
X145705Y86981D01*
X146062Y86491D01*
X146491Y86062D01*
X146981Y85705D01*
X147521Y85430D01*
X148098Y85243D01*
X148697Y85148D01*
X149303D01*
X149902Y85243D01*
X150479Y85430D01*
X151019Y85705D01*
X151509Y86062D01*
X151938Y86491D01*
X152295Y86981D01*
X152570Y87521D01*
X152757Y88098D01*
X152852Y88697D01*
Y89303D01*
X152757Y89902D01*
X152570Y90479D01*
X152295Y91019D01*
X151938Y91509D01*
X151509Y91938D01*
X151019Y92295D01*
X150479Y92570D01*
X149902Y92757D01*
X149303Y92852D01*
D02*
G37*
G36*
X6303D02*
X5697D01*
X5098Y92757D01*
X4521Y92570D01*
X3981Y92295D01*
X3491Y91938D01*
X3062Y91509D01*
X2705Y91019D01*
X2430Y90479D01*
X2243Y89902D01*
X2148Y89303D01*
Y88697D01*
X2243Y88098D01*
X2430Y87521D01*
X2705Y86981D01*
X3062Y86491D01*
X3491Y86062D01*
X3981Y85705D01*
X4521Y85430D01*
X5098Y85243D01*
X5697Y85148D01*
X6303D01*
X6902Y85243D01*
X7479Y85430D01*
X8019Y85705D01*
X8509Y86062D01*
X8938Y86491D01*
X9295Y86981D01*
X9570Y87521D01*
X9757Y88098D01*
X9852Y88697D01*
Y89303D01*
X9757Y89902D01*
X9570Y90479D01*
X9295Y91019D01*
X8938Y91509D01*
X8509Y91938D01*
X8019Y92295D01*
X7479Y92570D01*
X6902Y92757D01*
X6303Y92852D01*
D02*
G37*
G36*
X60234Y84535D02*
Y84135D01*
X60634D01*
X60558Y84319D01*
X60417Y84459D01*
X60234Y84535D01*
D02*
G37*
G36*
X60034D02*
X59851Y84459D01*
X59710Y84319D01*
X59634Y84135D01*
X60034D01*
Y84535D01*
D02*
G37*
G36*
X103478Y84631D02*
X103122D01*
X102778Y84539D01*
X102470Y84361D01*
X102218Y84109D01*
X102040Y83801D01*
X101948Y83457D01*
Y83101D01*
X102040Y82757D01*
X102218Y82449D01*
X102470Y82197D01*
X102778Y82019D01*
X103122Y81927D01*
X103478D01*
X103822Y82019D01*
X104130Y82197D01*
X104382Y82449D01*
X104560Y82757D01*
X104652Y83101D01*
Y83457D01*
X104560Y83801D01*
X104382Y84109D01*
X104130Y84361D01*
X103822Y84539D01*
X103478Y84631D01*
D02*
G37*
G36*
X50988Y81885D02*
X50513D01*
X50361Y81854D01*
X50232Y81768D01*
X50146Y81639D01*
X50115Y81488D01*
Y81259D01*
X46585D01*
Y81438D01*
X46554Y81589D01*
X46468Y81718D01*
X46339Y81804D01*
X46188Y81835D01*
X45713D01*
X45561Y81804D01*
X45432Y81718D01*
X45346Y81589D01*
X45315Y81438D01*
Y80463D01*
X45346Y80311D01*
X45432Y80182D01*
X45561Y80096D01*
X45713Y80065D01*
X46188D01*
X46339Y80096D01*
X46468Y80182D01*
X46554Y80311D01*
X46585Y80463D01*
Y80691D01*
X50115D01*
Y80512D01*
X50146Y80361D01*
X50232Y80232D01*
X50361Y80146D01*
X50466Y80125D01*
Y79488D01*
X50487Y79379D01*
X50549Y79286D01*
X50792Y79043D01*
Y78904D01*
X50861Y78738D01*
X50988Y78610D01*
X51154Y78542D01*
X51334D01*
X51500Y78610D01*
X51627Y78738D01*
X51696Y78904D01*
Y79084D01*
X51627Y79250D01*
X51500Y79377D01*
X51334Y79446D01*
X51194D01*
X51034Y79605D01*
Y80125D01*
X51139Y80146D01*
X51268Y80232D01*
X51354Y80361D01*
X51385Y80512D01*
Y81488D01*
X51354Y81639D01*
X51268Y81768D01*
X51139Y81854D01*
X50988Y81885D01*
D02*
G37*
G36*
X143889Y80512D02*
X143888D01*
Y80108D01*
X144293D01*
Y80108D01*
X144216Y80294D01*
X144074Y80436D01*
X143889Y80512D01*
D02*
G37*
G36*
X143688D02*
X143688D01*
X143502Y80436D01*
X143360Y80294D01*
X143284Y80108D01*
Y80108D01*
X143688D01*
Y80512D01*
D02*
G37*
G36*
X133889D02*
X133888D01*
Y80108D01*
X134293D01*
Y80108D01*
X134216Y80294D01*
X134074Y80436D01*
X133889Y80512D01*
D02*
G37*
G36*
X133688D02*
X133688D01*
X133502Y80436D01*
X133360Y80294D01*
X133284Y80108D01*
Y80108D01*
X133688D01*
Y80512D01*
D02*
G37*
G36*
X123889D02*
X123888D01*
Y80108D01*
X124293D01*
Y80108D01*
X124216Y80294D01*
X124074Y80436D01*
X123889Y80512D01*
D02*
G37*
G36*
X123688D02*
X123688D01*
X123502Y80436D01*
X123360Y80294D01*
X123284Y80108D01*
Y80108D01*
X123688D01*
Y80512D01*
D02*
G37*
G36*
X113889D02*
X113888D01*
Y80108D01*
X114293D01*
Y80108D01*
X114216Y80294D01*
X114074Y80436D01*
X113889Y80512D01*
D02*
G37*
G36*
X113688D02*
X113688D01*
X113502Y80436D01*
X113360Y80294D01*
X113284Y80108D01*
Y80108D01*
X113688D01*
Y80512D01*
D02*
G37*
G36*
X103889D02*
X103888D01*
Y80108D01*
X104293D01*
Y80108D01*
X104216Y80294D01*
X104074Y80436D01*
X103889Y80512D01*
D02*
G37*
G36*
X103688D02*
X103688D01*
X103502Y80436D01*
X103360Y80294D01*
X103284Y80108D01*
Y80108D01*
X103688D01*
Y80512D01*
D02*
G37*
G36*
X93889D02*
X93888D01*
Y80108D01*
X94293D01*
Y80108D01*
X94216Y80294D01*
X94074Y80436D01*
X93889Y80512D01*
D02*
G37*
G36*
X93688D02*
X93688D01*
X93502Y80436D01*
X93360Y80294D01*
X93284Y80108D01*
Y80108D01*
X93688D01*
Y80512D01*
D02*
G37*
G36*
X83889D02*
X83888D01*
Y80108D01*
X84293D01*
Y80108D01*
X84216Y80294D01*
X84074Y80436D01*
X83889Y80512D01*
D02*
G37*
G36*
X83688D02*
X83688D01*
X83502Y80436D01*
X83360Y80294D01*
X83284Y80108D01*
Y80108D01*
X83688D01*
Y80512D01*
D02*
G37*
G36*
X73889D02*
X73888D01*
Y80108D01*
X74293D01*
Y80108D01*
X74216Y80294D01*
X74074Y80436D01*
X73889Y80512D01*
D02*
G37*
G36*
X73688D02*
X73688D01*
X73502Y80436D01*
X73360Y80294D01*
X73284Y80108D01*
Y80108D01*
X73688D01*
Y80512D01*
D02*
G37*
G36*
X33889D02*
X33888D01*
Y80108D01*
X34293D01*
Y80108D01*
X34216Y80294D01*
X34074Y80436D01*
X33889Y80512D01*
D02*
G37*
G36*
X33688D02*
X33688D01*
X33502Y80436D01*
X33360Y80294D01*
X33284Y80108D01*
Y80108D01*
X33688D01*
Y80512D01*
D02*
G37*
G36*
X23889D02*
X23888D01*
Y80108D01*
X24293D01*
Y80108D01*
X24216Y80294D01*
X24074Y80436D01*
X23889Y80512D01*
D02*
G37*
G36*
X23688D02*
X23688D01*
X23502Y80436D01*
X23360Y80294D01*
X23284Y80108D01*
Y80108D01*
X23688D01*
Y80512D01*
D02*
G37*
G36*
X13889D02*
X13888D01*
Y80108D01*
X14293D01*
Y80108D01*
X14216Y80294D01*
X14074Y80436D01*
X13889Y80512D01*
D02*
G37*
G36*
X13688D02*
X13688D01*
X13502Y80436D01*
X13360Y80294D01*
X13284Y80108D01*
Y80108D01*
X13688D01*
Y80512D01*
D02*
G37*
G36*
X144293Y79908D02*
X143888D01*
Y79503D01*
X143889D01*
X144074Y79580D01*
X144216Y79722D01*
X144293Y79907D01*
Y79908D01*
D02*
G37*
G36*
X143688D02*
X143284D01*
Y79907D01*
X143360Y79722D01*
X143502Y79580D01*
X143688Y79503D01*
X143688D01*
Y79908D01*
D02*
G37*
G36*
X134293D02*
X133888D01*
Y79503D01*
X133889D01*
X134074Y79580D01*
X134216Y79722D01*
X134293Y79907D01*
Y79908D01*
D02*
G37*
G36*
X133688D02*
X133284D01*
Y79907D01*
X133360Y79722D01*
X133502Y79580D01*
X133688Y79503D01*
X133688D01*
Y79908D01*
D02*
G37*
G36*
X124293D02*
X123888D01*
Y79503D01*
X123889D01*
X124074Y79580D01*
X124216Y79722D01*
X124293Y79907D01*
Y79908D01*
D02*
G37*
G36*
X123688D02*
X123284D01*
Y79907D01*
X123360Y79722D01*
X123502Y79580D01*
X123688Y79503D01*
X123688D01*
Y79908D01*
D02*
G37*
G36*
X114293D02*
X113888D01*
Y79503D01*
X113889D01*
X114074Y79580D01*
X114216Y79722D01*
X114293Y79907D01*
Y79908D01*
D02*
G37*
G36*
X113688D02*
X113284D01*
Y79907D01*
X113360Y79722D01*
X113502Y79580D01*
X113688Y79503D01*
X113688D01*
Y79908D01*
D02*
G37*
G36*
X104293D02*
X103888D01*
Y79503D01*
X103889D01*
X104074Y79580D01*
X104216Y79722D01*
X104293Y79907D01*
Y79908D01*
D02*
G37*
G36*
X103688D02*
X103284D01*
Y79907D01*
X103360Y79722D01*
X103502Y79580D01*
X103688Y79503D01*
X103688D01*
Y79908D01*
D02*
G37*
G36*
X94293D02*
X93888D01*
Y79503D01*
X93889D01*
X94074Y79580D01*
X94216Y79722D01*
X94293Y79907D01*
Y79908D01*
D02*
G37*
G36*
X93688D02*
X93284D01*
Y79907D01*
X93360Y79722D01*
X93502Y79580D01*
X93688Y79503D01*
X93688D01*
Y79908D01*
D02*
G37*
G36*
X84293D02*
X83888D01*
Y79503D01*
X83889D01*
X84074Y79580D01*
X84216Y79722D01*
X84293Y79907D01*
Y79908D01*
D02*
G37*
G36*
X83688D02*
X83284D01*
Y79907D01*
X83360Y79722D01*
X83502Y79580D01*
X83688Y79503D01*
X83688D01*
Y79908D01*
D02*
G37*
G36*
X74293D02*
X73888D01*
Y79503D01*
X73889D01*
X74074Y79580D01*
X74216Y79722D01*
X74293Y79907D01*
Y79908D01*
D02*
G37*
G36*
X73688D02*
X73284D01*
Y79907D01*
X73360Y79722D01*
X73502Y79580D01*
X73688Y79503D01*
X73688D01*
Y79908D01*
D02*
G37*
G36*
X34293D02*
X33888D01*
Y79503D01*
X33889D01*
X34074Y79580D01*
X34216Y79722D01*
X34293Y79907D01*
Y79908D01*
D02*
G37*
G36*
X33688D02*
X33284D01*
Y79907D01*
X33360Y79722D01*
X33502Y79580D01*
X33688Y79503D01*
X33688D01*
Y79908D01*
D02*
G37*
G36*
X24293D02*
X23888D01*
Y79503D01*
X23889D01*
X24074Y79580D01*
X24216Y79722D01*
X24293Y79907D01*
Y79908D01*
D02*
G37*
G36*
X23688D02*
X23284D01*
Y79907D01*
X23360Y79722D01*
X23502Y79580D01*
X23688Y79503D01*
X23688D01*
Y79908D01*
D02*
G37*
G36*
X14293D02*
X13888D01*
Y79503D01*
X13889D01*
X14074Y79580D01*
X14216Y79722D01*
X14293Y79907D01*
Y79908D01*
D02*
G37*
G36*
X13688D02*
X13284D01*
Y79907D01*
X13360Y79722D01*
X13502Y79580D01*
X13688Y79503D01*
X13688D01*
Y79908D01*
D02*
G37*
G36*
X103484Y78379D02*
X103400D01*
Y77079D01*
X104700D01*
Y77163D01*
X104605Y77519D01*
X104420Y77838D01*
X104160Y78099D01*
X103840Y78283D01*
X103484Y78379D01*
D02*
G37*
G36*
X103200D02*
X103116D01*
X102760Y78283D01*
X102440Y78099D01*
X102180Y77838D01*
X101995Y77519D01*
X101900Y77163D01*
Y77079D01*
X103200D01*
Y78379D01*
D02*
G37*
G36*
X87184D02*
X87100D01*
Y77079D01*
X88400D01*
Y77163D01*
X88305Y77519D01*
X88120Y77838D01*
X87860Y78099D01*
X87540Y78283D01*
X87184Y78379D01*
D02*
G37*
G36*
X86900D02*
X86816D01*
X86460Y78283D01*
X86140Y78099D01*
X85880Y77838D01*
X85695Y77519D01*
X85600Y77163D01*
Y77079D01*
X86900D01*
Y78379D01*
D02*
G37*
G36*
X37237Y76934D02*
X37100D01*
Y76100D01*
X37684D01*
Y76488D01*
X37650Y76658D01*
X37553Y76803D01*
X37408Y76900D01*
X37237Y76934D01*
D02*
G37*
G36*
X51700Y76841D02*
X51550D01*
Y75982D01*
X52159D01*
Y76382D01*
X52124Y76558D01*
X52024Y76707D01*
X51876Y76806D01*
X51700Y76841D01*
D02*
G37*
G36*
X51350D02*
X51200D01*
X51024Y76806D01*
X50876Y76707D01*
X50776Y76558D01*
X50741Y76382D01*
Y75982D01*
X51350D01*
Y76841D01*
D02*
G37*
G36*
X52159Y75782D02*
X51450D01*
X50741D01*
Y75382D01*
X50776Y75207D01*
X50876Y75058D01*
X50923Y75026D01*
Y74790D01*
X50820Y74687D01*
X50744Y74504D01*
X51744D01*
X51668Y74687D01*
X51641Y74714D01*
Y74923D01*
X51700D01*
X51876Y74958D01*
X52024Y75058D01*
X52124Y75207D01*
X52159Y75382D01*
Y75782D01*
D02*
G37*
G36*
X67375Y74029D02*
X66975D01*
Y73630D01*
X67158Y73706D01*
X67299Y73846D01*
X67375Y74029D01*
D02*
G37*
G36*
X66775D02*
X66375D01*
X66451Y73846D01*
X66592Y73706D01*
X66775Y73630D01*
Y74029D01*
D02*
G37*
G36*
X30186Y76188D02*
X29816D01*
X29454Y76116D01*
X29112Y75974D01*
X28805Y75769D01*
X28543Y75507D01*
X28338Y75200D01*
X28196Y74858D01*
X28124Y74496D01*
Y74126D01*
X28196Y73763D01*
X28338Y73422D01*
X28543Y73114D01*
X28805Y72853D01*
X29112Y72647D01*
X29454Y72506D01*
X29816Y72434D01*
X30186D01*
X30549Y72506D01*
X30890Y72647D01*
X31198Y72853D01*
X31459Y73114D01*
X31664Y73422D01*
X31806Y73763D01*
X31878Y74126D01*
Y74496D01*
X31806Y74858D01*
X31664Y75200D01*
X31459Y75507D01*
X31198Y75769D01*
X30890Y75974D01*
X30549Y76116D01*
X30186Y76188D01*
D02*
G37*
G36*
X60809Y71900D02*
X60225D01*
Y71066D01*
X60363D01*
X60533Y71100D01*
X60678Y71197D01*
X60775Y71342D01*
X60809Y71513D01*
Y71900D01*
D02*
G37*
G36*
X138889Y70512D02*
X138888D01*
Y70108D01*
X139293D01*
Y70108D01*
X139216Y70294D01*
X139074Y70436D01*
X138889Y70512D01*
D02*
G37*
G36*
X138688D02*
X138688D01*
X138502Y70436D01*
X138360Y70294D01*
X138284Y70108D01*
Y70108D01*
X138688D01*
Y70512D01*
D02*
G37*
G36*
X128889D02*
X128888D01*
Y70108D01*
X129293D01*
Y70108D01*
X129216Y70294D01*
X129074Y70436D01*
X128889Y70512D01*
D02*
G37*
G36*
X128688D02*
X128688D01*
X128502Y70436D01*
X128360Y70294D01*
X128284Y70108D01*
Y70108D01*
X128688D01*
Y70512D01*
D02*
G37*
G36*
X118889D02*
X118888D01*
Y70108D01*
X119293D01*
Y70108D01*
X119216Y70294D01*
X119074Y70436D01*
X118889Y70512D01*
D02*
G37*
G36*
X118688D02*
X118688D01*
X118502Y70436D01*
X118360Y70294D01*
X118284Y70108D01*
Y70108D01*
X118688D01*
Y70512D01*
D02*
G37*
G36*
X108889D02*
X108888D01*
Y70108D01*
X109293D01*
Y70108D01*
X109216Y70294D01*
X109074Y70436D01*
X108889Y70512D01*
D02*
G37*
G36*
X108688D02*
X108688D01*
X108502Y70436D01*
X108360Y70294D01*
X108284Y70108D01*
Y70108D01*
X108688D01*
Y70512D01*
D02*
G37*
G36*
X98889D02*
X98888D01*
Y70108D01*
X99293D01*
Y70108D01*
X99216Y70294D01*
X99074Y70436D01*
X98889Y70512D01*
D02*
G37*
G36*
X98688D02*
X98688D01*
X98502Y70436D01*
X98360Y70294D01*
X98284Y70108D01*
Y70108D01*
X98688D01*
Y70512D01*
D02*
G37*
G36*
X88889D02*
X88888D01*
Y70108D01*
X89293D01*
Y70108D01*
X89216Y70294D01*
X89074Y70436D01*
X88889Y70512D01*
D02*
G37*
G36*
X88688D02*
X88688D01*
X88502Y70436D01*
X88360Y70294D01*
X88284Y70108D01*
Y70108D01*
X88688D01*
Y70512D01*
D02*
G37*
G36*
X78889D02*
X78888D01*
Y70108D01*
X79293D01*
Y70108D01*
X79216Y70294D01*
X79074Y70436D01*
X78889Y70512D01*
D02*
G37*
G36*
X78688D02*
X78688D01*
X78502Y70436D01*
X78360Y70294D01*
X78284Y70108D01*
Y70108D01*
X78688D01*
Y70512D01*
D02*
G37*
G36*
X28889D02*
X28888D01*
Y70108D01*
X29293D01*
Y70108D01*
X29216Y70294D01*
X29074Y70436D01*
X28889Y70512D01*
D02*
G37*
G36*
X28688D02*
X28688D01*
X28502Y70436D01*
X28360Y70294D01*
X28284Y70108D01*
Y70108D01*
X28688D01*
Y70512D01*
D02*
G37*
G36*
X18889D02*
X18888D01*
Y70108D01*
X19293D01*
Y70108D01*
X19216Y70294D01*
X19074Y70436D01*
X18889Y70512D01*
D02*
G37*
G36*
X18688D02*
X18688D01*
X18502Y70436D01*
X18360Y70294D01*
X18284Y70108D01*
Y70108D01*
X18688D01*
Y70512D01*
D02*
G37*
G36*
X8889D02*
X8888D01*
Y70108D01*
X9293D01*
Y70108D01*
X9216Y70294D01*
X9074Y70436D01*
X8889Y70512D01*
D02*
G37*
G36*
X8688D02*
X8688D01*
X8502Y70436D01*
X8360Y70294D01*
X8284Y70108D01*
Y70108D01*
X8688D01*
Y70512D01*
D02*
G37*
G36*
X139293Y69908D02*
X138888D01*
Y69503D01*
X138889D01*
X139074Y69580D01*
X139216Y69722D01*
X139293Y69907D01*
Y69908D01*
D02*
G37*
G36*
X138688D02*
X138284D01*
Y69907D01*
X138360Y69722D01*
X138502Y69580D01*
X138688Y69503D01*
X138688D01*
Y69908D01*
D02*
G37*
G36*
X129293D02*
X128888D01*
Y69503D01*
X128889D01*
X129074Y69580D01*
X129216Y69722D01*
X129293Y69907D01*
Y69908D01*
D02*
G37*
G36*
X128688D02*
X128284D01*
Y69907D01*
X128360Y69722D01*
X128502Y69580D01*
X128688Y69503D01*
X128688D01*
Y69908D01*
D02*
G37*
G36*
X119293D02*
X118888D01*
Y69503D01*
X118889D01*
X119074Y69580D01*
X119216Y69722D01*
X119293Y69907D01*
Y69908D01*
D02*
G37*
G36*
X118688D02*
X118284D01*
Y69907D01*
X118360Y69722D01*
X118502Y69580D01*
X118688Y69503D01*
X118688D01*
Y69908D01*
D02*
G37*
G36*
X109293D02*
X108888D01*
Y69503D01*
X108889D01*
X109074Y69580D01*
X109216Y69722D01*
X109293Y69907D01*
Y69908D01*
D02*
G37*
G36*
X108688D02*
X108284D01*
Y69907D01*
X108360Y69722D01*
X108502Y69580D01*
X108688Y69503D01*
X108688D01*
Y69908D01*
D02*
G37*
G36*
X99293D02*
X98888D01*
Y69503D01*
X98889D01*
X99074Y69580D01*
X99216Y69722D01*
X99293Y69907D01*
Y69908D01*
D02*
G37*
G36*
X98688D02*
X98284D01*
Y69907D01*
X98360Y69722D01*
X98502Y69580D01*
X98688Y69503D01*
X98688D01*
Y69908D01*
D02*
G37*
G36*
X89293D02*
X88888D01*
Y69503D01*
X88889D01*
X89074Y69580D01*
X89216Y69722D01*
X89293Y69907D01*
Y69908D01*
D02*
G37*
G36*
X88688D02*
X88284D01*
Y69907D01*
X88360Y69722D01*
X88502Y69580D01*
X88688Y69503D01*
X88688D01*
Y69908D01*
D02*
G37*
G36*
X79293D02*
X78888D01*
Y69503D01*
X78889D01*
X79074Y69580D01*
X79216Y69722D01*
X79293Y69907D01*
Y69908D01*
D02*
G37*
G36*
X78688D02*
X78284D01*
Y69907D01*
X78360Y69722D01*
X78502Y69580D01*
X78688Y69503D01*
X78688D01*
Y69908D01*
D02*
G37*
G36*
X29293D02*
X28888D01*
Y69503D01*
X28889D01*
X29074Y69580D01*
X29216Y69722D01*
X29293Y69907D01*
Y69908D01*
D02*
G37*
G36*
X28688D02*
X28284D01*
Y69907D01*
X28360Y69722D01*
X28502Y69580D01*
X28688Y69503D01*
X28688D01*
Y69908D01*
D02*
G37*
G36*
X19293D02*
X18888D01*
Y69503D01*
X18889D01*
X19074Y69580D01*
X19216Y69722D01*
X19293Y69907D01*
Y69908D01*
D02*
G37*
G36*
X18688D02*
X18284D01*
Y69907D01*
X18360Y69722D01*
X18502Y69580D01*
X18688Y69503D01*
X18688D01*
Y69908D01*
D02*
G37*
G36*
X9293D02*
X8888D01*
Y69503D01*
X8889D01*
X9074Y69580D01*
X9216Y69722D01*
X9293Y69907D01*
Y69908D01*
D02*
G37*
G36*
X8688D02*
X8284D01*
Y69907D01*
X8360Y69722D01*
X8502Y69580D01*
X8688Y69503D01*
X8688D01*
Y69908D01*
D02*
G37*
G36*
X104700Y76879D02*
X103300D01*
X101900D01*
Y76794D01*
X101995Y76438D01*
X102180Y76119D01*
X102440Y75859D01*
X102760Y75674D01*
X102941Y75626D01*
Y66100D01*
X102050D01*
Y65350D01*
X103025D01*
Y65250D01*
X103125D01*
Y64400D01*
X104000D01*
Y64891D01*
X110000D01*
Y64400D01*
X110875D01*
Y65250D01*
Y66100D01*
X110000D01*
Y65609D01*
X104000D01*
Y66100D01*
X103659D01*
Y75626D01*
X103840Y75674D01*
X104160Y75859D01*
X104420Y76119D01*
X104605Y76438D01*
X104700Y76794D01*
Y76879D01*
D02*
G37*
G36*
X102925Y65150D02*
X102050D01*
Y64400D01*
X102925D01*
Y65150D01*
D02*
G37*
G36*
X120165Y64250D02*
X120100D01*
Y63100D01*
X121250D01*
Y63165D01*
X121165Y63483D01*
X121000Y63768D01*
X120767Y64000D01*
X120482Y64165D01*
X120165Y64250D01*
D02*
G37*
G36*
X111950Y66100D02*
X111075D01*
Y65250D01*
Y64400D01*
X111950D01*
Y64891D01*
X117601D01*
X118899Y63593D01*
X118835Y63483D01*
X118750Y63165D01*
Y63100D01*
X119900D01*
Y64250D01*
X119835D01*
X119517Y64165D01*
X119407Y64101D01*
X118004Y65504D01*
X117887Y65582D01*
X117750Y65609D01*
X111950D01*
Y66100D01*
D02*
G37*
G36*
X121250Y62900D02*
X120100D01*
Y61750D01*
X120165D01*
X120482Y61835D01*
X120767Y62000D01*
X121000Y62233D01*
X121165Y62518D01*
X121250Y62835D01*
Y62900D01*
D02*
G37*
G36*
X119900D02*
X118750D01*
Y62835D01*
X118835Y62518D01*
X119000Y62233D01*
X119232Y62000D01*
X119517Y61835D01*
X119835Y61750D01*
X119900D01*
Y62900D01*
D02*
G37*
G36*
X150041Y61851D02*
X147959D01*
Y61169D01*
X144470D01*
X144470Y61169D01*
X144332Y61142D01*
X144216Y61064D01*
X142265Y59113D01*
X142188Y58997D01*
X142167Y58895D01*
X142019D01*
X141862Y58863D01*
X141729Y58775D01*
X141640Y58642D01*
X141609Y58485D01*
Y57985D01*
X141640Y57828D01*
X141729Y57695D01*
X141862Y57606D01*
X142019Y57575D01*
X143019D01*
X143176Y57606D01*
X143309Y57695D01*
X143398Y57828D01*
X143429Y57985D01*
Y58485D01*
X143398Y58642D01*
X143309Y58775D01*
X143197Y58850D01*
X143155Y58987D01*
X144618Y60451D01*
X147959D01*
Y59769D01*
X149533D01*
X152341Y56961D01*
Y38269D01*
X151524Y37452D01*
X150289D01*
X150240Y37569D01*
X150937Y38267D01*
X150999Y38359D01*
X151021Y38468D01*
Y38548D01*
X151702D01*
Y39050D01*
X152031Y39378D01*
X152092Y39471D01*
X152114Y39579D01*
Y52901D01*
X152092Y53009D01*
X152031Y53102D01*
X149909Y55223D01*
X149970Y55328D01*
X150041Y55593D01*
Y55867D01*
X149970Y56132D01*
X149833Y56369D01*
X149639Y56563D01*
X149402Y56700D01*
X149137Y56771D01*
X148863D01*
X148598Y56700D01*
X148361Y56563D01*
X148226Y56428D01*
X148099Y56481D01*
Y56967D01*
X148493Y57361D01*
X148598Y57300D01*
X148863Y57229D01*
X149137D01*
X149402Y57300D01*
X149639Y57437D01*
X149833Y57631D01*
X149970Y57868D01*
X150041Y58133D01*
Y58407D01*
X149970Y58672D01*
X149833Y58909D01*
X149639Y59103D01*
X149402Y59240D01*
X149137Y59311D01*
X148863D01*
X148598Y59240D01*
X148361Y59103D01*
X148167Y58909D01*
X148030Y58672D01*
X147959Y58407D01*
Y58133D01*
X148030Y57868D01*
X148091Y57763D01*
X147614Y57286D01*
X147552Y57194D01*
X147530Y57085D01*
Y54739D01*
X147552Y54631D01*
X147614Y54538D01*
X147995Y54157D01*
X148087Y54096D01*
X148169Y54079D01*
X148207Y54008D01*
X148217Y53947D01*
X148129Y53859D01*
X147985Y53610D01*
X147969Y53549D01*
X144687D01*
X143120Y55117D01*
X143162Y55254D01*
X143195Y55261D01*
X143344Y55360D01*
X143443Y55509D01*
X143478Y55685D01*
Y55835D01*
X142519D01*
X141560D01*
Y55685D01*
X141595Y55509D01*
X141695Y55360D01*
X141844Y55261D01*
X142019Y55226D01*
X142160D01*
Y55210D01*
X142188Y55072D01*
X142265Y54956D01*
X144285Y52936D01*
X144401Y52858D01*
X144539Y52831D01*
X147969D01*
X147985Y52770D01*
X148017Y52715D01*
X145916Y50613D01*
X145838Y50497D01*
X145811Y50360D01*
Y40359D01*
X144650D01*
Y41000D01*
X143850D01*
Y40100D01*
X143650D01*
Y41000D01*
X143358D01*
X141928Y42430D01*
X141811Y42508D01*
X141674Y42535D01*
X134807D01*
X134366Y42977D01*
X134400Y43035D01*
X134475Y43315D01*
Y43360D01*
X133475D01*
Y42360D01*
X133520D01*
X133800Y42435D01*
X133858Y42469D01*
X134405Y41922D01*
X134521Y41845D01*
X134659Y41817D01*
X141525D01*
X142273Y41069D01*
X142225Y40952D01*
X141398D01*
Y39248D01*
X142213D01*
X142559Y38902D01*
X142593Y38879D01*
X142554Y38752D01*
X141452D01*
Y38863D01*
X141383Y39029D01*
X141256Y39156D01*
X141090Y39225D01*
X140910D01*
X140744Y39156D01*
X140617Y39029D01*
X140548Y38863D01*
Y38683D01*
X140617Y38517D01*
X140716Y38418D01*
Y38049D01*
X140737Y37940D01*
X140799Y37848D01*
X140948Y37699D01*
X141040Y37637D01*
X141149Y37615D01*
X141398D01*
X141398Y37048D01*
X141272Y37045D01*
X137758D01*
X134331Y40472D01*
X134355Y40514D01*
X134427Y40782D01*
Y41059D01*
X134355Y41326D01*
X134217Y41566D01*
X134021Y41762D01*
X133781Y41900D01*
X133514Y41972D01*
X133236D01*
X132969Y41900D01*
X132729Y41762D01*
X132533Y41566D01*
X132395Y41326D01*
X132323Y41059D01*
Y40782D01*
X132395Y40514D01*
X132533Y40274D01*
X132729Y40078D01*
X132969Y39940D01*
X133236Y39868D01*
X133514D01*
X133781Y39940D01*
X133823Y39964D01*
X134238Y39549D01*
X134190Y39432D01*
X132323D01*
Y37328D01*
X134427D01*
Y39195D01*
X134544Y39243D01*
X137355Y36432D01*
X137472Y36354D01*
X137609Y36327D01*
X143717D01*
X143855Y36354D01*
X143971Y36432D01*
X144168Y36629D01*
X144227Y36661D01*
X144342Y36643D01*
X144392Y36610D01*
X144529Y36582D01*
X149898D01*
Y36548D01*
X151702D01*
Y36665D01*
X151717Y36668D01*
X151833Y36746D01*
X152954Y37867D01*
X153032Y37983D01*
X153059Y38121D01*
X153059Y38121D01*
Y57110D01*
X153059Y57110D01*
X153032Y57247D01*
X152954Y57364D01*
X152954Y57364D01*
X150041Y60277D01*
Y61851D01*
D02*
G37*
G36*
X133889Y60512D02*
X133888D01*
Y60108D01*
X134293D01*
Y60108D01*
X134216Y60294D01*
X134074Y60436D01*
X133889Y60512D01*
D02*
G37*
G36*
X133688D02*
X133688D01*
X133502Y60436D01*
X133360Y60294D01*
X133284Y60108D01*
Y60108D01*
X133688D01*
Y60512D01*
D02*
G37*
G36*
X123889D02*
X123888D01*
Y60108D01*
X124293D01*
Y60108D01*
X124216Y60294D01*
X124074Y60436D01*
X123889Y60512D01*
D02*
G37*
G36*
X123688D02*
X123688D01*
X123502Y60436D01*
X123360Y60294D01*
X123284Y60108D01*
Y60108D01*
X123688D01*
Y60512D01*
D02*
G37*
G36*
X33889D02*
X33888D01*
Y60108D01*
X34293D01*
Y60108D01*
X34216Y60294D01*
X34074Y60436D01*
X33889Y60512D01*
D02*
G37*
G36*
X33688D02*
X33688D01*
X33502Y60436D01*
X33360Y60294D01*
X33284Y60108D01*
Y60108D01*
X33688D01*
Y60512D01*
D02*
G37*
G36*
X13889D02*
X13888D01*
Y60108D01*
X14293D01*
Y60108D01*
X14216Y60294D01*
X14074Y60436D01*
X13889Y60512D01*
D02*
G37*
G36*
X13688D02*
X13688D01*
X13502Y60436D01*
X13360Y60294D01*
X13284Y60108D01*
Y60108D01*
X13688D01*
Y60512D01*
D02*
G37*
G36*
X134293Y59908D02*
X133888D01*
Y59503D01*
X133889D01*
X134074Y59580D01*
X134216Y59722D01*
X134293Y59907D01*
Y59908D01*
D02*
G37*
G36*
X133688D02*
X133284D01*
Y59907D01*
X133360Y59722D01*
X133502Y59580D01*
X133688Y59503D01*
X133688D01*
Y59908D01*
D02*
G37*
G36*
X124293D02*
X123888D01*
Y59503D01*
X123889D01*
X124074Y59580D01*
X124216Y59722D01*
X124293Y59907D01*
Y59908D01*
D02*
G37*
G36*
X123688D02*
X123284D01*
Y59907D01*
X123360Y59722D01*
X123502Y59580D01*
X123688Y59503D01*
X123688D01*
Y59908D01*
D02*
G37*
G36*
X34293D02*
X33888D01*
Y59503D01*
X33889D01*
X34074Y59580D01*
X34216Y59722D01*
X34293Y59907D01*
Y59908D01*
D02*
G37*
G36*
X33688D02*
X33284D01*
Y59907D01*
X33360Y59722D01*
X33502Y59580D01*
X33688Y59503D01*
X33688D01*
Y59908D01*
D02*
G37*
G36*
X14293D02*
X13888D01*
Y59503D01*
X13889D01*
X14074Y59580D01*
X14216Y59722D01*
X14293Y59907D01*
Y59908D01*
D02*
G37*
G36*
X13688D02*
X13284D01*
Y59907D01*
X13360Y59722D01*
X13502Y59580D01*
X13688Y59503D01*
X13688D01*
Y59908D01*
D02*
G37*
G36*
X143019Y56644D02*
X142619D01*
Y56035D01*
X143478D01*
Y56185D01*
X143443Y56360D01*
X143344Y56509D01*
X143195Y56609D01*
X143019Y56644D01*
D02*
G37*
G36*
X142419D02*
X142019D01*
X141844Y56609D01*
X141695Y56509D01*
X141595Y56360D01*
X141560Y56185D01*
Y56035D01*
X142419D01*
Y56644D01*
D02*
G37*
G36*
X88074Y91584D02*
X84300D01*
X84191Y91563D01*
X84099Y91501D01*
X80050Y87452D01*
X79988Y87360D01*
X79966Y87251D01*
Y79581D01*
X71033Y70648D01*
X70971Y70555D01*
X70949Y70446D01*
Y60023D01*
X65974Y55048D01*
X65912Y54956D01*
X65902Y54905D01*
X65768Y54879D01*
X65725Y54850D01*
X65598Y54918D01*
Y55928D01*
X66357Y56686D01*
X66357Y56686D01*
X66357Y56686D01*
X69379Y59708D01*
X69457Y59824D01*
X69484Y59962D01*
Y65140D01*
X69514Y65146D01*
X69643Y65232D01*
X69729Y65361D01*
X69760Y65513D01*
Y66488D01*
X69729Y66640D01*
X69643Y66768D01*
X69514Y66854D01*
X69484Y66861D01*
Y70465D01*
X69514Y70471D01*
X69643Y70557D01*
X69729Y70686D01*
X69760Y70838D01*
Y71813D01*
X69729Y71965D01*
X69643Y72093D01*
X69514Y72179D01*
X69484Y72186D01*
Y72533D01*
X77254Y80303D01*
X77332Y80419D01*
X77359Y80557D01*
X77359Y80557D01*
Y87052D01*
X77464Y87080D01*
X77738Y87238D01*
X77962Y87462D01*
X78120Y87736D01*
X78202Y88042D01*
Y88358D01*
X78120Y88664D01*
X77962Y88938D01*
X77738Y89162D01*
X77464Y89320D01*
X77158Y89402D01*
X76842D01*
X76536Y89320D01*
X76262Y89162D01*
X76038Y88938D01*
X75880Y88664D01*
X75798Y88358D01*
Y88042D01*
X75880Y87736D01*
X76038Y87462D01*
X76262Y87238D01*
X76536Y87080D01*
X76641Y87052D01*
Y80705D01*
X68871Y72935D01*
X68793Y72819D01*
X68766Y72682D01*
Y72186D01*
X68736Y72179D01*
X68607Y72093D01*
X68521Y71965D01*
X68490Y71813D01*
Y70838D01*
X68521Y70686D01*
X68607Y70557D01*
X68736Y70471D01*
X68766Y70465D01*
Y66861D01*
X68736Y66854D01*
X68607Y66768D01*
X68521Y66640D01*
X68490Y66488D01*
Y65513D01*
X68521Y65361D01*
X68607Y65232D01*
X68736Y65146D01*
X68766Y65140D01*
Y60110D01*
X67039Y58383D01*
X66901Y58425D01*
X66892Y58472D01*
X68260Y59839D01*
X68322Y59932D01*
X68343Y60040D01*
Y72097D01*
X68322Y72206D01*
X68260Y72299D01*
X67904Y72654D01*
X67812Y72716D01*
X67703Y72737D01*
X66382D01*
X66274Y72716D01*
X66181Y72654D01*
X65910Y72383D01*
X65848Y72290D01*
X65827Y72182D01*
Y68284D01*
X60843D01*
X59559Y69568D01*
Y71053D01*
X59686Y71121D01*
X59717Y71100D01*
X59888Y71066D01*
X60025D01*
Y72000D01*
X60125D01*
Y72100D01*
X60809D01*
Y72488D01*
X60775Y72658D01*
X60678Y72803D01*
X60533Y72900D01*
X60439Y72918D01*
Y74835D01*
X60412Y74973D01*
X60344Y75074D01*
X60332Y75137D01*
X60326Y75146D01*
Y75245D01*
X60383Y75315D01*
X60600D01*
Y75556D01*
X63639D01*
X63777Y75583D01*
X63893Y75661D01*
X64273Y76041D01*
X66191D01*
Y75913D01*
X66225Y75742D01*
X66322Y75597D01*
X66467Y75500D01*
X66516Y75491D01*
Y74478D01*
X66451Y74413D01*
X66375Y74229D01*
X67375D01*
X67299Y74413D01*
X67234Y74478D01*
Y75354D01*
X67361Y75407D01*
X67723Y75044D01*
X67840Y74966D01*
X67977Y74939D01*
X69837D01*
X69974Y74966D01*
X70091Y75044D01*
X70675Y75628D01*
X70753Y75745D01*
X70780Y75882D01*
Y89039D01*
X70753Y89177D01*
X70675Y89293D01*
X70091Y89877D01*
X69974Y89955D01*
X69837Y89982D01*
X67398D01*
X67261Y89955D01*
X67145Y89877D01*
X67145Y89877D01*
X66496Y89229D01*
X66418Y89112D01*
X66391Y88975D01*
Y81909D01*
X66342Y81900D01*
X66197Y81803D01*
X66100Y81658D01*
X66066Y81488D01*
Y81346D01*
X60859D01*
Y81500D01*
X60824Y81676D01*
X60724Y81824D01*
X60576Y81924D01*
X60509Y81937D01*
Y83703D01*
X60558Y83752D01*
X60634Y83935D01*
X59634D01*
X59710Y83752D01*
X59791Y83671D01*
Y81937D01*
X59724Y81924D01*
X59576Y81824D01*
X59554Y81791D01*
X59383Y81766D01*
X59359Y81785D01*
Y86051D01*
X60442Y87134D01*
X60536Y87080D01*
X60842Y86998D01*
X61158D01*
X61464Y87080D01*
X61738Y87238D01*
X61962Y87462D01*
X62120Y87736D01*
X62202Y88042D01*
Y88358D01*
X62120Y88664D01*
X61962Y88938D01*
X61738Y89162D01*
X61464Y89320D01*
X61158Y89402D01*
X60842D01*
X60536Y89320D01*
X60262Y89162D01*
X60038Y88938D01*
X59880Y88664D01*
X59798Y88358D01*
Y88042D01*
X59880Y87736D01*
X59934Y87642D01*
X58746Y86454D01*
X53762Y81469D01*
X53705Y81477D01*
X53629Y81516D01*
X53604Y81639D01*
X53518Y81768D01*
X53389Y81854D01*
X53359Y81860D01*
Y89493D01*
X53359Y89493D01*
X53332Y89630D01*
X53254Y89747D01*
X51747Y91254D01*
X51630Y91332D01*
X51493Y91359D01*
X43825D01*
X43688Y91332D01*
X43571Y91254D01*
X43144Y90827D01*
X41100D01*
Y90875D01*
X40800D01*
Y90000D01*
X40600D01*
Y90875D01*
X40300D01*
Y90461D01*
X40173Y90398D01*
X40116Y90441D01*
X39952Y90510D01*
X39775Y90533D01*
X39598Y90510D01*
X39434Y90441D01*
X39292Y90333D01*
X39184Y90191D01*
X39115Y90027D01*
X39092Y89850D01*
Y89650D01*
X39115Y89473D01*
X39184Y89309D01*
X39292Y89167D01*
X39434Y89059D01*
X39598Y88990D01*
X39775Y88967D01*
X39952Y88990D01*
X40116Y89059D01*
X40180Y89108D01*
X40230Y89115D01*
X40341Y89032D01*
Y87050D01*
Y85650D01*
X40368Y85513D01*
X40446Y85396D01*
X43341Y82501D01*
Y81859D01*
X43292Y81850D01*
X43147Y81753D01*
X43050Y81608D01*
X43016Y81438D01*
Y81050D01*
X43700D01*
X44384D01*
Y81438D01*
X44350Y81608D01*
X44253Y81753D01*
X44108Y81850D01*
X44059Y81859D01*
Y82650D01*
X44059Y82650D01*
X44032Y82787D01*
X43954Y82904D01*
X41059Y85799D01*
Y86691D01*
X49850D01*
X49987Y86718D01*
X50104Y86796D01*
X50407Y87099D01*
X50517Y87035D01*
X50835Y86950D01*
X50900D01*
Y88100D01*
X49750D01*
Y88035D01*
X49835Y87717D01*
X49899Y87607D01*
X49701Y87409D01*
X41059D01*
Y89125D01*
X41100D01*
Y89173D01*
X42964D01*
X42968Y89150D01*
X43046Y89033D01*
X43163Y88955D01*
X43300Y88928D01*
X43437Y88955D01*
X43554Y89033D01*
X43615Y89125D01*
X43683Y89148D01*
X43712Y89152D01*
X43741Y89153D01*
X43768Y89147D01*
X43884Y89059D01*
X44048Y88990D01*
X44225Y88967D01*
X44402Y88990D01*
X44566Y89059D01*
X44708Y89167D01*
X44816Y89309D01*
X44885Y89473D01*
X44908Y89650D01*
Y89850D01*
X44885Y90027D01*
X44816Y90191D01*
X44708Y90333D01*
X44566Y90441D01*
X44402Y90510D01*
X44367Y90514D01*
X44376Y90641D01*
X51344D01*
X52641Y89344D01*
Y81860D01*
X52611Y81854D01*
X52482Y81768D01*
X52396Y81639D01*
X52365Y81488D01*
Y80512D01*
X52396Y80361D01*
X52482Y80232D01*
X52611Y80146D01*
X52641Y80140D01*
Y78525D01*
X52668Y78388D01*
X52746Y78271D01*
X54857Y76161D01*
X54857Y76161D01*
X54973Y76083D01*
X55111Y76056D01*
X56467D01*
X56566Y75929D01*
X56564Y75915D01*
X56585Y75809D01*
X56645Y75719D01*
X56735Y75659D01*
X56751Y75655D01*
Y75035D01*
X56751Y75035D01*
Y73275D01*
X56772Y73166D01*
X56834Y73074D01*
X57270Y72638D01*
X57240Y72488D01*
Y71513D01*
X57271Y71361D01*
X57357Y71232D01*
X57486Y71146D01*
X57637Y71115D01*
X58112D01*
X58218Y71136D01*
X58345Y71058D01*
Y69371D01*
X58367Y69262D01*
X58428Y69169D01*
X60273Y67324D01*
X60366Y67263D01*
X60475Y67241D01*
X62607D01*
X63386Y66462D01*
X63333Y66335D01*
X60785D01*
Y66487D01*
X60754Y66639D01*
X60668Y66768D01*
X60539Y66854D01*
X60388Y66885D01*
X59912D01*
X59761Y66854D01*
X59632Y66768D01*
X59546Y66639D01*
X59532Y66570D01*
X59514Y66560D01*
X59396Y66540D01*
X59298Y66639D01*
X59132Y66707D01*
X58952D01*
X58786Y66639D01*
X58687Y66540D01*
X58524D01*
X58504Y66639D01*
X58418Y66768D01*
X58289Y66854D01*
X58184Y66875D01*
Y68440D01*
X58163Y68549D01*
X58101Y68641D01*
X55937Y70805D01*
Y73442D01*
X56036Y73541D01*
X56104Y73707D01*
Y73887D01*
X56036Y74053D01*
X55908Y74180D01*
X55742Y74249D01*
X55562D01*
X55486Y74217D01*
X55359Y74302D01*
Y75075D01*
X55332Y75212D01*
X55254Y75329D01*
X52923Y77660D01*
X52806Y77738D01*
X52669Y77765D01*
X49806D01*
X49806Y77765D01*
X49669Y77738D01*
X49552Y77660D01*
X49552Y77660D01*
X49038Y77146D01*
X48961Y77029D01*
X48933Y76892D01*
Y76792D01*
X48900D01*
X48743Y76761D01*
X48610Y76672D01*
X48521Y76539D01*
X48490Y76382D01*
Y76257D01*
X46585D01*
Y76402D01*
X46554Y76554D01*
X46468Y76683D01*
X46340Y76769D01*
X46188Y76799D01*
X45713D01*
X45561Y76769D01*
X45432Y76683D01*
X45346Y76554D01*
X45315Y76402D01*
Y75427D01*
X45346Y75275D01*
X45432Y75146D01*
X45561Y75060D01*
X45713Y75030D01*
X46188D01*
X46340Y75060D01*
X46468Y75146D01*
X46554Y75275D01*
X46585Y75427D01*
Y75539D01*
X48490D01*
Y75382D01*
X48521Y75225D01*
X48610Y75092D01*
X48743Y75003D01*
X48900Y74972D01*
X49400D01*
X49557Y75003D01*
X49690Y75092D01*
X49779Y75225D01*
X49810Y75382D01*
Y76382D01*
X49779Y76539D01*
X49690Y76672D01*
X49713Y76805D01*
X49955Y77047D01*
X52520D01*
X54641Y74926D01*
Y67796D01*
X53671Y66826D01*
X52438Y68059D01*
X52321Y68136D01*
X52184Y68164D01*
X46278D01*
X46254Y68188D01*
Y68395D01*
X47904D01*
Y69045D01*
Y69695D01*
Y70345D01*
Y71597D01*
X47952D01*
Y71875D01*
X47073D01*
Y72075D01*
X47952D01*
Y72288D01*
X47964D01*
X48102Y72316D01*
X48172Y72362D01*
X48299Y72303D01*
Y69299D01*
X51701D01*
Y72031D01*
X51819Y72080D01*
X51931Y71967D01*
X51940Y71961D01*
X52076Y71825D01*
X52096Y71812D01*
Y70995D01*
Y70345D01*
Y69695D01*
Y69045D01*
Y68395D01*
X53750D01*
X53803Y68342D01*
X53969Y68273D01*
X54149D01*
X54315Y68342D01*
X54442Y68469D01*
X54511Y68635D01*
Y68815D01*
X54442Y68981D01*
X54315Y69108D01*
X54278Y69124D01*
Y69223D01*
X54256Y69332D01*
X54194Y69424D01*
X54042Y69576D01*
X53950Y69638D01*
X53841Y69659D01*
X53759D01*
Y70345D01*
Y71041D01*
X53784D01*
X53893Y71062D01*
X53985Y71124D01*
X54087Y71226D01*
X54149Y71318D01*
X54171Y71427D01*
Y72523D01*
X54149Y72632D01*
X54087Y72724D01*
X53985Y72826D01*
X53893Y72888D01*
X53784Y72910D01*
X53759D01*
Y73605D01*
X52096D01*
Y73561D01*
X51969Y73508D01*
X51694Y73783D01*
X51694Y73783D01*
X51596Y73881D01*
X51602Y74055D01*
X51668Y74120D01*
X51744Y74304D01*
X50744D01*
X50772Y74236D01*
X50687Y74109D01*
X45803D01*
X44335Y75577D01*
Y76402D01*
X44304Y76554D01*
X44218Y76683D01*
X44089Y76769D01*
X43938Y76799D01*
X43463D01*
X43311Y76769D01*
X43182Y76683D01*
X43096Y76554D01*
X43065Y76402D01*
Y75427D01*
X43096Y75275D01*
X43182Y75146D01*
X43311Y75060D01*
X43463Y75030D01*
X43938D01*
X44054Y75053D01*
X45484Y73623D01*
X45576Y73562D01*
X45685Y73540D01*
X46241D01*
Y73003D01*
X46193D01*
Y72984D01*
X45119D01*
X44254Y73849D01*
X44137Y73927D01*
X44000Y73954D01*
X41709D01*
Y76175D01*
X43954Y78420D01*
X44032Y78536D01*
X44059Y78673D01*
Y80041D01*
X44108Y80050D01*
X44253Y80147D01*
X44350Y80292D01*
X44384Y80463D01*
Y80850D01*
X43700D01*
X43016D01*
Y80463D01*
X43050Y80292D01*
X43147Y80147D01*
X43292Y80050D01*
X43341Y80041D01*
Y78822D01*
X41096Y76577D01*
X41018Y76461D01*
X40991Y76323D01*
Y73954D01*
X39553D01*
X37684Y75824D01*
Y75900D01*
X37100D01*
Y75066D01*
X37237D01*
X37395Y75098D01*
X39151Y73341D01*
X39267Y73264D01*
X39405Y73236D01*
X43851D01*
X44716Y72371D01*
X44833Y72293D01*
X44970Y72266D01*
X45641D01*
X45694Y72139D01*
X44716Y71162D01*
X44639Y71046D01*
X44611Y70908D01*
Y69644D01*
X44502Y69602D01*
Y69602D01*
X44309D01*
Y71188D01*
X44305Y71208D01*
X44343Y71299D01*
Y71479D01*
X44274Y71645D01*
X44147Y71772D01*
X43980Y71841D01*
X43801D01*
X43635Y71772D01*
X43507Y71645D01*
X43490Y71602D01*
X43284D01*
Y71869D01*
X43263Y71978D01*
X43201Y72070D01*
X42642Y72629D01*
X42550Y72690D01*
X42441Y72712D01*
X38509D01*
X36517Y74704D01*
Y75009D01*
X36644Y75090D01*
X36762Y75066D01*
X36900D01*
Y76000D01*
Y76934D01*
X36762D01*
X36644Y76910D01*
X36517Y76991D01*
Y80009D01*
X36638Y80081D01*
X36715Y80040D01*
Y78498D01*
X36737Y78389D01*
X36799Y78297D01*
X38615Y76480D01*
Y75513D01*
X38646Y75361D01*
X38732Y75232D01*
X38860Y75146D01*
X39012Y75115D01*
X39487D01*
X39639Y75146D01*
X39768Y75232D01*
X39786Y75259D01*
X39913Y75271D01*
X39914Y75270D01*
X40080Y75201D01*
X40260D01*
X40426Y75270D01*
X40553Y75397D01*
X40622Y75563D01*
Y75743D01*
X40553Y75909D01*
X40426Y76037D01*
X40260Y76105D01*
X40080D01*
X40012Y76077D01*
X39885Y76162D01*
Y76488D01*
X39854Y76640D01*
X39768Y76768D01*
X39639Y76854D01*
X39487Y76885D01*
X39016D01*
X37284Y78616D01*
Y80125D01*
X37389Y80146D01*
X37518Y80232D01*
X37604Y80361D01*
X37635Y80512D01*
Y81488D01*
X37604Y81639D01*
X37602Y81643D01*
X37670Y81770D01*
X38580D01*
X38648Y81643D01*
X38646Y81639D01*
X38615Y81488D01*
Y80512D01*
X38646Y80361D01*
X38732Y80232D01*
X38860Y80146D01*
X39012Y80115D01*
X39487D01*
X39639Y80146D01*
X39768Y80232D01*
X39854Y80361D01*
X39885Y80512D01*
Y81488D01*
X39854Y81639D01*
X39768Y81768D01*
X39639Y81854D01*
X39524Y81877D01*
X39513Y81934D01*
X39451Y82027D01*
X39222Y82255D01*
X39130Y82317D01*
X39021Y82339D01*
X36461D01*
X36352Y82317D01*
X36260Y82255D01*
X36031Y82027D01*
X35970Y81934D01*
X35948Y81826D01*
Y74587D01*
X35970Y74478D01*
X36031Y74385D01*
X38190Y72226D01*
X38283Y72165D01*
X38392Y72143D01*
X42323D01*
X42715Y71751D01*
Y71602D01*
X42448D01*
Y70398D01*
X43520D01*
X43587Y70285D01*
X43580Y70170D01*
X42495D01*
X41287Y71379D01*
X41171Y71457D01*
X41033Y71484D01*
X38985D01*
X38979Y71514D01*
X38893Y71643D01*
X38764Y71729D01*
X38612Y71760D01*
X37638D01*
X37486Y71729D01*
X37357Y71643D01*
X37271Y71514D01*
X37265Y71484D01*
X35166D01*
X35028Y71457D01*
X34912Y71379D01*
X19746Y56213D01*
X19668Y56097D01*
X19641Y55959D01*
Y48384D01*
X19668Y48247D01*
X19746Y48131D01*
X21011Y46865D01*
X21011Y46865D01*
X21090Y46813D01*
Y46600D01*
X21121Y46443D01*
X21210Y46310D01*
X21343Y46221D01*
X21500Y46190D01*
X21641D01*
Y12180D01*
X21617Y12156D01*
X21548Y11990D01*
Y11810D01*
X21617Y11644D01*
X21744Y11517D01*
X21910Y11448D01*
X22090D01*
X22256Y11517D01*
X22383Y11644D01*
X22452Y11810D01*
Y11990D01*
X22383Y12156D01*
X22359Y12180D01*
Y46190D01*
X22500D01*
X22657Y46221D01*
X22790Y46310D01*
X22879Y46443D01*
X22910Y46600D01*
Y47100D01*
X22879Y47257D01*
X22790Y47390D01*
X22657Y47479D01*
X22500Y47510D01*
X21500D01*
X21402Y47490D01*
X20359Y48533D01*
Y55811D01*
X35314Y70766D01*
X37265D01*
X37271Y70736D01*
X37357Y70607D01*
X37486Y70521D01*
X37638Y70490D01*
X38378D01*
X38430Y70363D01*
X38360Y70294D01*
X38284Y70108D01*
Y70108D01*
X39293D01*
Y70108D01*
X39216Y70294D01*
X39074Y70436D01*
X38946Y70489D01*
X38928Y70528D01*
X38909Y70628D01*
X38909Y70631D01*
X38979Y70736D01*
X38985Y70766D01*
X40885D01*
X41931Y69719D01*
X41883Y69602D01*
X41498D01*
Y69284D01*
X38966D01*
X38902Y69381D01*
X38900Y69395D01*
X38909Y69444D01*
X38932Y69521D01*
X39074Y69580D01*
X39216Y69722D01*
X39293Y69907D01*
Y69908D01*
X38284D01*
Y69907D01*
X38360Y69722D01*
X38445Y69637D01*
X38393Y69510D01*
X37638D01*
X37486Y69479D01*
X37357Y69393D01*
X37271Y69264D01*
X37240Y69113D01*
Y68637D01*
X37271Y68486D01*
X37357Y68357D01*
X37486Y68271D01*
X37638Y68240D01*
X38612D01*
X38764Y68271D01*
X38893Y68357D01*
X38979Y68486D01*
X39010Y68637D01*
Y68716D01*
X41498D01*
Y68398D01*
X41765D01*
Y68000D01*
X41787Y67891D01*
X41849Y67799D01*
X42498Y67150D01*
Y66398D01*
X42402Y66323D01*
X41707D01*
X41707Y66323D01*
X41569Y66295D01*
X41453Y66217D01*
X41453Y66217D01*
X37020Y61785D01*
X36942Y61668D01*
X36915Y61531D01*
Y51876D01*
X36942Y51739D01*
X37020Y51622D01*
X37609Y51034D01*
X37587Y50876D01*
X37510Y50825D01*
X37410Y50676D01*
X37375Y50500D01*
Y50100D01*
X38084D01*
X38793D01*
Y50500D01*
X38758Y50676D01*
X38659Y50825D01*
X38510Y50924D01*
X38400Y50946D01*
Y51109D01*
X38400Y51109D01*
X38373Y51246D01*
X38295Y51363D01*
X37633Y52025D01*
Y53030D01*
X37749Y53098D01*
X37840Y53054D01*
Y52311D01*
X37862Y52202D01*
X37924Y52110D01*
X40735Y49299D01*
X40827Y49237D01*
X40936Y49216D01*
X41890D01*
X41981Y49089D01*
X41979Y49075D01*
Y48925D01*
X41996Y48836D01*
X42018Y48804D01*
X42012Y48773D01*
X41951Y48682D01*
X41935Y48600D01*
X42855D01*
Y48400D01*
X41909D01*
X41875Y48359D01*
X38443D01*
Y49063D01*
X38510Y49076D01*
X38659Y49176D01*
X38758Y49325D01*
X38793Y49500D01*
Y49900D01*
X38084D01*
X37375D01*
Y49500D01*
X37410Y49325D01*
X37510Y49176D01*
X37659Y49076D01*
X37669Y49074D01*
X37678Y49068D01*
X37725Y49059D01*
Y48306D01*
X35348D01*
X35210Y48279D01*
X35094Y48201D01*
X33446Y46554D01*
X33368Y46437D01*
X33341Y46300D01*
Y40145D01*
X33224Y40096D01*
X23916Y49404D01*
X23800Y49482D01*
X23662Y49509D01*
X22937D01*
X22924Y49576D01*
X22824Y49724D01*
X22676Y49824D01*
X22500Y49859D01*
X22100D01*
Y49150D01*
Y48441D01*
X22500D01*
X22676Y48476D01*
X22824Y48576D01*
X22924Y48724D01*
X22937Y48791D01*
X23514D01*
X33446Y38859D01*
X36464Y35841D01*
X36580Y35764D01*
X36717Y35736D01*
X41373D01*
X41420Y35665D01*
X41503Y35610D01*
X41601Y35590D01*
X42175D01*
Y36095D01*
Y36600D01*
X41601D01*
X41503Y36581D01*
X41420Y36525D01*
X41373Y36454D01*
X36866D01*
X34059Y39261D01*
Y46151D01*
X35496Y47589D01*
X37725D01*
Y46914D01*
X37654Y46900D01*
X37510Y46803D01*
X37413Y46658D01*
X37390Y46543D01*
X37265Y46457D01*
X37225Y46474D01*
X37045D01*
X36879Y46405D01*
X36780Y46306D01*
X36447D01*
Y46488D01*
X36417Y46640D01*
X36331Y46768D01*
X36202Y46855D01*
X36050Y46885D01*
X35575D01*
X35423Y46855D01*
X35294Y46768D01*
X35208Y46640D01*
X35178Y46488D01*
Y45513D01*
X35208Y45361D01*
X35294Y45232D01*
X35423Y45146D01*
X35565Y45117D01*
Y42903D01*
X35443Y42879D01*
X35310Y42790D01*
X35221Y42657D01*
X35190Y42500D01*
Y41500D01*
X35221Y41343D01*
X35310Y41210D01*
X35443Y41121D01*
X35565Y41097D01*
Y38856D01*
X35587Y38747D01*
X35649Y38655D01*
X37140Y37164D01*
X37232Y37102D01*
X37341Y37081D01*
X41401D01*
X41410Y37037D01*
X41455Y36970D01*
X41522Y36925D01*
X41601Y36909D01*
X42949D01*
X43028Y36925D01*
X43095Y36970D01*
X43140Y37037D01*
X43156Y37116D01*
Y37214D01*
X43185Y37256D01*
X43206Y37365D01*
X43185Y37474D01*
X43202Y37503D01*
X43359Y37518D01*
X44967Y35724D01*
Y32229D01*
X44994Y32091D01*
X45072Y31975D01*
X45478Y31569D01*
X45595Y31491D01*
X45732Y31463D01*
X47332D01*
X47470Y31491D01*
X47586Y31569D01*
X47993Y31975D01*
X48070Y32091D01*
X48098Y32229D01*
Y35639D01*
X48399D01*
X48478Y35655D01*
X48545Y35700D01*
X48570Y35736D01*
X50720D01*
X50744Y35712D01*
X50910Y35643D01*
X51090D01*
X51256Y35712D01*
X51383Y35839D01*
X51452Y36005D01*
Y36185D01*
X51383Y36351D01*
X51256Y36478D01*
X51090Y36547D01*
X50910D01*
X50744Y36478D01*
X50720Y36454D01*
X48570D01*
X48545Y36490D01*
X48478Y36535D01*
X48399Y36551D01*
X47051D01*
X46972Y36535D01*
X46905Y36490D01*
X46860Y36423D01*
X46844Y36344D01*
Y35846D01*
X46860Y35767D01*
X46905Y35700D01*
X46972Y35655D01*
X47051Y35639D01*
X47380D01*
Y32377D01*
X47184Y32181D01*
X46973D01*
X46905Y32308D01*
X46929Y32343D01*
X46960Y32500D01*
Y33500D01*
X46929Y33657D01*
X46840Y33790D01*
X46707Y33879D01*
X46659Y33888D01*
Y38953D01*
X46769Y39062D01*
X46775Y39064D01*
X46878Y38991D01*
X46860Y38963D01*
X46844Y38884D01*
Y38386D01*
X46860Y38307D01*
X46905Y38240D01*
X46972Y38195D01*
X47051Y38179D01*
X48399D01*
X48478Y38195D01*
X48545Y38240D01*
X48590Y38307D01*
X48599Y38351D01*
X56514D01*
X56623Y38372D01*
X56715Y38434D01*
X58351Y40070D01*
X58413Y40162D01*
X58434Y40271D01*
Y41097D01*
X58557Y41121D01*
X58690Y41210D01*
X58779Y41343D01*
X58810Y41500D01*
Y42500D01*
X58779Y42657D01*
X58690Y42790D01*
X58557Y42879D01*
X58434Y42903D01*
Y43980D01*
X58413Y44088D01*
X58409Y44094D01*
Y45125D01*
X58514Y45146D01*
X58643Y45232D01*
X58729Y45361D01*
X58760Y45513D01*
Y46488D01*
X58729Y46640D01*
X58643Y46768D01*
X58514Y46854D01*
X58452Y46867D01*
X58433Y47000D01*
X61109Y49676D01*
X61226Y49613D01*
X61216Y49562D01*
Y11377D01*
X60373D01*
Y9123D01*
X62627D01*
Y11377D01*
X61784D01*
Y49444D01*
X62985Y50645D01*
X63017Y50642D01*
X63118Y50503D01*
X63115Y50488D01*
Y49513D01*
X63146Y49361D01*
X63232Y49232D01*
X63361Y49146D01*
X63391Y49140D01*
Y49110D01*
X63418Y48973D01*
X63496Y48857D01*
X64080Y48272D01*
X64197Y48195D01*
X64334Y48167D01*
X71894D01*
X72032Y48195D01*
X72148Y48272D01*
X73151Y49276D01*
X74691Y47736D01*
Y41795D01*
Y40952D01*
X74398D01*
Y40455D01*
X74373Y40450D01*
X74257Y40373D01*
X73926Y40042D01*
X73849Y39926D01*
X73821Y39789D01*
Y14620D01*
X73849Y14482D01*
X73926Y14366D01*
X81549Y6743D01*
X81665Y6666D01*
X81803Y6638D01*
X83248D01*
X83385Y6666D01*
X83502Y6743D01*
X83754Y6995D01*
X83832Y7112D01*
X83859Y7249D01*
Y8200D01*
X83852Y8235D01*
Y9102D01*
X83207D01*
X83100Y9150D01*
Y9150D01*
X83100Y9150D01*
X82859D01*
Y9618D01*
X82976Y9666D01*
X83003Y9639D01*
X83120Y9561D01*
X83257Y9534D01*
X84878D01*
X84894Y9512D01*
X84925Y9407D01*
X84799Y9281D01*
X84738Y9189D01*
X84721Y9102D01*
X84148D01*
Y7298D01*
X84193D01*
Y6765D01*
X83440Y6012D01*
X80891D01*
X62852Y24050D01*
Y24190D01*
X62783Y24356D01*
X62656Y24483D01*
X62490Y24552D01*
X62310D01*
X62144Y24483D01*
X62017Y24356D01*
X61948Y24190D01*
Y24010D01*
X62017Y23844D01*
X62144Y23717D01*
X62310Y23648D01*
X62450D01*
X80572Y5526D01*
X80664Y5464D01*
X80773Y5443D01*
X83558D01*
X83667Y5464D01*
X83759Y5526D01*
X84596Y6364D01*
X84734Y6322D01*
X84738Y6304D01*
X84799Y6212D01*
X85485Y5526D01*
X85578Y5464D01*
X85686Y5443D01*
X92727D01*
X92836Y5464D01*
X92928Y5526D01*
X98201Y10799D01*
X98263Y10891D01*
X98284Y11000D01*
Y45865D01*
X98594Y46175D01*
X100060D01*
Y44030D01*
X100082Y43922D01*
X100143Y43829D01*
X100774Y43199D01*
X100866Y43137D01*
X100975Y43116D01*
X101246D01*
X101274Y43074D01*
X101290Y43063D01*
Y42954D01*
X101272Y42923D01*
X101174Y42776D01*
X101139Y42600D01*
X101174Y42424D01*
X101272Y42277D01*
X101290Y42246D01*
Y42193D01*
X101185Y42084D01*
X100621D01*
X99458Y43247D01*
Y44712D01*
X99557Y44811D01*
X99626Y44977D01*
Y45157D01*
X99557Y45323D01*
X99430Y45450D01*
X99264Y45519D01*
X99084D01*
X98918Y45450D01*
X98791Y45323D01*
X98722Y45157D01*
Y44977D01*
X98791Y44811D01*
X98889Y44712D01*
Y43130D01*
X98911Y43021D01*
X98973Y42928D01*
X100302Y41599D01*
X100395Y41537D01*
X100503Y41516D01*
X101246D01*
X101274Y41474D01*
X101290Y41463D01*
Y41354D01*
X101272Y41323D01*
X101174Y41176D01*
X101139Y41000D01*
X101174Y40824D01*
X101274Y40674D01*
X101424Y40574D01*
X101600Y40539D01*
X102547D01*
Y37349D01*
X102448Y37250D01*
X102379Y37084D01*
Y36904D01*
X102448Y36738D01*
X102575Y36611D01*
X102741Y36542D01*
X102921D01*
X103009Y36579D01*
X103136Y36494D01*
Y34064D01*
X103158Y33955D01*
X103219Y33862D01*
X105482Y31599D01*
X105465Y31513D01*
Y30538D01*
X105496Y30386D01*
X105582Y30257D01*
X105711Y30171D01*
X105862Y30141D01*
X106337D01*
X106489Y30171D01*
X106618Y30257D01*
X106704Y30386D01*
X106714Y30435D01*
X106841Y30423D01*
Y30183D01*
X105796Y29139D01*
X105718Y29022D01*
X105691Y28885D01*
Y27937D01*
X105624Y27924D01*
X105476Y27824D01*
X105376Y27676D01*
X105341Y27500D01*
Y27100D01*
X106050D01*
X106759D01*
Y27500D01*
X106724Y27676D01*
X106624Y27824D01*
X106476Y27924D01*
X106409Y27937D01*
Y28736D01*
X107454Y29781D01*
X107532Y29897D01*
X107559Y30035D01*
Y32162D01*
X107532Y32299D01*
X107454Y32415D01*
X106409Y33460D01*
Y34063D01*
X106476Y34076D01*
X106624Y34176D01*
X106724Y34324D01*
X106759Y34500D01*
Y34900D01*
X106050D01*
X105341D01*
Y34500D01*
X105376Y34324D01*
X105476Y34176D01*
X105624Y34076D01*
X105691Y34063D01*
Y33312D01*
X105718Y33174D01*
X105796Y33058D01*
X106841Y32013D01*
Y31629D01*
X106714Y31616D01*
X106704Y31665D01*
X106618Y31794D01*
X106489Y31880D01*
X106337Y31910D01*
X105976D01*
X103705Y34181D01*
Y38119D01*
X103804Y38172D01*
X103832Y38173D01*
X104000Y38139D01*
X104176Y38174D01*
X104323Y38272D01*
X104354Y38290D01*
X104446D01*
X104477Y38272D01*
X104624Y38174D01*
X104800Y38139D01*
X104976Y38174D01*
X105123Y38272D01*
X105154Y38290D01*
X105246D01*
X105277Y38272D01*
X105424Y38174D01*
X105600Y38139D01*
X105776Y38174D01*
X105923Y38272D01*
X105954Y38290D01*
X106007D01*
X106116Y38185D01*
Y37928D01*
X106017Y37830D01*
X105948Y37664D01*
Y37484D01*
X106017Y37318D01*
X106144Y37190D01*
X106310Y37122D01*
X106490D01*
X106656Y37190D01*
X106717Y37251D01*
X106800Y37306D01*
X106883Y37251D01*
X106944Y37190D01*
X107110Y37122D01*
X107290D01*
X107417Y37174D01*
X107532Y37134D01*
X107559Y37113D01*
X107563Y37091D01*
X106409Y35937D01*
X106300Y35959D01*
X106150D01*
Y35100D01*
X106759D01*
Y35271D01*
X107052Y35565D01*
X107170Y35516D01*
Y33436D01*
X107191Y33327D01*
X107253Y33235D01*
X108460Y32028D01*
X108411Y31910D01*
X108113D01*
X107961Y31880D01*
X107832Y31794D01*
X107746Y31665D01*
X107715Y31513D01*
Y30538D01*
X107746Y30386D01*
X107832Y30257D01*
X107961Y30171D01*
X108066Y30150D01*
Y29133D01*
X107967Y29034D01*
X107898Y28868D01*
Y28688D01*
X107967Y28522D01*
X108066Y28423D01*
Y27903D01*
X107943Y27879D01*
X107810Y27790D01*
X107721Y27657D01*
X107690Y27500D01*
Y26500D01*
X107721Y26343D01*
X107810Y26210D01*
X107943Y26121D01*
X108100Y26090D01*
X108600D01*
X108757Y26121D01*
X108890Y26210D01*
X108979Y26343D01*
X109010Y26500D01*
Y27500D01*
X108979Y27657D01*
X108890Y27790D01*
X108757Y27879D01*
X108634Y27903D01*
Y28423D01*
X108733Y28522D01*
X108802Y28688D01*
Y28868D01*
X108733Y29034D01*
X108634Y29133D01*
Y30150D01*
X108739Y30171D01*
X108868Y30257D01*
X108954Y30386D01*
X108985Y30538D01*
Y31513D01*
X108961Y31630D01*
X109034Y31757D01*
X112064D01*
X112117Y31659D01*
X112119Y31630D01*
X112090Y31487D01*
Y30513D01*
X112121Y30361D01*
X112207Y30232D01*
X112335Y30146D01*
X112428Y30127D01*
Y29158D01*
X112317Y29046D01*
X112248Y28880D01*
Y28700D01*
X112317Y28534D01*
X112403Y28448D01*
Y27905D01*
X112268Y27879D01*
X112135Y27790D01*
X112046Y27657D01*
X112015Y27500D01*
Y26500D01*
X112046Y26343D01*
X112135Y26210D01*
X112268Y26121D01*
X112425Y26090D01*
X112925D01*
X113082Y26121D01*
X113215Y26210D01*
X113304Y26343D01*
X113335Y26500D01*
Y27500D01*
X113304Y27657D01*
X113215Y27790D01*
X113082Y27879D01*
X112972Y27900D01*
Y28423D01*
X113083Y28534D01*
X113152Y28700D01*
Y28880D01*
X113083Y29046D01*
X112997Y29133D01*
Y30122D01*
X113114Y30146D01*
X113243Y30232D01*
X113329Y30361D01*
X113360Y30513D01*
Y31392D01*
X113487Y31464D01*
X113520Y31443D01*
Y28790D01*
X113541Y28682D01*
X113603Y28589D01*
X114218Y27974D01*
X114311Y27912D01*
X114317Y27911D01*
X114319Y27909D01*
X114365Y27772D01*
X114301Y27676D01*
X114266Y27500D01*
Y27100D01*
X114975D01*
X115684D01*
Y27500D01*
X115649Y27676D01*
X115590Y27764D01*
X115658Y27891D01*
X121302D01*
X121424Y27809D01*
X121600Y27774D01*
X123200D01*
X123376Y27809D01*
X123526Y27909D01*
X123626Y28059D01*
X123661Y28235D01*
X123626Y28411D01*
X123526Y28561D01*
X123376Y28661D01*
X123200Y28696D01*
X121600D01*
X121424Y28661D01*
X121274Y28561D01*
X121206Y28459D01*
X114537D01*
X114089Y28908D01*
Y31635D01*
X114067Y31744D01*
X114005Y31836D01*
X113599Y32243D01*
X113507Y32304D01*
X113398Y32326D01*
X108966D01*
X107739Y33554D01*
Y34106D01*
X107866Y34173D01*
X107943Y34121D01*
X108100Y34090D01*
X108600D01*
X108757Y34121D01*
X108890Y34210D01*
X108979Y34343D01*
X109010Y34500D01*
Y34716D01*
X110527D01*
X110528Y34715D01*
X112090D01*
Y34512D01*
X112121Y34360D01*
X112207Y34232D01*
X112335Y34146D01*
X112487Y34115D01*
X112962D01*
X113114Y34146D01*
X113243Y34232D01*
X113329Y34360D01*
X113360Y34512D01*
Y35487D01*
X113329Y35639D01*
X113243Y35768D01*
X113114Y35854D01*
X113009Y35875D01*
Y37017D01*
X116088Y40095D01*
X116150Y40188D01*
X116171Y40297D01*
Y42104D01*
X116215Y42134D01*
X116298Y42160D01*
X116424Y42076D01*
X116491Y42063D01*
Y39937D01*
X116424Y39924D01*
X116276Y39824D01*
X116176Y39676D01*
X116141Y39500D01*
Y39100D01*
X116850D01*
X117559D01*
Y39500D01*
X117524Y39676D01*
X117424Y39824D01*
X117276Y39924D01*
X117209Y39937D01*
Y42063D01*
X117276Y42076D01*
X117424Y42176D01*
X117524Y42324D01*
X117559Y42500D01*
Y42900D01*
X116850D01*
Y43100D01*
X117559D01*
Y43500D01*
X117524Y43676D01*
X117424Y43824D01*
X117276Y43924D01*
X117209Y43937D01*
Y46063D01*
X117276Y46076D01*
X117424Y46176D01*
X117524Y46324D01*
X117559Y46500D01*
Y46900D01*
X116850D01*
Y47100D01*
X117559D01*
Y47500D01*
X117524Y47676D01*
X117424Y47824D01*
X117276Y47924D01*
X117209Y47937D01*
Y50063D01*
X117276Y50076D01*
X117424Y50176D01*
X117524Y50324D01*
X117559Y50500D01*
Y50735D01*
X117686Y50787D01*
X117739Y50734D01*
X117905Y50665D01*
X118085D01*
X118251Y50734D01*
X118276Y50758D01*
X118490D01*
Y50500D01*
X118521Y50343D01*
X118610Y50210D01*
X118743Y50121D01*
X118791Y50112D01*
Y48984D01*
X118791Y48983D01*
Y47888D01*
X118743Y47879D01*
X118610Y47790D01*
X118521Y47657D01*
X118490Y47500D01*
Y46500D01*
X118521Y46343D01*
X118610Y46210D01*
X118743Y46121D01*
X118791Y46112D01*
Y43888D01*
X118743Y43879D01*
X118610Y43790D01*
X118521Y43657D01*
X118490Y43500D01*
Y42500D01*
X118521Y42343D01*
X118610Y42210D01*
X118743Y42121D01*
X118791Y42112D01*
Y39888D01*
X118743Y39879D01*
X118610Y39790D01*
X118521Y39657D01*
X118490Y39500D01*
Y38500D01*
X118521Y38343D01*
X118610Y38210D01*
X118743Y38121D01*
X118791Y38112D01*
Y31396D01*
X118818Y31258D01*
X118896Y31142D01*
X120787Y29251D01*
X120903Y29173D01*
X121041Y29146D01*
X121324D01*
X121424Y29079D01*
X121600Y29044D01*
X123200D01*
X123376Y29079D01*
X123526Y29179D01*
X123626Y29329D01*
X123661Y29505D01*
X123626Y29681D01*
X123526Y29831D01*
X123376Y29931D01*
X123200Y29966D01*
X122911D01*
Y31116D01*
X123023Y31176D01*
X123043Y31163D01*
X123200Y31132D01*
X123700D01*
X123857Y31163D01*
X123990Y31252D01*
X124079Y31385D01*
X124110Y31542D01*
Y32231D01*
X124223Y32307D01*
X125407Y33491D01*
X127512D01*
X127521Y33443D01*
X127610Y33310D01*
X127743Y33221D01*
X127900Y33190D01*
X128900D01*
X129057Y33221D01*
X129190Y33310D01*
X129279Y33443D01*
X129310Y33600D01*
Y34100D01*
X129279Y34257D01*
X129190Y34390D01*
X129057Y34479D01*
X128900Y34510D01*
X127900D01*
X127743Y34479D01*
X127610Y34390D01*
X127521Y34257D01*
X127512Y34209D01*
X125258D01*
X125121Y34182D01*
X125005Y34104D01*
X123827Y32926D01*
X123700Y32951D01*
X123200D01*
X123043Y32920D01*
X123023Y32907D01*
X122911Y32967D01*
Y40004D01*
X123238Y40331D01*
X123346Y40259D01*
X123284Y40108D01*
Y40108D01*
X123688D01*
Y40599D01*
X123672Y40633D01*
X123683Y40644D01*
X123752Y40810D01*
Y40990D01*
X123683Y41156D01*
X123556Y41283D01*
X123390Y41352D01*
X123210D01*
X123044Y41283D01*
X122917Y41156D01*
X122848Y40990D01*
Y40956D01*
X122299Y40406D01*
X122221Y40290D01*
X122194Y40153D01*
Y32042D01*
Y29966D01*
X121600D01*
X121424Y29931D01*
X121324Y29864D01*
X121189D01*
X119509Y31544D01*
Y38112D01*
X119557Y38121D01*
X119690Y38210D01*
X119779Y38343D01*
X119810Y38500D01*
Y39500D01*
X119779Y39657D01*
X119690Y39790D01*
X119557Y39879D01*
X119509Y39888D01*
Y42112D01*
X119557Y42121D01*
X119690Y42210D01*
X119779Y42343D01*
X119810Y42500D01*
Y43500D01*
X119779Y43657D01*
X119690Y43790D01*
X119557Y43879D01*
X119509Y43888D01*
Y46112D01*
X119557Y46121D01*
X119690Y46210D01*
X119779Y46343D01*
X119810Y46500D01*
Y47500D01*
X119779Y47657D01*
X119690Y47790D01*
X119557Y47879D01*
X119509Y47888D01*
Y48983D01*
X119509Y48983D01*
Y50112D01*
X119557Y50121D01*
X119690Y50210D01*
X119779Y50343D01*
X119810Y50500D01*
Y51500D01*
X119779Y51657D01*
X119690Y51790D01*
X119557Y51879D01*
X119400Y51910D01*
X118900D01*
X118743Y51879D01*
X118610Y51790D01*
X118521Y51657D01*
X118490Y51500D01*
Y51476D01*
X118276D01*
X118251Y51500D01*
X118085Y51569D01*
X117905D01*
X117739Y51500D01*
X117686Y51447D01*
X117559Y51499D01*
Y51500D01*
X117524Y51676D01*
X117424Y51824D01*
X117276Y51924D01*
X117209Y51937D01*
Y52663D01*
X117336Y52747D01*
X117386Y52738D01*
X119007D01*
X125276Y46469D01*
X124881Y46073D01*
X124819Y45981D01*
X124797Y45872D01*
Y41275D01*
X124699Y41176D01*
X124630Y41010D01*
Y40830D01*
X124699Y40664D01*
X124826Y40537D01*
X124992Y40468D01*
X125172D01*
X125338Y40537D01*
X125465Y40664D01*
X125534Y40830D01*
Y41010D01*
X125465Y41176D01*
X125366Y41275D01*
Y45754D01*
X125678Y46067D01*
X126598Y45147D01*
Y43593D01*
X127502D01*
Y45247D01*
X127285D01*
X127251Y45298D01*
X125879Y46670D01*
X119326Y53223D01*
X119234Y53285D01*
X119125Y53306D01*
X117503D01*
X117159Y53650D01*
Y54125D01*
X117264Y54146D01*
X117393Y54232D01*
X117446Y54310D01*
X117583Y54335D01*
X117601Y54331D01*
X118351Y53581D01*
X118467Y53503D01*
X118605Y53476D01*
X125500D01*
X125637Y53503D01*
X125754Y53581D01*
X125832Y53697D01*
X125859Y53835D01*
Y54400D01*
X125995D01*
X125998Y54396D01*
X127715Y52678D01*
Y48881D01*
X127617Y48782D01*
X127548Y48616D01*
Y48436D01*
X127617Y48270D01*
X127715Y48171D01*
Y47647D01*
X127548D01*
Y45993D01*
X128452D01*
Y47647D01*
X128284D01*
Y48171D01*
X128383Y48270D01*
X128452Y48436D01*
Y48616D01*
X128383Y48782D01*
X128284Y48881D01*
Y52796D01*
X128263Y52905D01*
X128201Y52997D01*
X126868Y54331D01*
X126916Y54448D01*
X127552D01*
Y55552D01*
X127010D01*
X126990Y55652D01*
X126928Y55744D01*
X125896Y56776D01*
X125804Y56838D01*
X125695Y56859D01*
X120355D01*
X120256Y56958D01*
X120090Y57027D01*
X119910D01*
X119744Y56958D01*
X119617Y56831D01*
X119548Y56665D01*
Y56485D01*
X119617Y56319D01*
X119744Y56192D01*
X119910Y56123D01*
X120090D01*
X120256Y56192D01*
X120355Y56291D01*
X125577D01*
X125786Y56081D01*
X125738Y55964D01*
X119614D01*
X119536Y55948D01*
X119441Y56002D01*
X119409Y56031D01*
Y58688D01*
X119388Y58797D01*
X119326Y58889D01*
X117264Y60951D01*
X117172Y61013D01*
X117063Y61034D01*
X111902D01*
Y61552D01*
X110048D01*
Y61034D01*
X103952D01*
Y61552D01*
X102098D01*
Y59948D01*
X102741D01*
Y58065D01*
X102674Y57998D01*
X102612Y57906D01*
X102591Y57797D01*
Y55875D01*
X102486Y55854D01*
X102357Y55768D01*
X102303Y55688D01*
X102176Y55727D01*
Y57120D01*
X102275Y57219D01*
X102344Y57385D01*
Y57565D01*
X102275Y57731D01*
X102148Y57858D01*
X101982Y57927D01*
X101802D01*
X101636Y57858D01*
X101508Y57731D01*
X101440Y57565D01*
Y57385D01*
X101508Y57219D01*
X101607Y57120D01*
Y50101D01*
X101629Y49992D01*
X101690Y49900D01*
X102012Y49578D01*
X101964Y49461D01*
X101600D01*
X101424Y49426D01*
X101274Y49326D01*
X101179Y49183D01*
X101159Y49164D01*
X101051Y49132D01*
X100788Y49395D01*
Y57108D01*
X100887Y57206D01*
X100955Y57373D01*
Y57552D01*
X100887Y57719D01*
X100759Y57846D01*
X100593Y57915D01*
X100414D01*
X100247Y57846D01*
X100120Y57719D01*
X100051Y57552D01*
Y57373D01*
X100120Y57206D01*
X100219Y57108D01*
Y49277D01*
X100241Y49168D01*
X100302Y49076D01*
X101146Y48233D01*
X101139Y48200D01*
X101174Y48024D01*
X101272Y47877D01*
X101290Y47846D01*
Y47754D01*
X101272Y47723D01*
X101174Y47576D01*
X101139Y47400D01*
X101174Y47224D01*
X101272Y47077D01*
X101287Y47051D01*
X101283Y47040D01*
X101240Y47001D01*
X101128Y46949D01*
X100876Y47201D01*
X100783Y47263D01*
X100675Y47284D01*
X97927D01*
X97818Y47263D01*
X97726Y47201D01*
X96687Y46162D01*
X96639Y46090D01*
X96545Y46099D01*
X96512Y46112D01*
Y83385D01*
X102019Y88892D01*
X102145Y88875D01*
X102218Y88749D01*
X102470Y88497D01*
X102778Y88319D01*
X103122Y88227D01*
X103478D01*
X103822Y88319D01*
X104130Y88497D01*
X104382Y88749D01*
X104560Y89057D01*
X104652Y89401D01*
Y89757D01*
X104560Y90101D01*
X104382Y90409D01*
X104130Y90661D01*
X103822Y90839D01*
X103478Y90931D01*
X103122D01*
X102778Y90839D01*
X102470Y90661D01*
X102218Y90409D01*
X102040Y90101D01*
X101948Y89757D01*
Y89625D01*
X96026Y83704D01*
X95965Y83611D01*
X95943Y83502D01*
Y42667D01*
X95816Y42582D01*
X95738Y42615D01*
X95558D01*
X95392Y42546D01*
X95265Y42419D01*
X95196Y42253D01*
Y42073D01*
X95265Y41907D01*
X95364Y41808D01*
Y12327D01*
X90717Y7681D01*
X90600Y7729D01*
Y8100D01*
X90000D01*
Y8300D01*
X90600D01*
Y9150D01*
X90359D01*
Y10050D01*
X90600D01*
Y10900D01*
X90000D01*
Y11000D01*
X89900D01*
Y11950D01*
X89100D01*
Y11000D01*
Y10050D01*
X89641D01*
Y9150D01*
X89400D01*
Y8559D01*
X88900D01*
Y9150D01*
X88859D01*
Y9283D01*
X88832Y9421D01*
X88754Y9537D01*
X88305Y9985D01*
X88352Y10098D01*
X88352D01*
Y11902D01*
X88284D01*
Y36015D01*
X90177Y37908D01*
X90323D01*
X90489Y37977D01*
X90616Y38104D01*
X90685Y38270D01*
Y38450D01*
X90616Y38616D01*
X90489Y38743D01*
X90323Y38812D01*
X90143D01*
X89977Y38743D01*
X89850Y38616D01*
X89781Y38450D01*
Y38317D01*
X87799Y36334D01*
X87737Y36242D01*
X87716Y36133D01*
Y11902D01*
X87648D01*
Y10252D01*
X87352D01*
Y11902D01*
X87284D01*
Y36717D01*
X90183Y39616D01*
X90323D01*
X90489Y39685D01*
X90616Y39812D01*
X90685Y39978D01*
Y40158D01*
X90616Y40324D01*
X90489Y40451D01*
X90323Y40520D01*
X90143D01*
X89977Y40451D01*
X89850Y40324D01*
X89781Y40158D01*
Y40018D01*
X86799Y37036D01*
X86737Y36944D01*
X86716Y36835D01*
Y11902D01*
X86648D01*
Y10252D01*
X86352D01*
Y11902D01*
X86284D01*
Y38105D01*
X90183Y42004D01*
X90323D01*
X90489Y42072D01*
X90616Y42200D01*
X90685Y42366D01*
Y42546D01*
X90616Y42712D01*
X90489Y42839D01*
X90323Y42908D01*
X90143D01*
X89977Y42839D01*
X89850Y42712D01*
X89781Y42546D01*
Y42406D01*
X85799Y38424D01*
X85737Y38331D01*
X85716Y38223D01*
Y11902D01*
X85648D01*
Y10252D01*
X85352D01*
Y11902D01*
X85284D01*
Y13256D01*
X85288Y13274D01*
Y42569D01*
X85557Y42839D01*
X85557Y42839D01*
X86922Y44203D01*
X89878D01*
X89977Y44104D01*
X90143Y44036D01*
X90323D01*
X90489Y44104D01*
X90616Y44232D01*
X90685Y44398D01*
Y44578D01*
X90616Y44744D01*
X90489Y44871D01*
X90323Y44940D01*
X90143D01*
X89977Y44871D01*
X89878Y44772D01*
X86804D01*
X86695Y44750D01*
X86603Y44689D01*
X85155Y43241D01*
X85000Y43086D01*
X84883Y43135D01*
Y49463D01*
X84902Y49560D01*
Y61052D01*
X87254Y63404D01*
X87332Y63520D01*
X87359Y63657D01*
X87359Y63657D01*
Y75626D01*
X87540Y75674D01*
X87860Y75859D01*
X88120Y76119D01*
X88305Y76438D01*
X88400Y76794D01*
Y76879D01*
X87000D01*
X85600D01*
Y76794D01*
X85695Y76438D01*
X85880Y76119D01*
X86140Y75859D01*
X86460Y75674D01*
X86641Y75626D01*
Y63806D01*
X84290Y61455D01*
X83158Y60323D01*
X83041Y60372D01*
Y62041D01*
X80959D01*
Y61359D01*
X79942D01*
X79805Y61332D01*
X79689Y61254D01*
X77005Y58571D01*
X76976Y58567D01*
X76853Y58596D01*
X76790Y58690D01*
X76657Y58779D01*
X76500Y58810D01*
X75500D01*
X75343Y58779D01*
X75210Y58690D01*
X75121Y58557D01*
X75090Y58400D01*
Y58299D01*
X75058D01*
X74921Y58272D01*
X74804Y58194D01*
X74804Y58194D01*
X74257Y57646D01*
X74179Y57530D01*
X74151Y57392D01*
Y52241D01*
X67155D01*
X67131Y52265D01*
X66965Y52334D01*
X66785D01*
X66619Y52265D01*
X66492Y52138D01*
X66423Y51972D01*
Y51792D01*
X66492Y51626D01*
X66619Y51499D01*
X66785Y51430D01*
X66965D01*
X67131Y51499D01*
X67155Y51523D01*
X74151D01*
Y51291D01*
X72898Y50037D01*
X71746Y48885D01*
X64483D01*
X64256Y49111D01*
X64268Y49232D01*
X64354Y49361D01*
X64385Y49513D01*
Y49566D01*
X64460Y49599D01*
X64512Y49605D01*
X64628Y49489D01*
X64794Y49420D01*
X64974D01*
X65140Y49489D01*
X65238Y49588D01*
X65365Y49587D01*
Y49513D01*
X65396Y49361D01*
X65482Y49232D01*
X65610Y49146D01*
X65762Y49115D01*
X66237D01*
X66389Y49146D01*
X66518Y49232D01*
X66604Y49361D01*
X66635Y49513D01*
Y50488D01*
X66604Y50639D01*
X66518Y50768D01*
X66389Y50854D01*
X66237Y50885D01*
X65762D01*
X65610Y50854D01*
X65482Y50768D01*
X65396Y50639D01*
X65365Y50488D01*
Y50157D01*
X65238Y50157D01*
X65140Y50256D01*
X64974Y50324D01*
X64794D01*
X64628Y50256D01*
X64512Y50139D01*
X64460Y50146D01*
X64385Y50178D01*
Y50488D01*
X64354Y50639D01*
X64268Y50768D01*
X64140Y50854D01*
X64139Y50861D01*
X64124Y50983D01*
X65493Y52353D01*
X65493Y52353D01*
X65571Y52469D01*
X65598Y52606D01*
X65598Y52606D01*
Y53082D01*
X65725Y53150D01*
X65768Y53121D01*
X65925Y53090D01*
X66425D01*
X66582Y53121D01*
X66715Y53210D01*
X66804Y53343D01*
X66835Y53500D01*
Y54500D01*
X66804Y54657D01*
X66715Y54790D01*
X66682Y54812D01*
X66669Y54938D01*
X71435Y59704D01*
X71497Y59797D01*
X71518Y59905D01*
Y70329D01*
X80452Y79262D01*
X80514Y79355D01*
X80535Y79463D01*
Y87133D01*
X84418Y91016D01*
X85556D01*
X85648Y90931D01*
Y89834D01*
X84500D01*
X84391Y89813D01*
X84299Y89751D01*
X81224Y86676D01*
X81162Y86584D01*
X81141Y86475D01*
Y64596D01*
X77176Y60632D01*
X77037D01*
X76871Y60563D01*
X76743Y60436D01*
X76675Y60270D01*
Y60090D01*
X76743Y59924D01*
X76871Y59797D01*
X77037Y59728D01*
X77217D01*
X77383Y59797D01*
X77510Y59924D01*
X77579Y60090D01*
Y60230D01*
X81626Y64277D01*
X81688Y64370D01*
X81709Y64478D01*
Y86357D01*
X84618Y89266D01*
X85648D01*
Y88227D01*
X88352D01*
Y90454D01*
X88469Y90502D01*
X88566Y90406D01*
Y85818D01*
X87336Y84588D01*
X87178Y84631D01*
X86822D01*
X86478Y84539D01*
X86170Y84361D01*
X85918Y84109D01*
X85740Y83801D01*
X85648Y83457D01*
Y83101D01*
X85690Y82943D01*
X85649Y82901D01*
X85587Y82809D01*
X85566Y82700D01*
X85587Y82591D01*
X85649Y82499D01*
X85741Y82437D01*
X85850Y82416D01*
X85934Y82432D01*
X86170Y82197D01*
X86478Y82019D01*
X86822Y81927D01*
X87178D01*
X87522Y82019D01*
X87830Y82197D01*
X88082Y82449D01*
X88260Y82757D01*
X88352Y83101D01*
Y83457D01*
X88260Y83801D01*
X88082Y84109D01*
X87872Y84319D01*
X89051Y85499D01*
X89113Y85591D01*
X89134Y85700D01*
Y90524D01*
X89113Y90633D01*
X89051Y90725D01*
X88275Y91501D01*
X88183Y91563D01*
X88074Y91584D01*
D02*
G37*
G36*
X138889Y50512D02*
X138888D01*
Y50108D01*
X139293D01*
Y50108D01*
X139216Y50294D01*
X139074Y50436D01*
X138889Y50512D01*
D02*
G37*
G36*
X138688D02*
X138688D01*
X138502Y50436D01*
X138360Y50294D01*
X138284Y50108D01*
Y50108D01*
X138688D01*
Y50512D01*
D02*
G37*
G36*
X98889D02*
X98888D01*
Y50108D01*
X99293D01*
Y50108D01*
X99216Y50294D01*
X99074Y50436D01*
X98889Y50512D01*
D02*
G37*
G36*
X98688D02*
X98688D01*
X98502Y50436D01*
X98360Y50294D01*
X98284Y50108D01*
Y50108D01*
X98688D01*
Y50512D01*
D02*
G37*
G36*
X88889D02*
X88888D01*
Y50108D01*
X89293D01*
Y50108D01*
X89216Y50294D01*
X89074Y50436D01*
X88889Y50512D01*
D02*
G37*
G36*
X88688D02*
X88688D01*
X88502Y50436D01*
X88360Y50294D01*
X88284Y50108D01*
Y50108D01*
X88688D01*
Y50512D01*
D02*
G37*
G36*
X68889D02*
X68888D01*
Y50108D01*
X69293D01*
Y50108D01*
X69216Y50294D01*
X69074Y50436D01*
X68889Y50512D01*
D02*
G37*
G36*
X68688D02*
X68688D01*
X68502Y50436D01*
X68360Y50294D01*
X68284Y50108D01*
Y50108D01*
X68688D01*
Y50512D01*
D02*
G37*
G36*
X28889D02*
X28888D01*
Y50108D01*
X29293D01*
Y50108D01*
X29216Y50294D01*
X29074Y50436D01*
X28889Y50512D01*
D02*
G37*
G36*
X28688D02*
X28688D01*
X28502Y50436D01*
X28360Y50294D01*
X28284Y50108D01*
Y50108D01*
X28688D01*
Y50512D01*
D02*
G37*
G36*
X18889D02*
X18888D01*
Y50108D01*
X19293D01*
Y50108D01*
X19216Y50294D01*
X19074Y50436D01*
X18889Y50512D01*
D02*
G37*
G36*
X18688D02*
X18688D01*
X18502Y50436D01*
X18360Y50294D01*
X18284Y50108D01*
Y50108D01*
X18688D01*
Y50512D01*
D02*
G37*
G36*
X8889D02*
X8888D01*
Y50108D01*
X9293D01*
Y50108D01*
X9216Y50294D01*
X9074Y50436D01*
X8889Y50512D01*
D02*
G37*
G36*
X8688D02*
X8688D01*
X8502Y50436D01*
X8360Y50294D01*
X8284Y50108D01*
Y50108D01*
X8688D01*
Y50512D01*
D02*
G37*
G36*
X133514Y52132D02*
X133236D01*
X132969Y52060D01*
X132729Y51922D01*
X132533Y51726D01*
X132395Y51486D01*
X132323Y51219D01*
Y50942D01*
X132395Y50674D01*
X132533Y50434D01*
X132729Y50238D01*
X132969Y50100D01*
X133236Y50028D01*
X133514D01*
X133781Y50100D01*
X134021Y50238D01*
X134217Y50434D01*
X134355Y50674D01*
X134427Y50942D01*
Y51219D01*
X134355Y51486D01*
X134217Y51726D01*
X134021Y51922D01*
X133781Y52060D01*
X133514Y52132D01*
D02*
G37*
G36*
X139293Y49908D02*
X138888D01*
Y49503D01*
X138889D01*
X139074Y49580D01*
X139216Y49722D01*
X139293Y49907D01*
Y49908D01*
D02*
G37*
G36*
X138688D02*
X138284D01*
Y49907D01*
X138360Y49722D01*
X138502Y49580D01*
X138688Y49503D01*
X138688D01*
Y49908D01*
D02*
G37*
G36*
X99293D02*
X98888D01*
Y49503D01*
X98889D01*
X99074Y49580D01*
X99216Y49722D01*
X99293Y49907D01*
Y49908D01*
D02*
G37*
G36*
X98688D02*
X98284D01*
Y49907D01*
X98360Y49722D01*
X98502Y49580D01*
X98688Y49503D01*
X98688D01*
Y49908D01*
D02*
G37*
G36*
X89293D02*
X88888D01*
Y49503D01*
X88889D01*
X89074Y49580D01*
X89216Y49722D01*
X89293Y49907D01*
Y49908D01*
D02*
G37*
G36*
X88688D02*
X88284D01*
Y49907D01*
X88360Y49722D01*
X88502Y49580D01*
X88688Y49503D01*
X88688D01*
Y49908D01*
D02*
G37*
G36*
X69293D02*
X68888D01*
Y49503D01*
X68889D01*
X69074Y49580D01*
X69216Y49722D01*
X69293Y49907D01*
Y49908D01*
D02*
G37*
G36*
X68688D02*
X68284D01*
Y49907D01*
X68360Y49722D01*
X68502Y49580D01*
X68688Y49503D01*
X68688D01*
Y49908D01*
D02*
G37*
G36*
X29293D02*
X28888D01*
Y49503D01*
X28889D01*
X29074Y49580D01*
X29216Y49722D01*
X29293Y49907D01*
Y49908D01*
D02*
G37*
G36*
X28688D02*
X28284D01*
Y49907D01*
X28360Y49722D01*
X28502Y49580D01*
X28688Y49503D01*
X28688D01*
Y49908D01*
D02*
G37*
G36*
X19293D02*
X18888D01*
Y49503D01*
X18889D01*
X19074Y49580D01*
X19216Y49722D01*
X19293Y49907D01*
Y49908D01*
D02*
G37*
G36*
X18688D02*
X18284D01*
Y49907D01*
X18360Y49722D01*
X18502Y49580D01*
X18688Y49503D01*
X18688D01*
Y49908D01*
D02*
G37*
G36*
X9293D02*
X8888D01*
Y49503D01*
X8889D01*
X9074Y49580D01*
X9216Y49722D01*
X9293Y49907D01*
Y49908D01*
D02*
G37*
G36*
X8688D02*
X8284D01*
Y49907D01*
X8360Y49722D01*
X8502Y49580D01*
X8688Y49503D01*
X8688D01*
Y49908D01*
D02*
G37*
G36*
X21900Y49859D02*
X21500D01*
X21324Y49824D01*
X21176Y49724D01*
X21076Y49576D01*
X21041Y49400D01*
Y49250D01*
X21900D01*
Y49859D01*
D02*
G37*
G36*
X36112Y54885D02*
X35637D01*
X35485Y54854D01*
X35357Y54768D01*
X35271Y54640D01*
X35240Y54488D01*
Y53513D01*
X35271Y53361D01*
X35357Y53232D01*
X35485Y53146D01*
X35590Y53125D01*
Y50910D01*
X35534D01*
X35377Y50879D01*
X35244Y50790D01*
X35155Y50657D01*
X35124Y50500D01*
Y49500D01*
X35155Y49343D01*
X35244Y49210D01*
X35377Y49121D01*
X35534Y49090D01*
X36034D01*
X36191Y49121D01*
X36324Y49210D01*
X36413Y49343D01*
X36444Y49500D01*
Y50500D01*
X36413Y50657D01*
X36324Y50790D01*
X36191Y50879D01*
X36159Y50885D01*
Y53125D01*
X36264Y53146D01*
X36393Y53232D01*
X36479Y53361D01*
X36510Y53513D01*
Y54488D01*
X36479Y54640D01*
X36393Y54768D01*
X36264Y54854D01*
X36112Y54885D01*
D02*
G37*
G36*
X21900Y49050D02*
X21041D01*
Y48900D01*
X21076Y48724D01*
X21176Y48576D01*
X21324Y48476D01*
X21500Y48441D01*
X21900D01*
Y49050D01*
D02*
G37*
G36*
X133514Y49592D02*
X133236D01*
X132969Y49520D01*
X132729Y49382D01*
X132533Y49186D01*
X132395Y48946D01*
X132323Y48679D01*
Y48402D01*
X132395Y48134D01*
X132533Y47894D01*
X132729Y47698D01*
X132969Y47560D01*
X133236Y47488D01*
X133514D01*
X133781Y47560D01*
X134021Y47698D01*
X134217Y47894D01*
X134355Y48134D01*
X134427Y48402D01*
Y48679D01*
X134355Y48946D01*
X134217Y49186D01*
X134021Y49382D01*
X133781Y49520D01*
X133514Y49592D01*
D02*
G37*
G36*
Y47052D02*
X133236D01*
X132969Y46980D01*
X132729Y46842D01*
X132533Y46646D01*
X132395Y46406D01*
X132323Y46139D01*
Y45862D01*
X132395Y45594D01*
X132533Y45354D01*
X132729Y45158D01*
X132969Y45020D01*
X133236Y44948D01*
X133514D01*
X133781Y45020D01*
X134021Y45158D01*
X134217Y45354D01*
X134355Y45594D01*
X134427Y45862D01*
Y46139D01*
X134355Y46406D01*
X134217Y46646D01*
X134021Y46842D01*
X133781Y46980D01*
X133514Y47052D01*
D02*
G37*
G36*
X133520Y44560D02*
X133475D01*
Y43560D01*
X134475D01*
Y43605D01*
X134400Y43885D01*
X134255Y44135D01*
X134050Y44340D01*
X133800Y44485D01*
X133520Y44560D01*
D02*
G37*
G36*
X133275D02*
X133230D01*
X132950Y44485D01*
X132700Y44340D01*
X132495Y44135D01*
X132350Y43885D01*
X132275Y43605D01*
Y43560D01*
X133275D01*
Y44560D01*
D02*
G37*
G36*
Y43360D02*
X132275D01*
Y43315D01*
X132350Y43035D01*
X132495Y42785D01*
X132700Y42580D01*
X132950Y42435D01*
X133230Y42360D01*
X133275D01*
Y43360D01*
D02*
G37*
G36*
X129402Y45247D02*
X128498D01*
Y43593D01*
X128591D01*
Y41200D01*
X128567Y41176D01*
X128498Y41010D01*
Y40830D01*
X128567Y40664D01*
X128694Y40537D01*
X128860Y40468D01*
X129040D01*
X129206Y40537D01*
X129333Y40664D01*
X129402Y40830D01*
Y41010D01*
X129333Y41176D01*
X129309Y41200D01*
Y43593D01*
X129402D01*
Y45247D01*
D02*
G37*
G36*
X123889Y40512D02*
X123888D01*
Y40108D01*
X124293D01*
Y40108D01*
X124216Y40294D01*
X124074Y40436D01*
X123889Y40512D01*
D02*
G37*
G36*
X23889D02*
X23888D01*
Y40108D01*
X24293D01*
Y40108D01*
X24216Y40294D01*
X24074Y40436D01*
X23889Y40512D01*
D02*
G37*
G36*
X23688D02*
X23688D01*
X23502Y40436D01*
X23360Y40294D01*
X23284Y40108D01*
Y40108D01*
X23688D01*
Y40512D01*
D02*
G37*
G36*
X13889D02*
X13888D01*
Y40108D01*
X14293D01*
Y40108D01*
X14216Y40294D01*
X14074Y40436D01*
X13889Y40512D01*
D02*
G37*
G36*
X13688D02*
X13688D01*
X13502Y40436D01*
X13360Y40294D01*
X13284Y40108D01*
Y40108D01*
X13688D01*
Y40512D01*
D02*
G37*
G36*
X124293Y39908D02*
X123888D01*
Y39503D01*
X123889D01*
X124074Y39580D01*
X124216Y39722D01*
X124293Y39907D01*
Y39908D01*
D02*
G37*
G36*
X123688D02*
X123284D01*
Y39907D01*
X123360Y39722D01*
X123502Y39580D01*
X123688Y39503D01*
X123688D01*
Y39908D01*
D02*
G37*
G36*
X24293D02*
X23888D01*
Y39503D01*
X23889D01*
X24074Y39580D01*
X24216Y39722D01*
X24293Y39907D01*
Y39908D01*
D02*
G37*
G36*
X23688D02*
X23284D01*
Y39907D01*
X23360Y39722D01*
X23502Y39580D01*
X23688Y39503D01*
X23688D01*
Y39908D01*
D02*
G37*
G36*
X14293D02*
X13888D01*
Y39503D01*
X13889D01*
X14074Y39580D01*
X14216Y39722D01*
X14293Y39907D01*
Y39908D01*
D02*
G37*
G36*
X13688D02*
X13284D01*
Y39907D01*
X13360Y39722D01*
X13502Y39580D01*
X13688Y39503D01*
X13688D01*
Y39908D01*
D02*
G37*
G36*
X117559Y38900D02*
X116950D01*
Y38041D01*
X117100D01*
X117276Y38076D01*
X117424Y38176D01*
X117524Y38324D01*
X117559Y38500D01*
Y38900D01*
D02*
G37*
G36*
X116750D02*
X116141D01*
Y38500D01*
X116176Y38324D01*
X116276Y38176D01*
X116424Y38076D01*
X116600Y38041D01*
X116750D01*
Y38900D01*
D02*
G37*
G36*
X48399Y37821D02*
X47051D01*
X46972Y37805D01*
X46905Y37760D01*
X46860Y37693D01*
X46844Y37614D01*
Y37116D01*
X46860Y37037D01*
X46905Y36970D01*
X46972Y36925D01*
X47051Y36909D01*
X48399D01*
X48478Y36925D01*
X48545Y36970D01*
X48590Y37037D01*
X48599Y37081D01*
X50645D01*
X50744Y36982D01*
X50910Y36913D01*
X51090D01*
X51256Y36982D01*
X51383Y37109D01*
X51452Y37275D01*
Y37455D01*
X51383Y37621D01*
X51256Y37748D01*
X51090Y37817D01*
X50910D01*
X50744Y37748D01*
X50645Y37650D01*
X48599D01*
X48590Y37693D01*
X48545Y37760D01*
X48478Y37805D01*
X48399Y37821D01*
D02*
G37*
G36*
X105950Y35959D02*
X105800D01*
X105624Y35924D01*
X105476Y35824D01*
X105376Y35676D01*
X105341Y35500D01*
Y35100D01*
X105950D01*
Y35959D01*
D02*
G37*
G36*
X151702Y36052D02*
X149898D01*
Y34948D01*
X151702D01*
Y36052D01*
D02*
G37*
G36*
X148902D02*
X147098D01*
Y34948D01*
X148902D01*
Y36052D01*
D02*
G37*
G36*
X68165Y34256D02*
X68100D01*
Y33106D01*
X69250D01*
Y33170D01*
X69165Y33488D01*
X69000Y33773D01*
X68768Y34006D01*
X68482Y34170D01*
X68165Y34256D01*
D02*
G37*
G36*
X67900D02*
X67835D01*
X67518Y34170D01*
X67232Y34006D01*
X67000Y33773D01*
X66835Y33488D01*
X66750Y33170D01*
Y33106D01*
X67900D01*
Y34256D01*
D02*
G37*
G36*
X42949Y36600D02*
X42375D01*
Y36095D01*
Y35590D01*
X42949D01*
X43047Y35610D01*
X43130Y35665D01*
X43158Y35706D01*
X43293Y35715D01*
X43641Y35367D01*
Y33937D01*
X43574Y33924D01*
X43426Y33824D01*
X43326Y33676D01*
X43291Y33500D01*
Y33100D01*
X44000D01*
X44709D01*
Y33500D01*
X44674Y33676D01*
X44574Y33824D01*
X44426Y33924D01*
X44359Y33937D01*
Y35516D01*
X44332Y35653D01*
X44254Y35770D01*
X43675Y36349D01*
X43558Y36427D01*
X43421Y36454D01*
X43177D01*
X43130Y36525D01*
X43047Y36581D01*
X42949Y36600D01*
D02*
G37*
G36*
X55079Y37817D02*
X54899D01*
X54733Y37748D01*
X54606Y37621D01*
X54537Y37455D01*
Y37275D01*
X54606Y37109D01*
X54710Y37005D01*
Y33349D01*
X54617Y33256D01*
X54548Y33090D01*
Y32910D01*
X54617Y32744D01*
X54744Y32617D01*
X54910Y32548D01*
X55090D01*
X55256Y32617D01*
X55383Y32744D01*
X55452Y32910D01*
Y33090D01*
X55383Y33256D01*
X55279Y33360D01*
Y37016D01*
X55372Y37109D01*
X55441Y37275D01*
Y37455D01*
X55372Y37621D01*
X55245Y37748D01*
X55079Y37817D01*
D02*
G37*
G36*
X126000Y33000D02*
X125850D01*
Y32142D01*
X126459D01*
Y32542D01*
X126424Y32717D01*
X126324Y32866D01*
X126176Y32965D01*
X126000Y33000D01*
D02*
G37*
G36*
X125650D02*
X125500D01*
X125324Y32965D01*
X125176Y32866D01*
X125076Y32717D01*
X125041Y32542D01*
Y32142D01*
X125650D01*
Y33000D01*
D02*
G37*
G36*
X44709Y32900D02*
X44100D01*
Y32041D01*
X44250D01*
X44426Y32076D01*
X44574Y32176D01*
X44674Y32324D01*
X44709Y32500D01*
Y32900D01*
D02*
G37*
G36*
X43900D02*
X43291D01*
Y32500D01*
X43326Y32324D01*
X43426Y32176D01*
X43574Y32076D01*
X43750Y32041D01*
X43900D01*
Y32900D01*
D02*
G37*
G36*
X59158Y34208D02*
X58842D01*
X58536Y34126D01*
X58262Y33967D01*
X58038Y33744D01*
X57880Y33470D01*
X57798Y33164D01*
Y32847D01*
X57880Y32542D01*
X58038Y32268D01*
X58262Y32044D01*
X58536Y31885D01*
X58842Y31804D01*
X59158D01*
X59464Y31885D01*
X59738Y32044D01*
X59962Y32268D01*
X60120Y32542D01*
X60202Y32847D01*
Y33164D01*
X60120Y33470D01*
X59962Y33744D01*
X59738Y33967D01*
X59464Y34126D01*
X59158Y34208D01*
D02*
G37*
G36*
X69250Y32906D02*
X68100D01*
Y31756D01*
X68165D01*
X68482Y31841D01*
X68768Y32005D01*
X69000Y32238D01*
X69165Y32523D01*
X69250Y32841D01*
Y32906D01*
D02*
G37*
G36*
X67900D02*
X66750D01*
Y32841D01*
X66835Y32523D01*
X67000Y32238D01*
X67232Y32005D01*
X67518Y31841D01*
X67835Y31756D01*
X67900D01*
Y32906D01*
D02*
G37*
G36*
X128900Y32259D02*
X128500D01*
Y31650D01*
X129359D01*
Y31800D01*
X129324Y31976D01*
X129224Y32124D01*
X129076Y32224D01*
X128900Y32259D01*
D02*
G37*
G36*
X129359Y31450D02*
X128500D01*
Y30841D01*
X128900D01*
X129076Y30876D01*
X129224Y30976D01*
X129324Y31124D01*
X129359Y31300D01*
Y31450D01*
D02*
G37*
G36*
X129158Y64202D02*
X128842D01*
X128536Y64120D01*
X128262Y63962D01*
X128038Y63738D01*
X127880Y63464D01*
X127798Y63158D01*
Y62842D01*
X127880Y62536D01*
X128038Y62262D01*
X128262Y62038D01*
X128536Y61880D01*
X128842Y61798D01*
X129158D01*
X129464Y61880D01*
X129625Y61973D01*
X130157Y61441D01*
Y37459D01*
X130178Y37350D01*
X130240Y37258D01*
X135839Y31659D01*
X135786Y31532D01*
X135561D01*
X135294Y31460D01*
X135054Y31322D01*
X134858Y31126D01*
X134720Y30886D01*
X134648Y30618D01*
Y30341D01*
X134720Y30074D01*
X134783Y29965D01*
X134212Y29394D01*
X131799D01*
X131779Y29497D01*
X131690Y29630D01*
X131557Y29719D01*
X131400Y29750D01*
X130400D01*
X130243Y29719D01*
X130111Y29630D01*
X130022Y29497D01*
X129997Y29374D01*
X128564D01*
X128460Y29501D01*
X128461Y29505D01*
X128426Y29681D01*
X128326Y29831D01*
X128176Y29931D01*
X128000Y29966D01*
X126400D01*
X126224Y29931D01*
X126086Y29839D01*
X126030Y29852D01*
X125959Y29887D01*
Y31083D01*
X126000D01*
X126176Y31118D01*
X126285Y31191D01*
X127463D01*
X127476Y31124D01*
X127576Y30976D01*
X127724Y30876D01*
X127900Y30841D01*
X128300D01*
Y31550D01*
Y32259D01*
X127900D01*
X127724Y32224D01*
X127576Y32124D01*
X127476Y31976D01*
X127463Y31909D01*
X126459D01*
Y31942D01*
X125750D01*
X125041D01*
Y31542D01*
X125076Y31366D01*
X125176Y31217D01*
X125241Y31173D01*
Y29035D01*
X125268Y28898D01*
X125346Y28781D01*
X125891Y28237D01*
X125890Y28235D01*
X125929Y28040D01*
X126040Y27875D01*
X126205Y27764D01*
X126400Y27725D01*
X127100D01*
Y28235D01*
X127300D01*
Y27725D01*
X128000D01*
X128195Y27764D01*
X128360Y27875D01*
X128362Y27876D01*
X129057D01*
X129942Y26991D01*
Y26890D01*
X130800D01*
Y27499D01*
X130449D01*
X129459Y28489D01*
X129343Y28567D01*
X129205Y28594D01*
X128362D01*
X128360Y28595D01*
X128252Y28668D01*
X128283Y28800D01*
X128322Y28806D01*
X128333Y28806D01*
X129997D01*
X130022Y28683D01*
X130111Y28550D01*
X130243Y28461D01*
X130400Y28430D01*
X131400D01*
X131557Y28461D01*
X131690Y28550D01*
X131779Y28683D01*
X131807Y28826D01*
X134330D01*
X134439Y28847D01*
X134531Y28909D01*
X135185Y29563D01*
X135294Y29500D01*
X135561Y29428D01*
X135839D01*
X136106Y29500D01*
X136346Y29638D01*
X136542Y29834D01*
X136589Y29915D01*
X136716Y29881D01*
Y29358D01*
X136215Y28857D01*
X136106Y28920D01*
X135839Y28992D01*
X135561D01*
X135294Y28920D01*
X135054Y28782D01*
X134858Y28586D01*
X134720Y28346D01*
X134648Y28079D01*
Y27802D01*
X134720Y27534D01*
X134858Y27294D01*
X135054Y27098D01*
X135294Y26960D01*
X135561Y26888D01*
X135839D01*
X136106Y26960D01*
X136346Y27098D01*
X136542Y27294D01*
X136680Y27534D01*
X136752Y27802D01*
Y28079D01*
X136680Y28346D01*
X136617Y28455D01*
X137201Y29039D01*
X137263Y29131D01*
X137284Y29240D01*
Y30900D01*
X137263Y31009D01*
X137201Y31101D01*
X130726Y37577D01*
Y61559D01*
X130704Y61668D01*
X130642Y61760D01*
X130027Y62375D01*
X130120Y62536D01*
X130202Y62842D01*
Y63158D01*
X130120Y63464D01*
X129962Y63738D01*
X129738Y63962D01*
X129464Y64120D01*
X129158Y64202D01*
D02*
G37*
G36*
X138889Y30512D02*
X138888D01*
Y30108D01*
X139293D01*
Y30108D01*
X139216Y30294D01*
X139074Y30436D01*
X138889Y30512D01*
D02*
G37*
G36*
X138688D02*
X138688D01*
X138502Y30436D01*
X138360Y30294D01*
X138284Y30108D01*
Y30108D01*
X138688D01*
Y30512D01*
D02*
G37*
G36*
X118889D02*
X118888D01*
Y30108D01*
X119293D01*
Y30108D01*
X119216Y30294D01*
X119074Y30436D01*
X118889Y30512D01*
D02*
G37*
G36*
X118688D02*
X118688D01*
X118502Y30436D01*
X118360Y30294D01*
X118284Y30108D01*
Y30108D01*
X118688D01*
Y30512D01*
D02*
G37*
G36*
X58889D02*
X58888D01*
Y30108D01*
X59293D01*
Y30108D01*
X59216Y30294D01*
X59074Y30436D01*
X58889Y30512D01*
D02*
G37*
G36*
X58688D02*
X58688D01*
X58502Y30436D01*
X58360Y30294D01*
X58284Y30108D01*
Y30108D01*
X58688D01*
Y30512D01*
D02*
G37*
G36*
X48889D02*
X48888D01*
Y30108D01*
X49293D01*
Y30108D01*
X49216Y30294D01*
X49074Y30436D01*
X48889Y30512D01*
D02*
G37*
G36*
X48688D02*
X48688D01*
X48502Y30436D01*
X48360Y30294D01*
X48284Y30108D01*
Y30108D01*
X48688D01*
Y30512D01*
D02*
G37*
G36*
X38889D02*
X38888D01*
Y30108D01*
X39293D01*
Y30108D01*
X39216Y30294D01*
X39074Y30436D01*
X38889Y30512D01*
D02*
G37*
G36*
X38688D02*
X38688D01*
X38502Y30436D01*
X38360Y30294D01*
X38284Y30108D01*
Y30108D01*
X38688D01*
Y30512D01*
D02*
G37*
G36*
X28889D02*
X28888D01*
Y30108D01*
X29293D01*
Y30108D01*
X29216Y30294D01*
X29074Y30436D01*
X28889Y30512D01*
D02*
G37*
G36*
X28688D02*
X28688D01*
X28502Y30436D01*
X28360Y30294D01*
X28284Y30108D01*
Y30108D01*
X28688D01*
Y30512D01*
D02*
G37*
G36*
X18889D02*
X18888D01*
Y30108D01*
X19293D01*
Y30108D01*
X19216Y30294D01*
X19074Y30436D01*
X18889Y30512D01*
D02*
G37*
G36*
X18688D02*
X18688D01*
X18502Y30436D01*
X18360Y30294D01*
X18284Y30108D01*
Y30108D01*
X18688D01*
Y30512D01*
D02*
G37*
G36*
X8889D02*
X8888D01*
Y30108D01*
X9293D01*
Y30108D01*
X9216Y30294D01*
X9074Y30436D01*
X8889Y30512D01*
D02*
G37*
G36*
X8688D02*
X8688D01*
X8502Y30436D01*
X8360Y30294D01*
X8284Y30108D01*
Y30108D01*
X8688D01*
Y30512D01*
D02*
G37*
G36*
X139293Y29908D02*
X138888D01*
Y29503D01*
X138889D01*
X139074Y29580D01*
X139216Y29722D01*
X139293Y29907D01*
Y29908D01*
D02*
G37*
G36*
X138688D02*
X138284D01*
Y29907D01*
X138360Y29722D01*
X138502Y29580D01*
X138688Y29503D01*
X138688D01*
Y29908D01*
D02*
G37*
G36*
X119293D02*
X118888D01*
Y29503D01*
X118889D01*
X119074Y29580D01*
X119216Y29722D01*
X119293Y29907D01*
Y29908D01*
D02*
G37*
G36*
X118688D02*
X118284D01*
Y29907D01*
X118360Y29722D01*
X118502Y29580D01*
X118688Y29503D01*
X118688D01*
Y29908D01*
D02*
G37*
G36*
X59293D02*
X58888D01*
Y29503D01*
X58889D01*
X59074Y29580D01*
X59216Y29722D01*
X59293Y29907D01*
Y29908D01*
D02*
G37*
G36*
X58688D02*
X58284D01*
Y29907D01*
X58360Y29722D01*
X58502Y29580D01*
X58688Y29503D01*
X58688D01*
Y29908D01*
D02*
G37*
G36*
X49293D02*
X48888D01*
Y29503D01*
X48889D01*
X49074Y29580D01*
X49216Y29722D01*
X49293Y29907D01*
Y29908D01*
D02*
G37*
G36*
X48688D02*
X48284D01*
Y29907D01*
X48360Y29722D01*
X48502Y29580D01*
X48688Y29503D01*
X48688D01*
Y29908D01*
D02*
G37*
G36*
X39293D02*
X38888D01*
Y29503D01*
X38889D01*
X39074Y29580D01*
X39216Y29722D01*
X39293Y29907D01*
Y29908D01*
D02*
G37*
G36*
X38688D02*
X38284D01*
Y29907D01*
X38360Y29722D01*
X38502Y29580D01*
X38688Y29503D01*
X38688D01*
Y29908D01*
D02*
G37*
G36*
X29293D02*
X28888D01*
Y29503D01*
X28889D01*
X29074Y29580D01*
X29216Y29722D01*
X29293Y29907D01*
Y29908D01*
D02*
G37*
G36*
X28688D02*
X28284D01*
Y29907D01*
X28360Y29722D01*
X28502Y29580D01*
X28688Y29503D01*
X28688D01*
Y29908D01*
D02*
G37*
G36*
X19293D02*
X18888D01*
Y29503D01*
X18889D01*
X19074Y29580D01*
X19216Y29722D01*
X19293Y29907D01*
Y29908D01*
D02*
G37*
G36*
X18688D02*
X18284D01*
Y29907D01*
X18360Y29722D01*
X18502Y29580D01*
X18688Y29503D01*
X18688D01*
Y29908D01*
D02*
G37*
G36*
X9293D02*
X8888D01*
Y29503D01*
X8889D01*
X9074Y29580D01*
X9216Y29722D01*
X9293Y29907D01*
Y29908D01*
D02*
G37*
G36*
X8688D02*
X8284D01*
Y29907D01*
X8360Y29722D01*
X8502Y29580D01*
X8688Y29503D01*
X8688D01*
Y29908D01*
D02*
G37*
G36*
X115212Y35885D02*
X114737D01*
X114586Y35854D01*
X114457Y35768D01*
X114371Y35639D01*
X114340Y35487D01*
Y34512D01*
X114371Y34360D01*
X114457Y34232D01*
X114586Y34146D01*
X114616Y34139D01*
Y31860D01*
X114586Y31854D01*
X114457Y31768D01*
X114371Y31639D01*
X114340Y31487D01*
Y30513D01*
X114371Y30361D01*
X114457Y30232D01*
X114586Y30146D01*
X114616Y30140D01*
Y29745D01*
X114592Y29720D01*
X114523Y29554D01*
Y29374D01*
X114592Y29208D01*
X114719Y29081D01*
X114885Y29012D01*
X115065D01*
X115231Y29081D01*
X115358Y29208D01*
X115427Y29374D01*
Y29554D01*
X115358Y29720D01*
X115334Y29745D01*
Y30140D01*
X115364Y30146D01*
X115493Y30232D01*
X115579Y30361D01*
X115610Y30513D01*
Y31487D01*
X115579Y31639D01*
X115493Y31768D01*
X115364Y31854D01*
X115334Y31860D01*
Y34139D01*
X115364Y34146D01*
X115493Y34232D01*
X115579Y34360D01*
X115610Y34512D01*
Y35487D01*
X115579Y35639D01*
X115493Y35768D01*
X115364Y35854D01*
X115212Y35885D01*
D02*
G37*
G36*
X131400Y27499D02*
X131000D01*
Y26890D01*
X131859D01*
Y27040D01*
X131824Y27216D01*
X131725Y27364D01*
X131576Y27464D01*
X131400Y27499D01*
D02*
G37*
G36*
X120397Y27452D02*
X120217D01*
X120051Y27383D01*
X119923Y27256D01*
X119855Y27090D01*
Y26910D01*
X119923Y26744D01*
X120051Y26617D01*
X120217Y26548D01*
X120397D01*
X120563Y26617D01*
X120614Y26668D01*
X121255D01*
X121274Y26639D01*
X121424Y26539D01*
X121600Y26504D01*
X123200D01*
X123376Y26539D01*
X123526Y26639D01*
X123626Y26789D01*
X123661Y26965D01*
X123626Y27141D01*
X123526Y27291D01*
X123376Y27391D01*
X123200Y27426D01*
X121600D01*
X121424Y27391D01*
X121274Y27291D01*
X121238Y27237D01*
X120698D01*
X120690Y27256D01*
X120563Y27383D01*
X120397Y27452D01*
D02*
G37*
G36*
X131859Y26690D02*
X131000D01*
Y26081D01*
X131400D01*
X131576Y26116D01*
X131725Y26216D01*
X131824Y26364D01*
X131859Y26540D01*
Y26690D01*
D02*
G37*
G36*
X130800D02*
X129942D01*
Y26540D01*
X129976Y26364D01*
X130076Y26216D01*
X130225Y26116D01*
X130400Y26081D01*
X130800D01*
Y26690D01*
D02*
G37*
G36*
X123200Y26156D02*
X121600D01*
X121424Y26121D01*
X121274Y26021D01*
X121206Y25919D01*
X120661D01*
X120563Y26018D01*
X120397Y26087D01*
X120217D01*
X120051Y26018D01*
X119923Y25891D01*
X119855Y25725D01*
Y25545D01*
X119923Y25379D01*
X120051Y25252D01*
X120217Y25183D01*
X120397D01*
X120563Y25252D01*
X120661Y25351D01*
X121302D01*
X121424Y25269D01*
X121600Y25234D01*
X123200D01*
X123376Y25269D01*
X123526Y25369D01*
X123626Y25519D01*
X123661Y25695D01*
X123626Y25871D01*
X123526Y26021D01*
X123376Y26121D01*
X123200Y26156D01*
D02*
G37*
G36*
X128000Y27426D02*
X126400D01*
X126224Y27391D01*
X126074Y27291D01*
X126006Y27189D01*
X125920D01*
X125811Y27168D01*
X125719Y27106D01*
X125287Y26674D01*
X125225Y26582D01*
X125204Y26473D01*
Y24844D01*
X124964Y24604D01*
X120661D01*
X120563Y24703D01*
X120397Y24772D01*
X120217D01*
X120051Y24703D01*
X119923Y24576D01*
X119855Y24410D01*
Y24230D01*
X119923Y24064D01*
X120051Y23937D01*
X120217Y23868D01*
X120397D01*
X120563Y23937D01*
X120661Y24036D01*
X125082D01*
X125191Y24057D01*
X125283Y24119D01*
X125689Y24525D01*
X125751Y24618D01*
X125773Y24726D01*
Y25679D01*
X125900Y25691D01*
X125911Y25634D01*
X125968Y25548D01*
X125974Y25519D01*
X126074Y25369D01*
X126224Y25269D01*
X126400Y25234D01*
X128000D01*
X128176Y25269D01*
X128326Y25369D01*
X128426Y25519D01*
X128461Y25695D01*
X128426Y25871D01*
X128326Y26021D01*
X128176Y26121D01*
X128000Y26156D01*
X126626D01*
Y26264D01*
X126579Y26377D01*
X126649Y26504D01*
X128000D01*
X128176Y26539D01*
X128326Y26639D01*
X128426Y26789D01*
X128461Y26965D01*
X128426Y27141D01*
X128326Y27291D01*
X128176Y27391D01*
X128000Y27426D01*
D02*
G37*
G36*
X106759Y26900D02*
X106050D01*
X105341D01*
Y26500D01*
X105376Y26324D01*
X105476Y26176D01*
X105624Y26076D01*
X105691Y26063D01*
Y25668D01*
X105718Y25530D01*
X105796Y25414D01*
X106737Y24473D01*
X106854Y24395D01*
X106991Y24368D01*
X106991Y24368D01*
X113726D01*
X113864Y24395D01*
X113980Y24473D01*
X115165Y25658D01*
X115243Y25774D01*
X115270Y25911D01*
Y26050D01*
X115401Y26076D01*
X115549Y26176D01*
X115649Y26324D01*
X115684Y26500D01*
Y26900D01*
X114975D01*
X114266D01*
Y26500D01*
X114301Y26324D01*
X114401Y26176D01*
X114453Y26140D01*
X114469Y25977D01*
X113578Y25085D01*
X107140D01*
X106409Y25816D01*
Y26063D01*
X106476Y26076D01*
X106624Y26176D01*
X106724Y26324D01*
X106759Y26500D01*
Y26900D01*
D02*
G37*
G36*
X136752Y26452D02*
X134648D01*
Y24348D01*
X136752D01*
Y26452D01*
D02*
G37*
G36*
X143889Y20512D02*
X143888D01*
Y20108D01*
X144293D01*
Y20108D01*
X144216Y20294D01*
X144074Y20436D01*
X143889Y20512D01*
D02*
G37*
G36*
X143688D02*
X143688D01*
X143502Y20436D01*
X143360Y20294D01*
X143284Y20108D01*
Y20108D01*
X143688D01*
Y20512D01*
D02*
G37*
G36*
X133889D02*
X133888D01*
Y20108D01*
X134293D01*
Y20108D01*
X134216Y20294D01*
X134074Y20436D01*
X133889Y20512D01*
D02*
G37*
G36*
X133688D02*
X133688D01*
X133502Y20436D01*
X133360Y20294D01*
X133284Y20108D01*
Y20108D01*
X133688D01*
Y20512D01*
D02*
G37*
G36*
X123889D02*
X123888D01*
Y20108D01*
X124293D01*
Y20108D01*
X124216Y20294D01*
X124074Y20436D01*
X123889Y20512D01*
D02*
G37*
G36*
X123688D02*
X123688D01*
X123502Y20436D01*
X123360Y20294D01*
X123284Y20108D01*
Y20108D01*
X123688D01*
Y20512D01*
D02*
G37*
G36*
X113889D02*
X113888D01*
Y20108D01*
X114293D01*
Y20108D01*
X114216Y20294D01*
X114074Y20436D01*
X113889Y20512D01*
D02*
G37*
G36*
X113688D02*
X113688D01*
X113502Y20436D01*
X113360Y20294D01*
X113284Y20108D01*
Y20108D01*
X113688D01*
Y20512D01*
D02*
G37*
G36*
X103889D02*
X103888D01*
Y20108D01*
X104293D01*
Y20108D01*
X104216Y20294D01*
X104074Y20436D01*
X103889Y20512D01*
D02*
G37*
G36*
X103688D02*
X103688D01*
X103502Y20436D01*
X103360Y20294D01*
X103284Y20108D01*
Y20108D01*
X103688D01*
Y20512D01*
D02*
G37*
G36*
X93889D02*
X93888D01*
Y20108D01*
X94293D01*
Y20108D01*
X94216Y20294D01*
X94074Y20436D01*
X93889Y20512D01*
D02*
G37*
G36*
X93688D02*
X93688D01*
X93502Y20436D01*
X93360Y20294D01*
X93284Y20108D01*
Y20108D01*
X93688D01*
Y20512D01*
D02*
G37*
G36*
X63889D02*
X63888D01*
Y20108D01*
X64293D01*
Y20108D01*
X64216Y20294D01*
X64074Y20436D01*
X63889Y20512D01*
D02*
G37*
G36*
X63688D02*
X63688D01*
X63502Y20436D01*
X63360Y20294D01*
X63284Y20108D01*
Y20108D01*
X63688D01*
Y20512D01*
D02*
G37*
G36*
X53889D02*
X53888D01*
Y20108D01*
X54293D01*
Y20108D01*
X54216Y20294D01*
X54074Y20436D01*
X53889Y20512D01*
D02*
G37*
G36*
X53688D02*
X53688D01*
X53502Y20436D01*
X53360Y20294D01*
X53284Y20108D01*
Y20108D01*
X53688D01*
Y20512D01*
D02*
G37*
G36*
X43889D02*
X43888D01*
Y20108D01*
X44293D01*
Y20108D01*
X44216Y20294D01*
X44074Y20436D01*
X43889Y20512D01*
D02*
G37*
G36*
X43688D02*
X43688D01*
X43502Y20436D01*
X43360Y20294D01*
X43284Y20108D01*
Y20108D01*
X43688D01*
Y20512D01*
D02*
G37*
G36*
X33889D02*
X33888D01*
Y20108D01*
X34293D01*
Y20108D01*
X34216Y20294D01*
X34074Y20436D01*
X33889Y20512D01*
D02*
G37*
G36*
X33688D02*
X33688D01*
X33502Y20436D01*
X33360Y20294D01*
X33284Y20108D01*
Y20108D01*
X33688D01*
Y20512D01*
D02*
G37*
G36*
X23889D02*
X23888D01*
Y20108D01*
X24293D01*
Y20108D01*
X24216Y20294D01*
X24074Y20436D01*
X23889Y20512D01*
D02*
G37*
G36*
X23688D02*
X23688D01*
X23502Y20436D01*
X23360Y20294D01*
X23284Y20108D01*
Y20108D01*
X23688D01*
Y20512D01*
D02*
G37*
G36*
X144293Y19908D02*
X143888D01*
Y19503D01*
X143889D01*
X144074Y19580D01*
X144216Y19722D01*
X144293Y19907D01*
Y19908D01*
D02*
G37*
G36*
X143688D02*
X143284D01*
Y19907D01*
X143360Y19722D01*
X143502Y19580D01*
X143688Y19503D01*
X143688D01*
Y19908D01*
D02*
G37*
G36*
X134293D02*
X133888D01*
Y19503D01*
X133889D01*
X134074Y19580D01*
X134216Y19722D01*
X134293Y19907D01*
Y19908D01*
D02*
G37*
G36*
X133688D02*
X133284D01*
Y19907D01*
X133360Y19722D01*
X133502Y19580D01*
X133688Y19503D01*
X133688D01*
Y19908D01*
D02*
G37*
G36*
X124293D02*
X123888D01*
Y19503D01*
X123889D01*
X124074Y19580D01*
X124216Y19722D01*
X124293Y19907D01*
Y19908D01*
D02*
G37*
G36*
X123688D02*
X123284D01*
Y19907D01*
X123360Y19722D01*
X123502Y19580D01*
X123688Y19503D01*
X123688D01*
Y19908D01*
D02*
G37*
G36*
X114293D02*
X113888D01*
Y19503D01*
X113889D01*
X114074Y19580D01*
X114216Y19722D01*
X114293Y19907D01*
Y19908D01*
D02*
G37*
G36*
X113688D02*
X113284D01*
Y19907D01*
X113360Y19722D01*
X113502Y19580D01*
X113688Y19503D01*
X113688D01*
Y19908D01*
D02*
G37*
G36*
X104293D02*
X103888D01*
Y19503D01*
X103889D01*
X104074Y19580D01*
X104216Y19722D01*
X104293Y19907D01*
Y19908D01*
D02*
G37*
G36*
X103688D02*
X103284D01*
Y19907D01*
X103360Y19722D01*
X103502Y19580D01*
X103688Y19503D01*
X103688D01*
Y19908D01*
D02*
G37*
G36*
X94293D02*
X93888D01*
Y19503D01*
X93889D01*
X94074Y19580D01*
X94216Y19722D01*
X94293Y19907D01*
Y19908D01*
D02*
G37*
G36*
X93688D02*
X93284D01*
Y19907D01*
X93360Y19722D01*
X93502Y19580D01*
X93688Y19503D01*
X93688D01*
Y19908D01*
D02*
G37*
G36*
X64293D02*
X63888D01*
Y19503D01*
X63889D01*
X64074Y19580D01*
X64216Y19722D01*
X64293Y19907D01*
Y19908D01*
D02*
G37*
G36*
X63688D02*
X63284D01*
Y19907D01*
X63360Y19722D01*
X63502Y19580D01*
X63688Y19503D01*
X63688D01*
Y19908D01*
D02*
G37*
G36*
X54293D02*
X53888D01*
Y19503D01*
X53889D01*
X54074Y19580D01*
X54216Y19722D01*
X54293Y19907D01*
Y19908D01*
D02*
G37*
G36*
X53688D02*
X53284D01*
Y19907D01*
X53360Y19722D01*
X53502Y19580D01*
X53688Y19503D01*
X53688D01*
Y19908D01*
D02*
G37*
G36*
X44293D02*
X43888D01*
Y19503D01*
X43889D01*
X44074Y19580D01*
X44216Y19722D01*
X44293Y19907D01*
Y19908D01*
D02*
G37*
G36*
X43688D02*
X43284D01*
Y19907D01*
X43360Y19722D01*
X43502Y19580D01*
X43688Y19503D01*
X43688D01*
Y19908D01*
D02*
G37*
G36*
X34293D02*
X33888D01*
Y19503D01*
X33889D01*
X34074Y19580D01*
X34216Y19722D01*
X34293Y19907D01*
Y19908D01*
D02*
G37*
G36*
X33688D02*
X33284D01*
Y19907D01*
X33360Y19722D01*
X33502Y19580D01*
X33688Y19503D01*
X33688D01*
Y19908D01*
D02*
G37*
G36*
X24293D02*
X23888D01*
Y19503D01*
X23889D01*
X24074Y19580D01*
X24216Y19722D01*
X24293Y19907D01*
Y19908D01*
D02*
G37*
G36*
X23688D02*
X23284D01*
Y19907D01*
X23360Y19722D01*
X23502Y19580D01*
X23688Y19503D01*
X23688D01*
Y19908D01*
D02*
G37*
G36*
X14184Y20943D02*
X13814D01*
X13452Y20871D01*
X13110Y20729D01*
X12803Y20524D01*
X12541Y20262D01*
X12336Y19955D01*
X12194Y19613D01*
X12122Y19251D01*
Y18881D01*
X12194Y18518D01*
X12336Y18177D01*
X12541Y17869D01*
X12803Y17608D01*
X13110Y17402D01*
X13452Y17261D01*
X13814Y17189D01*
X14184D01*
X14547Y17261D01*
X14888Y17402D01*
X15196Y17608D01*
X15457Y17869D01*
X15662Y18177D01*
X15804Y18518D01*
X15876Y18881D01*
Y19251D01*
X15804Y19613D01*
X15662Y19955D01*
X15457Y20262D01*
X15196Y20524D01*
X14888Y20729D01*
X14547Y20871D01*
X14184Y20943D01*
D02*
G37*
G36*
X90600Y11950D02*
X90100D01*
Y11100D01*
X90600D01*
Y11950D01*
D02*
G37*
G36*
X88900D02*
X88600D01*
Y11100D01*
X88900D01*
Y11950D01*
D02*
G37*
G36*
X110648Y11377D02*
X110352D01*
X110065Y11300D01*
X109808Y11152D01*
X109598Y10942D01*
X109450Y10685D01*
X109373Y10398D01*
Y10247D01*
X109246Y10222D01*
X109216Y10294D01*
X109074Y10436D01*
X108889Y10512D01*
X108888D01*
Y10008D01*
Y9503D01*
X108889D01*
X109074Y9580D01*
X109216Y9722D01*
X109293Y9907D01*
Y9909D01*
X109420Y9926D01*
X109450Y9815D01*
X109598Y9558D01*
X109808Y9348D01*
X110065Y9200D01*
X110352Y9123D01*
X110648D01*
X110935Y9200D01*
X111192Y9348D01*
X111402Y9558D01*
X111550Y9815D01*
X111627Y10102D01*
Y10398D01*
X111550Y10685D01*
X111402Y10942D01*
X111192Y11152D01*
X110935Y11300D01*
X110648Y11377D01*
D02*
G37*
G36*
X138889Y10512D02*
X138888D01*
Y10108D01*
X139293D01*
Y10108D01*
X139216Y10294D01*
X139074Y10436D01*
X138889Y10512D01*
D02*
G37*
G36*
X138688D02*
X138688D01*
X138502Y10436D01*
X138360Y10294D01*
X138284Y10108D01*
Y10108D01*
X138688D01*
Y10512D01*
D02*
G37*
G36*
X128889D02*
X128888D01*
Y10108D01*
X129293D01*
Y10108D01*
X129216Y10294D01*
X129074Y10436D01*
X128889Y10512D01*
D02*
G37*
G36*
X128688D02*
X128688D01*
X128502Y10436D01*
X128360Y10294D01*
X128284Y10108D01*
Y10108D01*
X128688D01*
Y10512D01*
D02*
G37*
G36*
X118889D02*
X118888D01*
Y10108D01*
X119293D01*
Y10108D01*
X119216Y10294D01*
X119074Y10436D01*
X118889Y10512D01*
D02*
G37*
G36*
X118688D02*
X118688D01*
X118502Y10436D01*
X118360Y10294D01*
X118284Y10108D01*
Y10108D01*
X118688D01*
Y10512D01*
D02*
G37*
G36*
X108688D02*
X108688D01*
X108502Y10436D01*
X108360Y10294D01*
X108284Y10108D01*
Y10108D01*
X108688D01*
Y10512D01*
D02*
G37*
G36*
X98889D02*
X98888D01*
Y10108D01*
X99293D01*
Y10108D01*
X99216Y10294D01*
X99074Y10436D01*
X98889Y10512D01*
D02*
G37*
G36*
X98688D02*
X98688D01*
X98502Y10436D01*
X98360Y10294D01*
X98284Y10108D01*
Y10108D01*
X98688D01*
Y10512D01*
D02*
G37*
G36*
X68889D02*
X68888D01*
Y10108D01*
X69293D01*
Y10108D01*
X69216Y10294D01*
X69074Y10436D01*
X68889Y10512D01*
D02*
G37*
G36*
X68688D02*
X68688D01*
X68502Y10436D01*
X68360Y10294D01*
X68284Y10108D01*
Y10108D01*
X68688D01*
Y10512D01*
D02*
G37*
G36*
X58889D02*
X58888D01*
Y10108D01*
X59293D01*
Y10108D01*
X59216Y10294D01*
X59074Y10436D01*
X58889Y10512D01*
D02*
G37*
G36*
X58688D02*
X58688D01*
X58502Y10436D01*
X58360Y10294D01*
X58284Y10108D01*
Y10108D01*
X58688D01*
Y10512D01*
D02*
G37*
G36*
X48889D02*
X48888D01*
Y10108D01*
X49293D01*
Y10108D01*
X49216Y10294D01*
X49074Y10436D01*
X48889Y10512D01*
D02*
G37*
G36*
X48688D02*
X48688D01*
X48502Y10436D01*
X48360Y10294D01*
X48284Y10108D01*
Y10108D01*
X48688D01*
Y10512D01*
D02*
G37*
G36*
X38889D02*
X38888D01*
Y10108D01*
X39293D01*
Y10108D01*
X39216Y10294D01*
X39074Y10436D01*
X38889Y10512D01*
D02*
G37*
G36*
X38688D02*
X38688D01*
X38502Y10436D01*
X38360Y10294D01*
X38284Y10108D01*
Y10108D01*
X38688D01*
Y10512D01*
D02*
G37*
G36*
X8889D02*
X8888D01*
Y10108D01*
X9293D01*
Y10108D01*
X9216Y10294D01*
X9074Y10436D01*
X8889Y10512D01*
D02*
G37*
G36*
X8688D02*
X8688D01*
X8502Y10436D01*
X8360Y10294D01*
X8284Y10108D01*
Y10108D01*
X8688D01*
Y10512D01*
D02*
G37*
G36*
X88900Y10900D02*
X88600D01*
Y10050D01*
X88900D01*
Y10900D01*
D02*
G37*
G36*
X139293Y9908D02*
X138888D01*
Y9503D01*
X138889D01*
X139074Y9580D01*
X139216Y9722D01*
X139293Y9907D01*
Y9908D01*
D02*
G37*
G36*
X138688D02*
X138284D01*
Y9907D01*
X138360Y9722D01*
X138502Y9580D01*
X138688Y9503D01*
X138688D01*
Y9908D01*
D02*
G37*
G36*
X129293D02*
X128888D01*
Y9503D01*
X128889D01*
X129074Y9580D01*
X129216Y9722D01*
X129293Y9907D01*
Y9908D01*
D02*
G37*
G36*
X128688D02*
X128284D01*
Y9907D01*
X128360Y9722D01*
X128502Y9580D01*
X128688Y9503D01*
X128688D01*
Y9908D01*
D02*
G37*
G36*
X119293D02*
X118888D01*
Y9503D01*
X118889D01*
X119074Y9580D01*
X119216Y9722D01*
X119293Y9907D01*
Y9908D01*
D02*
G37*
G36*
X118688D02*
X118284D01*
Y9907D01*
X118360Y9722D01*
X118502Y9580D01*
X118688Y9503D01*
X118688D01*
Y9908D01*
D02*
G37*
G36*
X108688D02*
X108284D01*
Y9907D01*
X108360Y9722D01*
X108502Y9580D01*
X108688Y9503D01*
X108688D01*
Y9908D01*
D02*
G37*
G36*
X99293D02*
X98888D01*
Y9503D01*
X98889D01*
X99074Y9580D01*
X99216Y9722D01*
X99293Y9907D01*
Y9908D01*
D02*
G37*
G36*
X98688D02*
X98284D01*
Y9907D01*
X98360Y9722D01*
X98502Y9580D01*
X98688Y9503D01*
X98688D01*
Y9908D01*
D02*
G37*
G36*
X69293D02*
X68888D01*
Y9503D01*
X68889D01*
X69074Y9580D01*
X69216Y9722D01*
X69293Y9907D01*
Y9908D01*
D02*
G37*
G36*
X68688D02*
X68284D01*
Y9907D01*
X68360Y9722D01*
X68502Y9580D01*
X68688Y9503D01*
X68688D01*
Y9908D01*
D02*
G37*
G36*
X59293D02*
X58888D01*
Y9503D01*
X58889D01*
X59074Y9580D01*
X59216Y9722D01*
X59293Y9907D01*
Y9908D01*
D02*
G37*
G36*
X58688D02*
X58284D01*
Y9907D01*
X58360Y9722D01*
X58502Y9580D01*
X58688Y9503D01*
X58688D01*
Y9908D01*
D02*
G37*
G36*
X49293D02*
X48888D01*
Y9503D01*
X48889D01*
X49074Y9580D01*
X49216Y9722D01*
X49293Y9907D01*
Y9908D01*
D02*
G37*
G36*
X48688D02*
X48284D01*
Y9907D01*
X48360Y9722D01*
X48502Y9580D01*
X48688Y9503D01*
X48688D01*
Y9908D01*
D02*
G37*
G36*
X39293D02*
X38888D01*
Y9503D01*
X38889D01*
X39074Y9580D01*
X39216Y9722D01*
X39293Y9907D01*
Y9908D01*
D02*
G37*
G36*
X38688D02*
X38284D01*
Y9907D01*
X38360Y9722D01*
X38502Y9580D01*
X38688Y9503D01*
X38688D01*
Y9908D01*
D02*
G37*
G36*
X9293D02*
X8888D01*
Y9503D01*
X8889D01*
X9074Y9580D01*
X9216Y9722D01*
X9293Y9907D01*
Y9908D01*
D02*
G37*
G36*
X8688D02*
X8284D01*
Y9907D01*
X8360Y9722D01*
X8502Y9580D01*
X8688Y9503D01*
X8688D01*
Y9908D01*
D02*
G37*
G36*
X30178Y12182D02*
X29824D01*
X29482Y12090D01*
X29175Y11913D01*
X28924Y11663D01*
X28747Y11356D01*
X28655Y11013D01*
Y10659D01*
X28747Y10317D01*
X28924Y10010D01*
X29175Y9759D01*
X29482Y9582D01*
X29824Y9490D01*
X30178D01*
X30520Y9582D01*
X30827Y9759D01*
X31078Y10010D01*
X31255Y10317D01*
X31347Y10659D01*
Y11013D01*
X31255Y11356D01*
X31078Y11663D01*
X30827Y11913D01*
X30520Y12090D01*
X30178Y12182D01*
D02*
G37*
G36*
X106627Y11377D02*
X104373D01*
Y9123D01*
X106627D01*
Y11377D01*
D02*
G37*
G36*
X66648D02*
X66352D01*
X66065Y11300D01*
X65808Y11152D01*
X65598Y10942D01*
X65450Y10685D01*
X65373Y10398D01*
Y10102D01*
X65450Y9815D01*
X65598Y9558D01*
X65808Y9348D01*
X66065Y9200D01*
X66352Y9123D01*
X66648D01*
X66935Y9200D01*
X67192Y9348D01*
X67402Y9558D01*
X67550Y9815D01*
X67627Y10102D01*
Y10398D01*
X67550Y10685D01*
X67402Y10942D01*
X67192Y11152D01*
X66935Y11300D01*
X66648Y11377D01*
D02*
G37*
G36*
X149303Y9852D02*
X148697D01*
X148098Y9757D01*
X147521Y9570D01*
X146981Y9295D01*
X146491Y8938D01*
X146062Y8509D01*
X145705Y8019D01*
X145430Y7479D01*
X145243Y6902D01*
X145148Y6303D01*
Y5697D01*
X145243Y5098D01*
X145430Y4521D01*
X145705Y3981D01*
X146062Y3491D01*
X146491Y3062D01*
X146981Y2705D01*
X147521Y2430D01*
X148098Y2243D01*
X148697Y2148D01*
X149303D01*
X149902Y2243D01*
X150479Y2430D01*
X151019Y2705D01*
X151509Y3062D01*
X151938Y3491D01*
X152295Y3981D01*
X152570Y4521D01*
X152757Y5098D01*
X152852Y5697D01*
Y6303D01*
X152757Y6902D01*
X152570Y7479D01*
X152295Y8019D01*
X151938Y8509D01*
X151509Y8938D01*
X151019Y9295D01*
X150479Y9570D01*
X149902Y9757D01*
X149303Y9852D01*
D02*
G37*
G36*
X6303D02*
X5697D01*
X5098Y9757D01*
X4521Y9570D01*
X3981Y9295D01*
X3491Y8938D01*
X3062Y8509D01*
X2705Y8019D01*
X2430Y7479D01*
X2243Y6902D01*
X2148Y6303D01*
Y5697D01*
X2243Y5098D01*
X2430Y4521D01*
X2705Y3981D01*
X3062Y3491D01*
X3491Y3062D01*
X3981Y2705D01*
X4521Y2430D01*
X5098Y2243D01*
X5697Y2148D01*
X6303D01*
X6902Y2243D01*
X7479Y2430D01*
X8019Y2705D01*
X8509Y3062D01*
X8938Y3491D01*
X9295Y3981D01*
X9570Y4521D01*
X9757Y5098D01*
X9852Y5697D01*
Y6303D01*
X9757Y6902D01*
X9570Y7479D01*
X9295Y8019D01*
X8938Y8509D01*
X8509Y8938D01*
X8019Y9295D01*
X7479Y9570D01*
X6902Y9757D01*
X6303Y9852D01*
D02*
G37*
%LPD*%
G36*
X46636Y93679D02*
X46776Y93538D01*
X46852Y93354D01*
Y93255D01*
Y92155D01*
Y92095D01*
X46807Y91985D01*
X46722Y91901D01*
X46612Y91855D01*
X44667D01*
Y93755D01*
X46452D01*
X46636Y93679D01*
D02*
G37*
G36*
X39332Y91855D02*
X37388D01*
X37278Y91901D01*
X37193Y91985D01*
X37147Y92095D01*
Y92155D01*
Y93255D01*
Y93354D01*
X37224Y93538D01*
X37364Y93679D01*
X37548Y93755D01*
X39332D01*
Y91855D01*
D02*
G37*
G36*
X149100Y52101D02*
X149143D01*
X149420Y52175D01*
X149669Y52319D01*
X149757Y52407D01*
X149884Y52354D01*
Y51155D01*
X149274Y50545D01*
X149212Y50452D01*
X149191Y50343D01*
Y38284D01*
X148902D01*
Y38452D01*
X148503D01*
X148427Y38579D01*
X148470Y38683D01*
Y38863D01*
X148401Y39029D01*
X148274Y39156D01*
X148108Y39225D01*
X147928D01*
X147762Y39156D01*
X147635Y39029D01*
X147566Y38863D01*
Y38683D01*
X147609Y38579D01*
X147533Y38452D01*
X147098D01*
Y37705D01*
X146287D01*
X144689Y39304D01*
X144650Y39330D01*
Y39641D01*
X147050D01*
Y39500D01*
X147900D01*
Y40000D01*
Y40500D01*
X147050D01*
Y40359D01*
X146529D01*
Y50211D01*
X148525Y52207D01*
X148580Y52175D01*
X148857Y52101D01*
X148900D01*
Y53190D01*
X149100D01*
Y52101D01*
D02*
G37*
G36*
X151545Y52783D02*
Y42052D01*
X149898D01*
Y40948D01*
X151545D01*
Y39697D01*
X151300Y39452D01*
X149898D01*
Y38548D01*
X150248D01*
X150297Y38431D01*
X149891Y38025D01*
X149865Y38029D01*
X149759Y38149D01*
Y50226D01*
X150370Y50836D01*
X150431Y50928D01*
X150453Y51037D01*
Y53681D01*
X150449Y53699D01*
X150566Y53761D01*
X151545Y52783D01*
D02*
G37*
%LPC*%
G36*
X148902Y42052D02*
X147098D01*
Y40948D01*
X148902D01*
Y42052D01*
D02*
G37*
G36*
X148950Y40500D02*
X148100D01*
Y40100D01*
X148950D01*
Y40500D01*
D02*
G37*
G36*
Y39900D02*
X148100D01*
Y39500D01*
X148950D01*
Y39900D01*
D02*
G37*
%LPD*%
G36*
X60250Y80041D02*
X60400D01*
X60576Y80076D01*
X60724Y80176D01*
X60824Y80324D01*
X60859Y80500D01*
Y80629D01*
X63636D01*
X63662Y80502D01*
X63502Y80436D01*
X63360Y80294D01*
X63284Y80108D01*
Y80108D01*
X64293D01*
Y80108D01*
X64216Y80294D01*
X64074Y80436D01*
X63915Y80502D01*
X63940Y80629D01*
X66066D01*
Y80512D01*
X66100Y80342D01*
X66197Y80197D01*
X66149Y80153D01*
X66141Y80147D01*
X63099Y77105D01*
X62770D01*
X62685Y77232D01*
X62720Y77316D01*
Y77496D01*
X62651Y77662D01*
X62524Y77789D01*
X62358Y77858D01*
X62323D01*
X62013Y78168D01*
X61896Y78246D01*
X61759Y78273D01*
X60915D01*
X60777Y78246D01*
X60727Y78213D01*
X60600Y78260D01*
Y78470D01*
X61629D01*
X61766Y78498D01*
X61883Y78575D01*
X62319Y79011D01*
X62358D01*
X62524Y79080D01*
X62651Y79207D01*
X62720Y79373D01*
Y79553D01*
X62651Y79719D01*
X62524Y79847D01*
X62358Y79915D01*
X62178D01*
X62012Y79847D01*
X61884Y79719D01*
X61816Y79553D01*
Y79523D01*
X61480Y79188D01*
X60251D01*
X60196Y79270D01*
X60106Y79330D01*
X60000Y79351D01*
X59894Y79330D01*
X59804Y79270D01*
X59696D01*
X59606Y79330D01*
X59500Y79351D01*
X59486Y79348D01*
X59359Y79448D01*
Y80215D01*
X59383Y80234D01*
X59554Y80209D01*
X59576Y80176D01*
X59724Y80076D01*
X59900Y80041D01*
X60050D01*
Y81000D01*
X60250D01*
Y80041D01*
D02*
G37*
G36*
X58641Y85168D02*
Y79448D01*
X58514Y79348D01*
X58500Y79351D01*
X58411Y79333D01*
X58366Y79350D01*
X58284Y79409D01*
Y80140D01*
X58390Y80210D01*
X58479Y80343D01*
X58510Y80500D01*
Y81500D01*
X58479Y81657D01*
X58390Y81790D01*
X58257Y81879D01*
X58100Y81910D01*
X57600D01*
X57443Y81879D01*
X57310Y81790D01*
X57221Y81657D01*
X57190Y81500D01*
Y81272D01*
X55846D01*
X55747Y81371D01*
X55581Y81439D01*
X55401D01*
X55235Y81371D01*
X55108Y81243D01*
X55039Y81077D01*
Y80897D01*
X55108Y80731D01*
X55235Y80604D01*
X55401Y80535D01*
X55581D01*
X55747Y80604D01*
X55846Y80703D01*
X57190D01*
Y80500D01*
X57221Y80343D01*
X57310Y80210D01*
X57443Y80121D01*
X57600Y80090D01*
X57716D01*
Y79114D01*
X57234D01*
X57125Y79092D01*
X57033Y79030D01*
X56884Y78881D01*
X56823Y78789D01*
X56801Y78680D01*
Y78186D01*
X56569D01*
Y78049D01*
X56451Y78001D01*
X53927Y80569D01*
X53969Y80707D01*
X53978Y80709D01*
X54094Y80787D01*
X58524Y85216D01*
X58641Y85168D01*
D02*
G37*
G36*
X55461Y77985D02*
X55407Y77858D01*
X55401D01*
X55235Y77789D01*
X55108Y77662D01*
X55039Y77496D01*
Y77316D01*
X55108Y77150D01*
X55235Y77023D01*
X55401Y76954D01*
X55502D01*
X55543Y76900D01*
X55481Y76773D01*
X55259D01*
X53359Y78674D01*
Y79955D01*
X53476Y80003D01*
X55461Y77985D01*
D02*
G37*
G36*
X68238Y89137D02*
X68038Y88938D01*
X67880Y88664D01*
X67798Y88358D01*
Y88042D01*
X67880Y87736D01*
X68038Y87462D01*
X68262Y87238D01*
X68536Y87080D01*
X68842Y86998D01*
X69158D01*
X69464Y87080D01*
X69738Y87238D01*
X69935Y87435D01*
X70062Y87397D01*
Y76031D01*
X69875Y75844D01*
X69758Y75907D01*
X69760Y75913D01*
Y76888D01*
X69729Y77039D01*
X69643Y77168D01*
X69514Y77254D01*
X69362Y77285D01*
X68887D01*
X68736Y77254D01*
X68607Y77168D01*
X68521Y77039D01*
X68504Y76958D01*
X68367Y76916D01*
X67676Y77607D01*
X67583Y77669D01*
X67475Y77690D01*
X64655D01*
X64606Y77808D01*
X66460Y79662D01*
X68746D01*
X68855Y79683D01*
X68947Y79745D01*
X69201Y79999D01*
X69263Y80091D01*
X69269Y80122D01*
X69390Y80146D01*
X69518Y80232D01*
X69604Y80361D01*
X69635Y80512D01*
Y81488D01*
X69604Y81639D01*
X69518Y81768D01*
X69390Y81854D01*
X69238Y81885D01*
X68763D01*
X68611Y81854D01*
X68482Y81768D01*
X68396Y81639D01*
X68365Y81488D01*
Y80512D01*
X68396Y80361D01*
X68398Y80357D01*
X68330Y80230D01*
X67459D01*
X67418Y80308D01*
X67403Y80357D01*
X67434Y80512D01*
Y80900D01*
X66750D01*
Y81100D01*
X67434D01*
Y81488D01*
X67400Y81658D01*
X67303Y81803D01*
X67158Y81900D01*
X67109Y81909D01*
Y88826D01*
X67547Y89265D01*
X68203D01*
X68238Y89137D01*
D02*
G37*
G36*
X51542Y73130D02*
Y72862D01*
X51544Y72854D01*
Y72701D01*
X48923D01*
X48838Y72828D01*
X48865Y72894D01*
X48365D01*
Y73094D01*
X48865D01*
X48789Y73277D01*
X48653Y73413D01*
X48654Y73437D01*
X48684Y73540D01*
X51132D01*
X51542Y73130D01*
D02*
G37*
G36*
X43398Y68398D02*
X44502D01*
Y68398D01*
X44611Y68356D01*
Y66884D01*
X43878Y66323D01*
X43698D01*
X43602Y66398D01*
Y67602D01*
X42850D01*
X42334Y68118D01*
Y68398D01*
X42602D01*
Y69452D01*
X43398D01*
Y68398D01*
D02*
G37*
G36*
X66591Y67118D02*
Y66875D01*
X66486Y66854D01*
X66357Y66768D01*
X66271Y66640D01*
X66240Y66488D01*
Y65513D01*
X66268Y65371D01*
X66265Y65340D01*
X66214Y65244D01*
X65408D01*
X63054Y67598D01*
X63103Y67716D01*
X65993D01*
X66591Y67118D01*
D02*
G37*
G36*
X57616Y68322D02*
Y66875D01*
X57511Y66854D01*
X57382Y66768D01*
X57296Y66639D01*
X57265Y66487D01*
Y65512D01*
X57296Y65360D01*
X57382Y65232D01*
X57511Y65146D01*
X57663Y65115D01*
X58138D01*
X58289Y65146D01*
X58418Y65232D01*
X58504Y65360D01*
X58535Y65512D01*
Y65971D01*
X58687D01*
X58786Y65872D01*
X58952Y65803D01*
X59132D01*
X59298Y65872D01*
X59388Y65963D01*
X59515Y65911D01*
Y65512D01*
X59546Y65360D01*
X59632Y65232D01*
X59662Y65211D01*
X59675Y65085D01*
X59528Y64938D01*
X55558D01*
X54178Y66318D01*
X55254Y67394D01*
X55332Y67510D01*
X55359Y67647D01*
Y70403D01*
X55486Y70452D01*
X57616Y68322D01*
D02*
G37*
G36*
X46241Y71492D02*
Y70995D01*
Y69734D01*
X46130D01*
X45992Y69707D01*
X45876Y69629D01*
X45641Y69395D01*
X45564Y69278D01*
X45536Y69141D01*
Y68039D01*
X45564Y67902D01*
X45641Y67785D01*
X45876Y67551D01*
X45992Y67473D01*
X46130Y67446D01*
X52035D01*
X53417Y66064D01*
X54983Y64498D01*
X54934Y64381D01*
X54638D01*
X53071Y65949D01*
X52978Y66010D01*
X52870Y66032D01*
X51985D01*
Y66488D01*
X51954Y66640D01*
X51868Y66768D01*
X51740Y66854D01*
X51588Y66885D01*
X51113D01*
X50961Y66854D01*
X50832Y66768D01*
X50746Y66640D01*
X50715Y66488D01*
Y65513D01*
X50746Y65361D01*
X50832Y65232D01*
X50961Y65146D01*
X51113Y65115D01*
X51588D01*
X51740Y65146D01*
X51868Y65232D01*
X51954Y65361D01*
X51975Y65463D01*
X52752D01*
X54319Y63895D01*
X54412Y63834D01*
X54521Y63812D01*
X62556D01*
X62687Y63681D01*
Y56882D01*
X62589Y56783D01*
X62520Y56617D01*
Y56437D01*
X62589Y56271D01*
X62716Y56144D01*
X62882Y56075D01*
X63062D01*
X63228Y56144D01*
X63355Y56271D01*
X63424Y56437D01*
Y56617D01*
X63355Y56783D01*
X63256Y56882D01*
Y63799D01*
X63235Y63907D01*
X63173Y64000D01*
X62875Y64298D01*
X62783Y64359D01*
X62674Y64381D01*
X62117D01*
X62086Y64452D01*
X62078Y64508D01*
X62165Y64595D01*
X62854D01*
X63419Y64029D01*
Y58364D01*
X63441Y58255D01*
X63503Y58163D01*
X64371Y57295D01*
Y54960D01*
X64244Y54886D01*
X64125Y54910D01*
X63625D01*
X63468Y54879D01*
X63335Y54790D01*
X63246Y54657D01*
X63215Y54500D01*
Y53500D01*
X63246Y53343D01*
X63335Y53210D01*
X63468Y53121D01*
X63591Y53097D01*
Y52962D01*
X57924Y47295D01*
X57862Y47203D01*
X57840Y47094D01*
Y46875D01*
X57735Y46854D01*
X57607Y46768D01*
X57521Y46640D01*
X57490Y46488D01*
Y45513D01*
X57521Y45361D01*
X57607Y45232D01*
X57735Y45146D01*
X57840Y45125D01*
Y44005D01*
X57862Y43896D01*
X57866Y43891D01*
Y42903D01*
X57743Y42879D01*
X57610Y42790D01*
X57521Y42657D01*
X57490Y42500D01*
Y41500D01*
X57521Y41343D01*
X57610Y41210D01*
X57743Y41121D01*
X57866Y41097D01*
Y40389D01*
X56396Y38920D01*
X48599D01*
X48590Y38963D01*
X48545Y39030D01*
X48478Y39075D01*
X48399Y39091D01*
X47051D01*
X46972Y39075D01*
X46944Y39057D01*
X46871Y39160D01*
X46873Y39166D01*
X47155Y39449D01*
X48399D01*
X48478Y39465D01*
X48545Y39510D01*
X48590Y39577D01*
X48606Y39656D01*
Y40154D01*
X48590Y40233D01*
X48545Y40300D01*
X48478Y40345D01*
X48399Y40361D01*
X47155D01*
X46509Y41008D01*
Y44112D01*
X46557Y44121D01*
X46690Y44210D01*
X46779Y44343D01*
X46810Y44500D01*
Y45500D01*
X46779Y45657D01*
X46690Y45790D01*
X46557Y45879D01*
X46509Y45888D01*
Y46804D01*
X47294Y47589D01*
X48396D01*
X48533Y47616D01*
X48650Y47694D01*
X49001Y48046D01*
X49090D01*
X49256Y48114D01*
X49383Y48242D01*
X49452Y48408D01*
Y48588D01*
X49383Y48754D01*
X49256Y48881D01*
X49090Y48950D01*
X48910D01*
X48744Y48881D01*
X48617Y48754D01*
X48562Y48621D01*
X48287Y48346D01*
X48138Y48349D01*
X48093Y48400D01*
X47145D01*
Y48600D01*
X48065D01*
X48049Y48682D01*
X47988Y48773D01*
X47982Y48804D01*
X48004Y48836D01*
X48021Y48925D01*
Y49075D01*
X48019Y49089D01*
X48110Y49216D01*
X49924D01*
X50716Y48424D01*
Y40455D01*
X50617Y40356D01*
X50548Y40190D01*
Y40010D01*
X50617Y39844D01*
X50744Y39717D01*
X50910Y39648D01*
X51090D01*
X51256Y39717D01*
X51383Y39844D01*
X51452Y40010D01*
Y40190D01*
X51383Y40356D01*
X51284Y40455D01*
Y48542D01*
X51263Y48650D01*
X51201Y48743D01*
X50243Y49701D01*
X50150Y49763D01*
X50042Y49784D01*
X48110D01*
X48045Y49858D01*
X48034Y49911D01*
X48725Y50603D01*
X48778D01*
X48910Y50548D01*
X49090D01*
X49256Y50617D01*
X49383Y50744D01*
X49452Y50910D01*
Y51090D01*
X49383Y51256D01*
X49256Y51383D01*
X49090Y51452D01*
X48910D01*
X48744Y51383D01*
X48681Y51321D01*
X48577D01*
X48439Y51293D01*
X48323Y51216D01*
X47414Y50306D01*
X46500D01*
X46411Y50289D01*
X46336Y50239D01*
X46271Y50232D01*
X46230Y50274D01*
X46064Y50342D01*
X45985D01*
X45933Y50469D01*
X47540Y52077D01*
X54912D01*
X54961Y51960D01*
X54777Y51775D01*
X54715Y51683D01*
X54693Y51574D01*
Y40433D01*
X54617Y40356D01*
X54548Y40190D01*
Y40010D01*
X54617Y39844D01*
X54744Y39717D01*
X54910Y39648D01*
X55090D01*
X55256Y39717D01*
X55383Y39844D01*
X55452Y40010D01*
Y40190D01*
X55383Y40356D01*
X55262Y40477D01*
Y41090D01*
X55389Y41157D01*
X55443Y41121D01*
X55600Y41090D01*
X56100D01*
X56257Y41121D01*
X56390Y41210D01*
X56479Y41343D01*
X56510Y41500D01*
Y42500D01*
X56479Y42657D01*
X56390Y42790D01*
X56257Y42879D01*
X56134Y42903D01*
Y43654D01*
X56261Y43707D01*
X56351Y43617D01*
X56518Y43548D01*
X56697D01*
X56863Y43617D01*
X56991Y43744D01*
X57059Y43910D01*
Y44090D01*
X56991Y44256D01*
X56892Y44355D01*
Y45000D01*
X56870Y45109D01*
X56809Y45202D01*
X56508Y45503D01*
X56510Y45513D01*
Y46488D01*
X56479Y46640D01*
X56393Y46768D01*
X56264Y46854D01*
X56112Y46885D01*
X56034D01*
Y49165D01*
X56148D01*
X56300Y49196D01*
X56429Y49282D01*
X56515Y49411D01*
X56545Y49563D01*
Y50538D01*
X56515Y50689D01*
X56429Y50818D01*
X56300Y50904D01*
X56148Y50935D01*
X55673D01*
X55521Y50904D01*
X55392Y50818D01*
X55389Y50814D01*
X55262Y50853D01*
Y51456D01*
X55966Y52160D01*
X55992Y52199D01*
X56020Y52235D01*
X56023Y52245D01*
X56028Y52253D01*
X56037Y52298D01*
X56049Y52343D01*
X56101Y53115D01*
X56112D01*
X56264Y53146D01*
X56393Y53232D01*
X56479Y53361D01*
X56510Y53513D01*
Y54487D01*
X56479Y54639D01*
X56393Y54768D01*
X56315Y54820D01*
X56354Y54947D01*
X57518D01*
X57576Y54884D01*
X57607Y54768D01*
X57521Y54639D01*
X57490Y54487D01*
Y53513D01*
X57521Y53361D01*
X57607Y53232D01*
X57735Y53146D01*
X57840Y53125D01*
Y50918D01*
X57771Y50904D01*
X57642Y50818D01*
X57556Y50689D01*
X57526Y50538D01*
Y49563D01*
X57556Y49411D01*
X57642Y49282D01*
X57771Y49196D01*
X57923Y49165D01*
X58398D01*
X58550Y49196D01*
X58679Y49282D01*
X58765Y49411D01*
X58795Y49563D01*
Y50538D01*
X58765Y50689D01*
X58679Y50818D01*
X58550Y50904D01*
X58409Y50932D01*
Y53125D01*
X58514Y53146D01*
X58643Y53232D01*
X58729Y53361D01*
X58760Y53513D01*
Y54487D01*
X58729Y54639D01*
X58643Y54768D01*
X58514Y54854D01*
X58394Y54878D01*
X58388Y54909D01*
X58326Y55001D01*
X57894Y55433D01*
X57802Y55495D01*
X57693Y55516D01*
X44132D01*
X44023Y55495D01*
X43931Y55433D01*
X43499Y55001D01*
X43437Y54909D01*
X43321Y54886D01*
X43197Y54956D01*
Y56409D01*
X49685Y62898D01*
X61456D01*
X61554Y62799D01*
X61720Y62730D01*
X61900D01*
X62066Y62799D01*
X62194Y62926D01*
X62262Y63092D01*
Y63272D01*
X62194Y63438D01*
X62066Y63565D01*
X61900Y63634D01*
X61720D01*
X61554Y63565D01*
X61456Y63466D01*
X49568D01*
X49459Y63445D01*
X49366Y63383D01*
X42712Y56728D01*
X42650Y56636D01*
X42628Y56527D01*
Y53124D01*
X42650Y53015D01*
X42712Y52922D01*
X43016Y52618D01*
X43109Y52556D01*
X43218Y52534D01*
X45069D01*
X45178Y52556D01*
X45270Y52618D01*
X45744Y53091D01*
X45750Y53090D01*
X46250D01*
X46407Y53121D01*
X46540Y53210D01*
X46629Y53343D01*
X46660Y53500D01*
Y54500D01*
X46629Y54657D01*
X46540Y54790D01*
X46494Y54820D01*
X46533Y54947D01*
X55396D01*
X55435Y54820D01*
X55357Y54768D01*
X55271Y54639D01*
X55240Y54487D01*
Y53513D01*
X55271Y53361D01*
X55357Y53232D01*
X55486Y53146D01*
X55532Y53136D01*
X55499Y52646D01*
X51773D01*
X51727Y52773D01*
X51822Y52868D01*
X51890Y53034D01*
Y53214D01*
X51822Y53380D01*
X51694Y53507D01*
X51528Y53576D01*
X51349D01*
X51182Y53507D01*
X51158Y53482D01*
X47371D01*
X47371Y53482D01*
X47234Y53455D01*
X47117Y53377D01*
X46124Y52384D01*
X45350D01*
X45213Y52357D01*
X45096Y52279D01*
X43124Y50306D01*
X42210D01*
X42121Y50289D01*
X42046Y50239D01*
X41996Y50164D01*
X41979Y50075D01*
Y49925D01*
X41981Y49911D01*
X41890Y49784D01*
X41054D01*
X38409Y52429D01*
Y53125D01*
X38514Y53146D01*
X38643Y53232D01*
X38729Y53361D01*
X38760Y53513D01*
Y54488D01*
X38729Y54640D01*
X38643Y54768D01*
X38514Y54854D01*
X38362Y54885D01*
X37887D01*
X37760Y54859D01*
X37633Y54927D01*
Y61382D01*
X41431Y65180D01*
X41548Y65132D01*
Y64398D01*
X42259D01*
X42610Y64048D01*
X42702Y63986D01*
X42811Y63964D01*
X47539D01*
X47648Y63986D01*
X47740Y64048D01*
X48817Y65125D01*
X48863Y65115D01*
X49338D01*
X49490Y65146D01*
X49618Y65232D01*
X49704Y65361D01*
X49735Y65513D01*
Y66488D01*
X49704Y66640D01*
X49618Y66768D01*
X49490Y66854D01*
X49338Y66885D01*
X48863D01*
X48711Y66854D01*
X48582Y66768D01*
X48496Y66640D01*
X48465Y66488D01*
Y65578D01*
X47421Y64533D01*
X44600D01*
Y64900D01*
X44000D01*
Y65100D01*
X44600D01*
Y65650D01*
X44359D01*
Y65786D01*
X45188Y66422D01*
X45204Y66440D01*
X45224Y66453D01*
X45250Y66492D01*
X45281Y66527D01*
X45289Y66550D01*
X45302Y66569D01*
X45311Y66615D01*
X45326Y66660D01*
X45324Y66683D01*
X45329Y66707D01*
Y70760D01*
X46096Y71526D01*
X46119Y71543D01*
X46241Y71492D01*
D02*
G37*
G36*
X64034Y64906D02*
Y64383D01*
X63907Y64345D01*
X63905Y64348D01*
X63173Y65080D01*
X63081Y65142D01*
X62972Y65163D01*
X62165D01*
X62066Y65262D01*
X61900Y65331D01*
X61720D01*
X61554Y65262D01*
X61427Y65135D01*
X61358Y64969D01*
Y64789D01*
X61427Y64623D01*
X61542Y64508D01*
X61535Y64452D01*
X61503Y64381D01*
X60152D01*
X60104Y64498D01*
X60404Y64798D01*
X60482Y64915D01*
X60509Y65052D01*
Y65139D01*
X60539Y65146D01*
X60668Y65232D01*
X60754Y65360D01*
X60785Y65512D01*
Y65617D01*
X63324D01*
X64034Y64906D01*
D02*
G37*
G36*
X118841Y58570D02*
Y55875D01*
X118736Y55854D01*
X118607Y55768D01*
X118521Y55639D01*
X118490Y55487D01*
Y54636D01*
X118363Y54584D01*
X118151Y54796D01*
Y58262D01*
X118216Y58327D01*
X118292Y58510D01*
X117792D01*
Y58610D01*
X117692D01*
Y59110D01*
X117509Y59034D01*
X117444Y58969D01*
X116813D01*
X116675Y58942D01*
X116559Y58864D01*
X115746Y58051D01*
X115668Y57935D01*
X115641Y57797D01*
Y53720D01*
X115668Y53582D01*
X115746Y53466D01*
X116491Y52721D01*
Y52466D01*
X115125D01*
X114988Y52439D01*
X114871Y52361D01*
X112468Y49958D01*
X112369Y50039D01*
X112426Y50124D01*
X112461Y50300D01*
Y51400D01*
X112426Y51576D01*
X112326Y51726D01*
X112176Y51826D01*
X112000Y51861D01*
X111824Y51826D01*
X111677Y51728D01*
X111646Y51710D01*
X111554D01*
X111523Y51728D01*
X111376Y51826D01*
X111200Y51861D01*
X111024Y51826D01*
X110877Y51728D01*
X110846Y51710D01*
X110754D01*
X110723Y51728D01*
X110576Y51826D01*
X110400Y51861D01*
X110224Y51826D01*
X110077Y51728D01*
X110046Y51710D01*
X109954D01*
X109923Y51728D01*
X109784Y51821D01*
X109764Y51841D01*
X109732Y51949D01*
X111898Y54115D01*
X112363D01*
X112514Y54146D01*
X112643Y54232D01*
X112729Y54360D01*
X112760Y54512D01*
Y55487D01*
X112729Y55639D01*
X112643Y55768D01*
X112514Y55854D01*
X112363Y55885D01*
X111888D01*
X111736Y55854D01*
X111607Y55768D01*
X111521Y55639D01*
X111490Y55487D01*
Y54512D01*
X111490Y54512D01*
X108833Y51854D01*
X108800Y51861D01*
X108624Y51826D01*
X108477Y51728D01*
X108446Y51710D01*
X108444D01*
X108324Y51832D01*
Y51838D01*
X108297Y51975D01*
X108219Y52092D01*
X105760Y54551D01*
Y55487D01*
X105729Y55639D01*
X105643Y55768D01*
X105515Y55854D01*
X105496Y55858D01*
Y57182D01*
X105533Y57219D01*
X105602Y57385D01*
Y57565D01*
X105533Y57731D01*
X105406Y57858D01*
X105240Y57927D01*
X105060D01*
X104894Y57858D01*
X104767Y57731D01*
X104698Y57565D01*
Y57385D01*
X104767Y57219D01*
X104779Y57207D01*
Y55863D01*
X104736Y55854D01*
X104607Y55768D01*
X104521Y55639D01*
X104490Y55487D01*
Y54566D01*
X104363Y54514D01*
X104000Y54877D01*
Y57108D01*
X104099Y57206D01*
X104168Y57373D01*
Y57552D01*
X104099Y57719D01*
X103972Y57846D01*
X103806Y57915D01*
X103626D01*
X103460Y57846D01*
X103396Y57782D01*
X103336Y57813D01*
X103292Y57857D01*
X103309Y57947D01*
Y59948D01*
X103952D01*
Y60466D01*
X110048D01*
Y59948D01*
X111902D01*
Y60466D01*
X113353D01*
X113405Y60339D01*
X113360Y60294D01*
X113284Y60108D01*
Y60108D01*
X114293D01*
Y60108D01*
X114216Y60294D01*
X114171Y60339D01*
X114224Y60466D01*
X116945D01*
X118841Y58570D01*
D02*
G37*
G36*
X80959Y60061D02*
X80053D01*
X79915Y60034D01*
X79799Y59956D01*
X77990Y58147D01*
X77913Y58031D01*
X77885Y57894D01*
Y56209D01*
X76937D01*
X76924Y56276D01*
X76824Y56424D01*
X76676Y56524D01*
X76500Y56559D01*
X76100D01*
Y55850D01*
Y55141D01*
X76500D01*
X76676Y55176D01*
X76824Y55276D01*
X76924Y55424D01*
X76937Y55491D01*
X78990D01*
X79128Y55518D01*
X79244Y55596D01*
X80450Y56802D01*
X81231D01*
X81283Y56675D01*
X81167Y56559D01*
X81030Y56322D01*
X80959Y56057D01*
Y55783D01*
X81030Y55518D01*
X81091Y55413D01*
X80608Y54931D01*
X80547Y54838D01*
X80525Y54730D01*
Y44259D01*
X80547Y44150D01*
X80608Y44058D01*
X81345Y43321D01*
Y42277D01*
X79698D01*
Y41173D01*
X81345D01*
Y40677D01*
X79870D01*
X78498Y42049D01*
X78382Y42127D01*
X78244Y42154D01*
X75409D01*
Y47885D01*
X75382Y48022D01*
X75304Y48139D01*
X73659Y49784D01*
X74764Y50889D01*
X74842Y51005D01*
X74869Y51142D01*
Y51882D01*
Y57244D01*
X75207Y57581D01*
X75254D01*
X75343Y57521D01*
X75500Y57490D01*
X76500D01*
X76657Y57521D01*
X76790Y57610D01*
X76879Y57743D01*
X76888Y57791D01*
X77092D01*
X77230Y57818D01*
X77346Y57896D01*
X80091Y60641D01*
X80959D01*
Y60061D01*
D02*
G37*
G36*
X65089Y64759D02*
X65181Y64697D01*
X65290Y64676D01*
X67368D01*
Y61131D01*
X66392Y60154D01*
X66252D01*
X66086Y60085D01*
X65959Y59958D01*
X65890Y59792D01*
Y59612D01*
X65959Y59446D01*
X66086Y59319D01*
X66252Y59250D01*
X66432D01*
X66598Y59319D01*
X66725Y59446D01*
X66794Y59612D01*
Y59752D01*
X67657Y60615D01*
X67774Y60566D01*
Y60158D01*
X66432Y58816D01*
X66292D01*
X66126Y58747D01*
X65999Y58620D01*
X65930Y58454D01*
Y58274D01*
X65999Y58108D01*
X66126Y57981D01*
X66292Y57912D01*
X66388D01*
X66441Y57785D01*
X66103Y57447D01*
X64752Y58798D01*
Y64916D01*
X64879Y64969D01*
X65089Y64759D01*
D02*
G37*
G36*
X81284Y59216D02*
X81167Y59099D01*
X81030Y58862D01*
X80959Y58597D01*
Y58323D01*
X81030Y58058D01*
X81167Y57821D01*
X81340Y57647D01*
X81312Y57520D01*
X80302D01*
X80164Y57493D01*
X80048Y57415D01*
X80048Y57415D01*
X78842Y56209D01*
X78603D01*
Y57745D01*
X80201Y59343D01*
X81232D01*
X81284Y59216D01*
D02*
G37*
G36*
X117433Y55894D02*
X117306Y55827D01*
X117264Y55854D01*
X117113Y55885D01*
X116638D01*
X116486Y55854D01*
X116471Y55845D01*
X116359Y55904D01*
Y57649D01*
X116961Y58251D01*
X117433D01*
Y55894D01*
D02*
G37*
G36*
X124900Y55100D02*
X125500D01*
Y54900D01*
X124900D01*
Y54400D01*
X125141D01*
Y54194D01*
X119771D01*
X119703Y54321D01*
X119729Y54361D01*
X119760Y54513D01*
Y55395D01*
X124900D01*
Y55100D01*
D02*
G37*
G36*
X104516Y53557D02*
Y51754D01*
X104474Y51726D01*
X104464Y51710D01*
X104354D01*
X104323Y51728D01*
X104176Y51826D01*
X104000Y51861D01*
X103824Y51826D01*
X103674Y51726D01*
X103574Y51576D01*
X103539Y51400D01*
Y50300D01*
X103574Y50124D01*
X103674Y49974D01*
X103824Y49874D01*
X104000Y49839D01*
X104176Y49874D01*
X104323Y49972D01*
X104354Y49990D01*
X104446D01*
X104477Y49972D01*
X104624Y49874D01*
X104800Y49839D01*
X104976Y49874D01*
X105123Y49972D01*
X105154Y49990D01*
X105246D01*
X105277Y49972D01*
X105424Y49874D01*
X105600Y49839D01*
X105776Y49874D01*
X105923Y49972D01*
X105954Y49990D01*
X106046D01*
X106077Y49972D01*
X106224Y49874D01*
X106400Y49839D01*
X106576Y49874D01*
X106726Y49974D01*
X106733D01*
X106774Y49961D01*
X106841Y49918D01*
Y42303D01*
X106868Y42166D01*
X106946Y42050D01*
X107641Y41355D01*
Y40082D01*
X107574Y40039D01*
X107533Y40026D01*
X107526D01*
X107376Y40126D01*
X107200Y40161D01*
X107024Y40126D01*
X106877Y40028D01*
X106846Y40010D01*
X106754D01*
X106723Y40028D01*
X106576Y40126D01*
X106400Y40161D01*
X106224Y40126D01*
X106077Y40028D01*
X106046Y40010D01*
X105993D01*
X105884Y40115D01*
Y40553D01*
X105983Y40652D01*
X106052Y40818D01*
Y40998D01*
X105983Y41164D01*
X105856Y41291D01*
X105690Y41360D01*
X105510D01*
X105344Y41291D01*
X105217Y41164D01*
X105211Y41151D01*
X105084Y41176D01*
Y48051D01*
X105063Y48160D01*
X105001Y48252D01*
X103409Y49845D01*
X103316Y49907D01*
X103207Y49928D01*
X102467D01*
X102176Y50219D01*
Y54273D01*
X102303Y54312D01*
X102357Y54232D01*
X102486Y54146D01*
X102638Y54115D01*
X103113D01*
X103265Y54146D01*
X103393Y54232D01*
X103479Y54361D01*
X103488Y54405D01*
X103626Y54446D01*
X104516Y53557D01*
D02*
G37*
G36*
X45506Y54820D02*
X45460Y54790D01*
X45371Y54657D01*
X45340Y54500D01*
Y53500D01*
X45341Y53494D01*
X44951Y53103D01*
X44308D01*
X44276Y53154D01*
X44253Y53230D01*
X44329Y53343D01*
X44360Y53500D01*
Y54500D01*
X44329Y54657D01*
X44240Y54790D01*
X44297Y54900D01*
X44340Y54947D01*
X45467D01*
X45506Y54820D01*
D02*
G37*
G36*
X83436Y54143D02*
Y46577D01*
X81844Y44985D01*
X81782Y44892D01*
X81761Y44783D01*
Y43876D01*
X81643Y43827D01*
X81094Y44377D01*
Y52566D01*
X81221Y52619D01*
X81331Y52509D01*
X81580Y52365D01*
X81857Y52291D01*
X81900D01*
Y53380D01*
X82000D01*
Y53480D01*
X83089D01*
Y53523D01*
X83015Y53800D01*
X82983Y53855D01*
X83319Y54191D01*
X83436Y54143D01*
D02*
G37*
G36*
X107270Y52025D02*
X107208Y51908D01*
X107200Y51910D01*
X107005Y51871D01*
X106851Y51768D01*
X106733Y51726D01*
X106726D01*
X106576Y51826D01*
X106400Y51861D01*
X106224Y51826D01*
X106077Y51728D01*
X106046Y51710D01*
X105954D01*
X105923Y51728D01*
X105776Y51826D01*
X105600Y51861D01*
X105424Y51826D01*
X105277Y51728D01*
X105246Y51710D01*
X105193D01*
X105084Y51815D01*
Y53675D01*
X105063Y53784D01*
X105001Y53876D01*
X104889Y53988D01*
X104941Y54115D01*
X105180D01*
X107270Y52025D01*
D02*
G37*
G36*
X111677Y49972D02*
X111824Y49874D01*
X112000Y49839D01*
X112176Y49874D01*
X112274Y49940D01*
X112366Y49848D01*
X112304Y49756D01*
X112277Y49618D01*
Y48479D01*
X112304Y48342D01*
X112382Y48226D01*
X112661Y47946D01*
X112661Y47946D01*
X112778Y47868D01*
X112915Y47841D01*
X112918D01*
X112961Y47774D01*
X112974Y47733D01*
Y47726D01*
X112874Y47576D01*
X112839Y47400D01*
X112874Y47224D01*
X112972Y47077D01*
X112990Y47046D01*
Y46993D01*
X112885Y46884D01*
X111466D01*
X111357Y46863D01*
X111265Y46801D01*
X110749Y46285D01*
X110650Y46366D01*
X110663Y46385D01*
X110684Y46494D01*
Y49946D01*
X110726Y49974D01*
X110736Y49990D01*
X110846D01*
X110877Y49972D01*
X111024Y49874D01*
X111200Y49839D01*
X111376Y49874D01*
X111523Y49972D01*
X111554Y49990D01*
X111646D01*
X111677Y49972D01*
D02*
G37*
G36*
X109277D02*
X109424Y49874D01*
X109591Y49841D01*
Y48107D01*
X109585Y48080D01*
Y47987D01*
X109050Y47452D01*
X108910D01*
X108744Y47383D01*
X108617Y47256D01*
X108548Y47090D01*
Y46910D01*
X108617Y46744D01*
X108744Y46617D01*
X108910Y46548D01*
X109090D01*
X109256Y46617D01*
X109383Y46744D01*
X109452Y46910D01*
Y47050D01*
X109989Y47586D01*
X110116Y47534D01*
Y46611D01*
X109323Y45819D01*
X109322Y45820D01*
X109156Y45889D01*
X108976D01*
X108810Y45820D01*
X108683Y45693D01*
X108614Y45526D01*
Y45347D01*
X108683Y45181D01*
X108810Y45053D01*
X108976Y44985D01*
X109156D01*
X109322Y45053D01*
X109373Y45105D01*
X109389Y45104D01*
X109441Y44977D01*
X109116Y44652D01*
X108976D01*
X108810Y44583D01*
X108683Y44456D01*
X108614Y44290D01*
Y44110D01*
X108683Y43944D01*
X108810Y43817D01*
X108976Y43748D01*
X109156D01*
X109322Y43817D01*
X109449Y43944D01*
X109518Y44110D01*
Y44250D01*
X111554Y46285D01*
X111607Y46276D01*
X111646Y46139D01*
X111563Y46056D01*
X111494Y45890D01*
Y45710D01*
X111563Y45544D01*
X111690Y45417D01*
X111856Y45348D01*
X112036D01*
X112202Y45417D01*
X112301Y45515D01*
X112946D01*
X112974Y45474D01*
X112990Y45463D01*
Y45354D01*
X112972Y45323D01*
X112874Y45176D01*
X112839Y45000D01*
X112874Y44824D01*
X112972Y44677D01*
X112990Y44646D01*
Y44554D01*
X112972Y44523D01*
X112874Y44376D01*
X112839Y44200D01*
X112874Y44024D01*
X112972Y43877D01*
X112990Y43846D01*
Y43754D01*
X112972Y43723D01*
X112874Y43576D01*
X112839Y43400D01*
X112874Y43224D01*
X112972Y43077D01*
X112990Y43046D01*
Y42954D01*
X112972Y42923D01*
X112874Y42776D01*
X112839Y42600D01*
X112874Y42424D01*
X112972Y42277D01*
X112990Y42246D01*
Y42154D01*
X112972Y42123D01*
X112874Y41976D01*
X112839Y41800D01*
X112874Y41624D01*
X112972Y41477D01*
X112990Y41446D01*
Y41354D01*
X112972Y41323D01*
X112874Y41176D01*
X112839Y41000D01*
X112874Y40824D01*
X112974Y40674D01*
X113124Y40574D01*
X113300Y40539D01*
X113440D01*
X113450Y40522D01*
X113479Y40412D01*
X113360Y40294D01*
X113284Y40108D01*
Y40108D01*
X114293D01*
Y40108D01*
X114216Y40294D01*
X114098Y40412D01*
X114126Y40522D01*
X114137Y40539D01*
X114400D01*
X114576Y40574D01*
X114726Y40674D01*
X114826Y40824D01*
X114861Y41000D01*
X114826Y41176D01*
X114728Y41323D01*
X114710Y41354D01*
Y41446D01*
X114728Y41477D01*
X114826Y41624D01*
X114861Y41800D01*
X114826Y41976D01*
X114728Y42123D01*
X114710Y42154D01*
Y42246D01*
X114728Y42277D01*
X114826Y42424D01*
X114861Y42600D01*
X114826Y42776D01*
X114728Y42923D01*
X114710Y42954D01*
Y43046D01*
X114728Y43077D01*
X114826Y43224D01*
X114861Y43400D01*
X114826Y43576D01*
X114774Y43653D01*
X114804Y43813D01*
X114837Y43833D01*
X114848Y43829D01*
X114861Y43817D01*
X115027Y43748D01*
X115207D01*
X115373Y43817D01*
X115476Y43920D01*
X115590Y43888D01*
X115603Y43881D01*
Y40414D01*
X112524Y37336D01*
X112462Y37243D01*
X112440Y37135D01*
Y35875D01*
X112335Y35854D01*
X112207Y35768D01*
X112121Y35639D01*
X112090Y35487D01*
Y35284D01*
X110528D01*
X110528Y35284D01*
X109010D01*
Y35500D01*
X108979Y35657D01*
X108890Y35790D01*
X108757Y35879D01*
X108600Y35910D01*
X108247D01*
X108194Y36037D01*
X108791Y36634D01*
X110794D01*
X110902Y36656D01*
X110995Y36717D01*
X111401Y37124D01*
X111463Y37216D01*
X111468Y37240D01*
X111604Y37276D01*
X111690Y37190D01*
X111856Y37122D01*
X112036D01*
X112202Y37190D01*
X112329Y37318D01*
X112398Y37484D01*
Y37664D01*
X112329Y37830D01*
X112257Y37901D01*
Y38228D01*
X112326Y38274D01*
X112426Y38424D01*
X112461Y38600D01*
Y39700D01*
X112426Y39876D01*
X112326Y40026D01*
X112176Y40126D01*
X112000Y40161D01*
X111824Y40126D01*
X111677Y40028D01*
X111646Y40010D01*
X111554D01*
X111523Y40028D01*
X111376Y40126D01*
X111200Y40161D01*
X111024Y40126D01*
X110877Y40028D01*
X110846Y40010D01*
X110754D01*
X110723Y40028D01*
X110576Y40126D01*
X110400Y40161D01*
X110224Y40126D01*
X110077Y40028D01*
X110046Y40010D01*
X109954D01*
X109923Y40028D01*
X109776Y40126D01*
X109600Y40161D01*
X109424Y40126D01*
X109286Y40034D01*
X109230Y40047D01*
X109159Y40082D01*
Y42823D01*
X109159Y42823D01*
X109132Y42961D01*
X109054Y43077D01*
X108359Y43772D01*
Y48181D01*
X108720D01*
X108744Y48157D01*
X108910Y48088D01*
X109090D01*
X109256Y48157D01*
X109383Y48284D01*
X109452Y48450D01*
Y48630D01*
X109383Y48796D01*
X109256Y48923D01*
X109090Y48992D01*
X108910D01*
X108744Y48923D01*
X108720Y48899D01*
X108359D01*
Y49918D01*
X108430Y49953D01*
X108486Y49966D01*
X108624Y49874D01*
X108800Y49839D01*
X108976Y49874D01*
X109123Y49972D01*
X109154Y49990D01*
X109246D01*
X109277Y49972D01*
D02*
G37*
G36*
X116165Y51622D02*
X116141Y51500D01*
Y51100D01*
X116850D01*
Y50900D01*
X116141D01*
Y50500D01*
X116176Y50324D01*
X116276Y50176D01*
X116424Y50076D01*
X116491Y50063D01*
Y47937D01*
X116424Y47924D01*
X116298Y47840D01*
X116270Y47840D01*
X116217Y47856D01*
X116163Y47884D01*
X116150Y47949D01*
X116088Y48042D01*
X114929Y49201D01*
X114836Y49263D01*
X114758Y49278D01*
X114726Y49326D01*
X114576Y49426D01*
X114400Y49461D01*
X113300D01*
X113132Y49427D01*
X113124Y49433D01*
X113083Y49558D01*
X115274Y51749D01*
X116084D01*
X116165Y51622D01*
D02*
G37*
G36*
X46269Y48075D02*
Y47925D01*
X46286Y47836D01*
X46336Y47761D01*
X46347Y47657D01*
X45896Y47206D01*
X45818Y47090D01*
X45791Y46953D01*
Y45888D01*
X45743Y45879D01*
X45610Y45790D01*
X45521Y45657D01*
X45490Y45500D01*
Y44500D01*
X45521Y44343D01*
X45610Y44210D01*
X45743Y44121D01*
X45791Y44112D01*
Y40859D01*
X45818Y40722D01*
X45896Y40605D01*
X46596Y39905D01*
X46046Y39355D01*
X45968Y39239D01*
X45941Y39101D01*
Y33888D01*
X45893Y33879D01*
X45812Y33824D01*
X45685Y33888D01*
Y35861D01*
X45673Y35920D01*
X45664Y35980D01*
X45659Y35989D01*
X45657Y35998D01*
X45624Y36049D01*
X45593Y36101D01*
X43156Y38819D01*
Y38884D01*
X43140Y38963D01*
X43095Y39030D01*
X43028Y39075D01*
X42949Y39091D01*
X42913D01*
X42705Y39322D01*
X42762Y39449D01*
X42949D01*
X43028Y39465D01*
X43095Y39510D01*
X43140Y39577D01*
X43156Y39656D01*
Y40154D01*
X43140Y40233D01*
X43095Y40300D01*
X43028Y40345D01*
X42949Y40361D01*
X41601D01*
X41522Y40345D01*
X41455Y40300D01*
X41410Y40233D01*
X41394Y40154D01*
Y39656D01*
X41410Y39577D01*
X41455Y39510D01*
X41522Y39465D01*
X41601Y39449D01*
X41916D01*
Y39091D01*
X41601D01*
X41522Y39075D01*
X41455Y39030D01*
X41410Y38963D01*
X41394Y38884D01*
Y38386D01*
X41410Y38307D01*
X41455Y38240D01*
X41522Y38195D01*
X41601Y38179D01*
X42766D01*
X42976Y37945D01*
X42965Y37898D01*
X42916Y37821D01*
X41601D01*
X41522Y37805D01*
X41455Y37760D01*
X41410Y37693D01*
X41401Y37650D01*
X37459D01*
X36134Y38974D01*
Y41097D01*
X36257Y41121D01*
X36390Y41210D01*
X36479Y41343D01*
X36510Y41500D01*
Y42500D01*
X36479Y42657D01*
X36390Y42790D01*
X36257Y42879D01*
X36134Y42903D01*
Y45132D01*
X36202Y45146D01*
X36331Y45232D01*
X36417Y45361D01*
X36447Y45513D01*
Y45737D01*
X36780D01*
X36879Y45638D01*
X37045Y45570D01*
X37225D01*
X37273Y45590D01*
X37347Y45540D01*
X37382Y45497D01*
X37413Y45342D01*
X37510Y45197D01*
X37654Y45100D01*
X37791Y45073D01*
Y42937D01*
X37724Y42924D01*
X37576Y42824D01*
X37476Y42676D01*
X37441Y42500D01*
Y42100D01*
X38150D01*
Y42000D01*
D01*
Y42100D01*
X38859D01*
Y42500D01*
X38824Y42676D01*
X38724Y42824D01*
X38576Y42924D01*
X38509Y42937D01*
Y45126D01*
X38615Y45197D01*
X38712Y45342D01*
X38746Y45513D01*
Y45900D01*
X38063D01*
Y46100D01*
X38746D01*
Y46488D01*
X38712Y46658D01*
X38615Y46803D01*
X38471Y46900D01*
X38443Y46905D01*
Y47641D01*
X43475D01*
X43491Y47625D01*
Y45937D01*
X43424Y45924D01*
X43276Y45824D01*
X43176Y45675D01*
X43141Y45500D01*
Y45100D01*
X43850D01*
X44559D01*
Y45500D01*
X44524Y45675D01*
X44424Y45824D01*
X44276Y45924D01*
X44209Y45937D01*
Y47774D01*
X44182Y47911D01*
X44104Y48028D01*
X44104Y48028D01*
X44082Y48049D01*
X44131Y48167D01*
X46157D01*
X46269Y48075D01*
D02*
G37*
G36*
X104104Y42319D02*
Y41026D01*
X103243Y40165D01*
X103151Y40188D01*
X103116Y40213D01*
Y40809D01*
X103126Y40824D01*
X103161Y41000D01*
X103126Y41176D01*
X103028Y41323D01*
X103010Y41354D01*
Y41446D01*
X103028Y41477D01*
X103126Y41624D01*
X103161Y41800D01*
X103126Y41976D01*
X103028Y42123D01*
X103010Y42154D01*
Y42207D01*
X103115Y42316D01*
X103492D01*
X103601Y42337D01*
X103678Y42389D01*
X103719Y42371D01*
X103899D01*
X103977Y42404D01*
X104104Y42319D01*
D02*
G37*
G36*
X84185Y60168D02*
Y49637D01*
X84165Y49540D01*
Y42277D01*
X82498D01*
Y41173D01*
X84165D01*
Y39677D01*
X82498D01*
Y39509D01*
X82365D01*
Y42519D01*
X82344Y42628D01*
X82330Y42649D01*
Y44666D01*
X83922Y46258D01*
X83984Y46350D01*
X84005Y46459D01*
Y57102D01*
X83984Y57211D01*
X83922Y57304D01*
X83012Y58214D01*
X83041Y58323D01*
Y58597D01*
X82970Y58862D01*
X82833Y59099D01*
X82716Y59216D01*
X82768Y59343D01*
X83045D01*
X83182Y59371D01*
X83299Y59448D01*
X84067Y60217D01*
X84185Y60168D01*
D02*
G37*
G36*
X77624Y39024D02*
X77716Y38962D01*
X77825Y38941D01*
X82498D01*
Y38773D01*
X84165D01*
Y38048D01*
X83842Y37725D01*
X83500D01*
Y37225D01*
Y36725D01*
X84350D01*
Y37217D01*
X84602Y37469D01*
X84719Y37421D01*
Y13289D01*
X84716Y13270D01*
Y11902D01*
X84648D01*
Y10252D01*
X84352D01*
Y11902D01*
X84284D01*
Y32651D01*
X84383Y32750D01*
X84452Y32916D01*
Y33095D01*
X84383Y33262D01*
X84256Y33389D01*
X84090Y33458D01*
X83910D01*
X83744Y33389D01*
X83617Y33262D01*
X83548Y33095D01*
Y32916D01*
X83617Y32750D01*
X83716Y32651D01*
Y11902D01*
X83648D01*
Y10252D01*
X83406D01*
X83100Y10558D01*
Y10900D01*
X81900D01*
Y10050D01*
X82141D01*
Y9150D01*
X81900D01*
Y8300D01*
X82500D01*
Y8100D01*
X81900D01*
Y7574D01*
X81783Y7525D01*
X74539Y14768D01*
Y37000D01*
X75150D01*
Y37900D01*
X75350D01*
Y37000D01*
X75642D01*
X76206Y36436D01*
X76323Y36358D01*
X76460Y36331D01*
X76641D01*
Y34759D01*
X76641Y34759D01*
Y33184D01*
X76576Y33119D01*
X76500Y32936D01*
X77500D01*
X77424Y33119D01*
X77359Y33184D01*
Y34759D01*
X77359Y34759D01*
Y36331D01*
X79593D01*
X79698Y36277D01*
X79698Y36204D01*
Y35173D01*
X81502D01*
Y36277D01*
X80722D01*
X80683Y36404D01*
X80731Y36436D01*
X81161Y36866D01*
X81641D01*
Y25600D01*
X81641Y25600D01*
X81641Y25600D01*
Y15498D01*
X81668Y15361D01*
X81746Y15244D01*
X82141Y14850D01*
Y11950D01*
X81900D01*
Y11100D01*
X83100D01*
Y11950D01*
X82859D01*
Y14998D01*
X82832Y15136D01*
X82754Y15252D01*
X82359Y15647D01*
Y25600D01*
Y36638D01*
X82450Y36725D01*
X83300D01*
Y37225D01*
Y37725D01*
X82450D01*
Y37584D01*
X81013D01*
X80875Y37557D01*
X80759Y37479D01*
X80329Y37049D01*
X77602D01*
Y37941D01*
X79698D01*
Y37773D01*
X81502D01*
Y38677D01*
X79698D01*
Y38509D01*
X77602D01*
Y38752D01*
X76813D01*
X76446Y39119D01*
Y39248D01*
X77400D01*
X77624Y39024D01*
D02*
G37*
G36*
X96603Y19093D02*
Y11789D01*
X91817Y7002D01*
X91009D01*
X90961Y7120D01*
X95849Y12008D01*
X95911Y12100D01*
X95932Y12209D01*
Y19018D01*
X96059Y19103D01*
X96137Y19071D01*
X96317D01*
X96483Y19139D01*
X96486Y19142D01*
X96603Y19093D01*
D02*
G37*
G36*
X88031Y9245D02*
X88100Y9150D01*
X88100D01*
X88100Y9150D01*
Y8300D01*
X88500D01*
Y8100D01*
X88100D01*
Y7424D01*
X87853D01*
Y8131D01*
X87852Y8138D01*
Y9102D01*
X87148D01*
Y7298D01*
X87285D01*
Y7288D01*
X87306Y7179D01*
X87340Y7129D01*
X87284Y7002D01*
X86312D01*
X86140Y7174D01*
X86196Y7298D01*
X86852D01*
Y9102D01*
X86770D01*
X86763Y9137D01*
X86701Y9230D01*
X86524Y9407D01*
X86555Y9512D01*
X86571Y9534D01*
X87742D01*
X88031Y9245D01*
D02*
G37*
G36*
X98146Y46692D02*
X98192Y46577D01*
X97799Y46184D01*
X97737Y46092D01*
X97716Y45983D01*
Y11118D01*
X92609Y6012D01*
X85804D01*
X85285Y6531D01*
Y7045D01*
X85412Y7098D01*
X85993Y6517D01*
X86086Y6455D01*
X86194Y6433D01*
X91935D01*
X92044Y6455D01*
X92136Y6517D01*
X97089Y11470D01*
X97151Y11562D01*
X97172Y11671D01*
Y45843D01*
X98033Y46704D01*
X98146Y46692D01*
D02*
G37*
%LPC*%
G36*
X64293Y79908D02*
X63888D01*
Y79503D01*
X63889D01*
X64074Y79580D01*
X64216Y79722D01*
X64293Y79907D01*
Y79908D01*
D02*
G37*
G36*
X63688D02*
X63284D01*
Y79907D01*
X63360Y79722D01*
X63502Y79580D01*
X63688Y79503D01*
X63688D01*
Y79908D01*
D02*
G37*
G36*
X53889Y60512D02*
X53888D01*
Y60108D01*
X54293D01*
Y60108D01*
X54216Y60294D01*
X54074Y60436D01*
X53889Y60512D01*
D02*
G37*
G36*
X53688D02*
X53688D01*
X53502Y60436D01*
X53360Y60294D01*
X53284Y60108D01*
Y60108D01*
X53688D01*
Y60512D01*
D02*
G37*
G36*
X43889D02*
X43888D01*
Y60108D01*
X44293D01*
Y60108D01*
X44216Y60294D01*
X44074Y60436D01*
X43889Y60512D01*
D02*
G37*
G36*
X43688D02*
X43688D01*
X43502Y60436D01*
X43360Y60294D01*
X43284Y60108D01*
Y60108D01*
X43688D01*
Y60512D01*
D02*
G37*
G36*
X54293Y59908D02*
X53888D01*
Y59503D01*
X53889D01*
X54074Y59580D01*
X54216Y59722D01*
X54293Y59907D01*
Y59908D01*
D02*
G37*
G36*
X53688D02*
X53284D01*
Y59907D01*
X53360Y59722D01*
X53502Y59580D01*
X53688Y59503D01*
X53688D01*
Y59908D01*
D02*
G37*
G36*
X44293D02*
X43888D01*
Y59503D01*
X43889D01*
X44074Y59580D01*
X44216Y59722D01*
X44293Y59907D01*
Y59908D01*
D02*
G37*
G36*
X43688D02*
X43284D01*
Y59907D01*
X43360Y59722D01*
X43502Y59580D01*
X43688Y59503D01*
X43688D01*
Y59908D01*
D02*
G37*
G36*
X47497Y47140D02*
X47317D01*
X47151Y47071D01*
X47024Y46944D01*
X46955Y46778D01*
Y46598D01*
X47024Y46432D01*
X47151Y46305D01*
X47317Y46236D01*
X47497D01*
X47663Y46305D01*
X47762Y46404D01*
X48307D01*
X48548Y46163D01*
Y46023D01*
X48617Y45857D01*
X48744Y45730D01*
X48910Y45661D01*
X49090D01*
X49256Y45730D01*
X49383Y45857D01*
X49452Y46023D01*
Y46203D01*
X49383Y46369D01*
X49256Y46496D01*
X49090Y46565D01*
X48950D01*
X48626Y46889D01*
X48534Y46951D01*
X48425Y46973D01*
X47762D01*
X47663Y47071D01*
X47497Y47140D01*
D02*
G37*
G36*
X53889Y40512D02*
X53888D01*
Y40108D01*
X54293D01*
Y40108D01*
X54216Y40294D01*
X54074Y40436D01*
X53889Y40512D01*
D02*
G37*
G36*
X53688D02*
X53688D01*
X53502Y40436D01*
X53360Y40294D01*
X53284Y40108D01*
Y40108D01*
X53688D01*
Y40512D01*
D02*
G37*
G36*
X54293Y39908D02*
X53888D01*
Y39503D01*
X53889D01*
X54074Y39580D01*
X54216Y39722D01*
X54293Y39907D01*
Y39908D01*
D02*
G37*
G36*
X53688D02*
X53284D01*
Y39907D01*
X53360Y39722D01*
X53502Y39580D01*
X53688Y39503D01*
X53688D01*
Y39908D01*
D02*
G37*
G36*
X114293Y59908D02*
X113888D01*
Y59503D01*
X113889D01*
X114074Y59580D01*
X114216Y59722D01*
X114293Y59907D01*
Y59908D01*
D02*
G37*
G36*
X113688D02*
X113284D01*
Y59907D01*
X113360Y59722D01*
X113502Y59580D01*
X113688Y59503D01*
X113688D01*
Y59908D01*
D02*
G37*
G36*
X117892Y59110D02*
Y58710D01*
X118292D01*
X118216Y58893D01*
X118075Y59034D01*
X117892Y59110D01*
D02*
G37*
G36*
X114790Y57027D02*
X114610D01*
X114444Y56958D01*
X114345Y56859D01*
X111200D01*
X111091Y56838D01*
X110999Y56776D01*
X110107Y55885D01*
X109638D01*
X109486Y55854D01*
X109357Y55768D01*
X109271Y55639D01*
X109240Y55487D01*
Y54512D01*
X109271Y54360D01*
X109357Y54232D01*
X109486Y54146D01*
X109638Y54115D01*
X110113D01*
X110265Y54146D01*
X110393Y54232D01*
X110479Y54360D01*
X110510Y54512D01*
Y55482D01*
X111318Y56291D01*
X114345D01*
X114444Y56192D01*
X114610Y56123D01*
X114790D01*
X114956Y56192D01*
X115083Y56319D01*
X115152Y56485D01*
Y56665D01*
X115083Y56831D01*
X114956Y56958D01*
X114790Y57027D01*
D02*
G37*
G36*
X75900Y56559D02*
X75500D01*
X75324Y56524D01*
X75176Y56424D01*
X75076Y56276D01*
X75041Y56100D01*
Y55950D01*
X75900D01*
Y56559D01*
D02*
G37*
G36*
Y55750D02*
X75041D01*
Y55600D01*
X75076Y55424D01*
X75176Y55276D01*
X75324Y55176D01*
X75500Y55141D01*
X75900D01*
Y55750D01*
D02*
G37*
G36*
X83089Y53280D02*
X82100D01*
Y52291D01*
X82143D01*
X82420Y52365D01*
X82669Y52509D01*
X82871Y52711D01*
X83015Y52960D01*
X83089Y53237D01*
Y53280D01*
D02*
G37*
G36*
X114293Y39908D02*
X113888D01*
Y39503D01*
X113889D01*
X114074Y39580D01*
X114216Y39722D01*
X114293Y39907D01*
Y39908D01*
D02*
G37*
G36*
X113688D02*
X113284D01*
Y39907D01*
X113360Y39722D01*
X113502Y39580D01*
X113688Y39503D01*
X113688D01*
Y39908D01*
D02*
G37*
G36*
X44559Y44900D02*
X43950D01*
Y44041D01*
X44100D01*
X44276Y44076D01*
X44424Y44175D01*
X44524Y44324D01*
X44559Y44500D01*
Y44900D01*
D02*
G37*
G36*
X43750D02*
X43141D01*
Y44500D01*
X43176Y44324D01*
X43276Y44175D01*
X43424Y44076D01*
X43600Y44041D01*
X43750D01*
Y44900D01*
D02*
G37*
G36*
X38859Y41900D02*
X38250D01*
Y41041D01*
X38400D01*
X38576Y41076D01*
X38724Y41176D01*
X38824Y41324D01*
X38859Y41500D01*
Y41900D01*
D02*
G37*
G36*
X38050D02*
X37441D01*
Y41500D01*
X37476Y41324D01*
X37576Y41176D01*
X37724Y41076D01*
X37900Y41041D01*
X38050D01*
Y41900D01*
D02*
G37*
G36*
X43889Y40512D02*
X43888D01*
Y40108D01*
X44293D01*
Y40108D01*
X44216Y40294D01*
X44074Y40436D01*
X43889Y40512D01*
D02*
G37*
G36*
X43688D02*
X43688D01*
X43502Y40436D01*
X43360Y40294D01*
X43284Y40108D01*
Y40108D01*
X43688D01*
Y40512D01*
D02*
G37*
G36*
X44293Y39908D02*
X43888D01*
Y39503D01*
X43889D01*
X44074Y39580D01*
X44216Y39722D01*
X44293Y39907D01*
Y39908D01*
D02*
G37*
G36*
X43688D02*
X43284D01*
Y39907D01*
X43360Y39722D01*
X43502Y39580D01*
X43688Y39503D01*
X43688D01*
Y39908D01*
D02*
G37*
G36*
X84302Y36277D02*
X82498D01*
Y35173D01*
X84302D01*
Y36277D01*
D02*
G37*
G36*
X77500Y32736D02*
X77100D01*
Y32336D01*
X77283Y32412D01*
X77424Y32553D01*
X77500Y32736D01*
D02*
G37*
G36*
X76900D02*
X76500D01*
X76576Y32553D01*
X76717Y32412D01*
X76900Y32336D01*
Y32736D01*
D02*
G37*
%LPD*%
D10*
X56388Y77554D02*
G03*
X56389Y77553I284J282D01*
G01*
X60150Y80987D02*
X66750D01*
X42855Y48498D02*
X43624D01*
X38030Y49669D02*
X38084D01*
X56389Y77553D02*
X56506Y77436D01*
X53006Y80993D02*
X53053Y81041D01*
X53006Y80993D02*
X53006Y80993D01*
X53000Y81000D02*
X53006Y80993D01*
X53237Y80734D01*
X53260D02*
X53364Y80630D01*
X56388Y77554D01*
X56506Y77436D02*
X57064D01*
X53237Y80734D02*
X53260D01*
X53000Y78525D02*
Y80987D01*
X43375Y50050D02*
X45350Y52025D01*
X46272D01*
X51282Y75789D02*
X51375Y75882D01*
X51282Y74442D02*
Y75789D01*
X51244Y74404D02*
X51282Y74442D01*
X117995Y51117D02*
X119150D01*
X60150Y65976D02*
X63472D01*
X49075Y75882D02*
X49292Y76099D01*
X74510Y40119D02*
X75050D01*
X47145Y47948D02*
X48396D01*
X43624Y48498D02*
X43626Y48500D01*
X42855Y48000D02*
Y48498D01*
X38343Y48000D02*
X42855D01*
X127135Y28300D02*
X127200Y28235D01*
X125600Y29035D02*
X126335Y28300D01*
X125600Y31892D02*
X125750Y32042D01*
X125600Y29035D02*
Y31892D01*
X126335Y28300D02*
X127135D01*
X125750Y31846D02*
X126046Y31550D01*
X128400D01*
X129205Y28235D02*
X130650Y26790D01*
X130900D01*
X127200Y28235D02*
X129205D01*
X123450Y32265D02*
X123746Y32561D01*
X123969D01*
X123450Y32042D02*
Y32265D01*
X123969Y32561D02*
X125258Y33850D01*
X128400D01*
X121041Y29505D02*
X122400D01*
X119150Y31396D02*
X121041Y29505D01*
X122553Y32042D02*
Y40153D01*
Y29537D02*
Y32042D01*
X123450D01*
X128400Y33850D02*
X128413Y33862D01*
X122553Y29537D02*
X122600Y29490D01*
X122553Y40153D02*
X123300Y40900D01*
X151579Y37000D02*
X152700Y38121D01*
X142519Y55935D02*
X142660Y55794D01*
X40700Y87050D02*
X49850D01*
X40700D02*
Y90000D01*
X49850Y87050D02*
X51000Y88200D01*
X40700Y85650D02*
Y87050D01*
X43300Y90000D02*
Y90475D01*
Y89287D02*
Y90000D01*
X119150Y31396D02*
Y39000D01*
X43700Y78673D02*
Y80950D01*
X33700Y39113D02*
Y46300D01*
X84543Y61201D02*
X87000Y63657D01*
Y76979D01*
X103300Y65525D02*
Y76979D01*
X103025Y65250D02*
X103300Y65525D01*
X43700Y80950D02*
Y82650D01*
X40700Y85650D02*
X43700Y82650D01*
X41350Y76323D02*
X43700Y78673D01*
X105138Y55012D02*
Y57463D01*
X105150Y57475D01*
X152700Y38121D02*
Y57110D01*
X149000Y60810D02*
X152700Y57110D01*
X150800Y37000D02*
X151579D01*
X60080Y72045D02*
Y74835D01*
Y72045D02*
X60125Y72000D01*
X77000Y34759D02*
Y36690D01*
X80478D01*
X77000Y34759D02*
X77000Y34759D01*
X76460Y36690D02*
X77000D01*
X77000Y32836D02*
Y34759D01*
X52184Y67805D02*
X53671Y66318D01*
X55000Y67647D02*
Y75075D01*
X53671Y66318D02*
X55410Y64579D01*
X53671Y66318D02*
X55000Y67647D01*
X45895Y68039D02*
X46130Y67805D01*
X52184D01*
X66103Y56940D02*
Y56940D01*
X52669Y77406D02*
X55000Y75075D01*
X47739Y32229D02*
Y36095D01*
X42275Y39265D02*
X42588Y38916D01*
X45326Y35861D01*
X114975Y31000D02*
Y35000D01*
Y29464D02*
Y31000D01*
X66103Y56940D02*
X69125Y59962D01*
X106991Y24726D02*
X113726D01*
X114911Y25911D01*
X106050Y25668D02*
X106991Y24726D01*
X114911Y26936D02*
X114975Y27000D01*
X114911Y25911D02*
Y26936D01*
X82000Y25600D02*
Y37225D01*
Y15498D02*
Y25600D01*
X82000Y25600D02*
X82000Y25600D01*
Y37225D02*
X83400D01*
X81013D02*
X82000D01*
Y15498D02*
X82500Y14998D01*
X66103Y56940D02*
X66103Y56940D01*
X64393Y58650D02*
X66103Y56940D01*
X65239Y56076D02*
X66103Y56940D01*
X64393Y58650D02*
Y65055D01*
X53053Y81041D02*
X53841D01*
X59000Y86200D01*
X46130Y69375D02*
X47073D01*
Y70025D01*
Y70675D01*
Y71325D01*
X46037Y71975D02*
X47073D01*
Y72625D01*
X44970D02*
X47073D01*
X74180Y14620D02*
X81803Y6997D01*
X74180Y14620D02*
Y39789D01*
X81803Y6997D02*
X83248D01*
X35348Y47948D02*
X38084D01*
X33700Y46300D02*
X35348Y47948D01*
X38084D02*
Y49669D01*
Y46022D02*
Y47948D01*
X23662Y49150D02*
X33700Y39113D01*
X36717Y36095D01*
X22000Y49150D02*
X23662D01*
X22000Y11900D02*
X22000Y11900D01*
X22000Y11900D02*
Y46850D01*
X22000Y46850D01*
X59500Y75000D02*
X60000D01*
X53000Y78525D02*
X55111Y76415D01*
X57085D01*
X41350Y73595D02*
Y76323D01*
X49292Y76892D02*
X49806Y77406D01*
X52669D01*
X49292Y76099D02*
Y76892D01*
X105125Y55000D02*
X105138Y55012D01*
X53000Y81000D02*
Y89493D01*
X59500Y76415D02*
X60000Y75915D01*
X59000Y76915D02*
X59500Y76415D01*
X60000Y75915D02*
X60915D01*
X59500Y75000D02*
Y76415D01*
X60915Y75915D02*
X63639D01*
X43929Y71209D02*
Y71351D01*
Y71209D02*
X43950Y71188D01*
X43891Y71389D02*
X43929Y71351D01*
X43950Y69811D02*
Y71188D01*
X45895Y68039D02*
Y69141D01*
X46130Y69375D01*
X44970Y66707D02*
Y70908D01*
X44000Y65964D02*
X44970Y66707D01*
Y70908D02*
X46037Y71975D01*
X41350Y73595D02*
X44000D01*
X39405D02*
X41350D01*
X48311Y72994D02*
X48365D01*
X47964Y72647D02*
X48311Y72994D01*
X47095Y72647D02*
X47964D01*
X47073Y72625D02*
X47095Y72647D01*
X46095Y75914D02*
X46111Y75898D01*
X49059D02*
X49075Y75882D01*
X46111Y75898D02*
X49059D01*
X37000Y76000D02*
X39405Y73595D01*
X108000Y48526D02*
Y50850D01*
Y37020D02*
Y39150D01*
X107200Y42303D02*
Y50850D01*
X108000Y39150D02*
Y41503D01*
X108800Y39150D02*
Y42823D01*
X107965Y50885D02*
Y51838D01*
X112915Y48200D02*
X113850D01*
X60915Y77415D02*
Y77915D01*
X61759D01*
X60080Y78829D02*
X61629D01*
X58500D02*
X59000D01*
Y86200D01*
Y78829D02*
X59500D01*
X125500Y53835D02*
X125500Y53835D01*
Y55000D01*
X118605Y53835D02*
X125500D01*
X142519Y55210D02*
Y55935D01*
Y58235D02*
Y58859D01*
Y58235D02*
X142760Y58476D01*
X142519Y58859D02*
X144470Y60810D01*
X149000D01*
X142519Y55210D02*
X144539Y53190D01*
X149000D01*
X146170Y40000D02*
X148000D01*
X143850D02*
X146170D01*
X83400Y37225D02*
X83850D01*
X84543Y49560D02*
Y61201D01*
X84524Y49540D02*
X84543Y49560D01*
X84524Y37899D02*
Y49540D01*
X83850Y37225D02*
X84524Y37899D01*
X82500Y8200D02*
Y10650D01*
Y11000D01*
Y10650D02*
X83257Y9893D01*
X87890D01*
X20000Y55959D02*
X35166Y71125D01*
X20000Y48384D02*
Y55959D01*
Y48384D02*
X21265Y47119D01*
X37274Y51876D02*
X38041Y51109D01*
X37274Y51876D02*
Y61531D01*
X38041Y50043D02*
Y51109D01*
Y50043D02*
X38084Y50000D01*
X37815Y49454D02*
X38030Y49669D01*
X37815Y49400D02*
Y49454D01*
X46150Y45000D02*
Y46953D01*
Y40859D02*
Y45000D01*
Y46953D02*
X47145Y47948D01*
X48396D02*
X48946Y48498D01*
X47739Y36095D02*
X51000D01*
X74510Y51882D02*
Y57392D01*
Y51142D02*
Y51882D01*
X75058Y57940D02*
X75790D01*
X66875Y51882D02*
X74510D01*
X75790Y57940D02*
X76000Y58150D01*
X74510Y57392D02*
X75058Y57940D01*
X108000Y43623D02*
Y48526D01*
X108014Y48540D01*
X109000D01*
X107965Y50885D02*
X108000Y50850D01*
X78244Y55850D02*
X78990D01*
X76000D02*
X78244D01*
Y57894D01*
X80053Y59702D01*
X73151Y49784D02*
X74510Y51142D01*
X61629Y78829D02*
X62263Y79463D01*
X62268D01*
X43950Y69000D02*
Y69811D01*
X41707Y65964D02*
X44000D01*
Y65000D02*
Y65964D01*
X37274Y61531D02*
X41707Y65964D01*
X46272Y52025D02*
X47371Y53124D01*
X21731Y47119D02*
X22000Y46850D01*
X21265Y47119D02*
X21731D01*
X46150Y40859D02*
X47104Y39905D01*
X36717Y36095D02*
X42275D01*
X43421D01*
X44000Y35516D01*
X38150Y42000D02*
Y45900D01*
X83248Y6997D02*
X83500Y7249D01*
Y8200D01*
X75050Y41795D02*
Y47885D01*
Y40119D02*
Y41795D01*
X78244D01*
X105377Y54426D02*
Y54748D01*
Y54426D02*
X107965Y51838D01*
X105125Y55000D02*
X105377Y54748D01*
X116000Y57797D02*
X116813Y58610D01*
X116000Y53720D02*
X116850Y52870D01*
X116813Y58610D02*
X117792D01*
X116000Y53720D02*
Y57797D01*
X150027Y37000D02*
X150800D01*
X146170Y40000D02*
Y50360D01*
X149000Y53190D01*
X143750Y40100D02*
X143850Y40000D01*
X141674Y42176D02*
X143750Y40100D01*
X51493Y91000D02*
X53000Y89493D01*
X43300Y90475D02*
X43825Y91000D01*
X51493D01*
X42275Y39265D02*
Y39905D01*
X44000Y33000D02*
Y35516D01*
X46300Y33000D02*
Y39101D01*
X45326Y32229D02*
Y35861D01*
X106050Y28885D02*
X107200Y30035D01*
X106050Y33312D02*
X107200Y32162D01*
Y30035D02*
Y32162D01*
X106050Y27000D02*
Y28885D01*
Y25668D02*
Y27000D01*
Y33312D02*
Y35000D01*
X47371Y53124D02*
X51438D01*
X48577Y50962D02*
X48962D01*
X49000Y51000D01*
X47665Y50050D02*
X48577Y50962D01*
X48946Y48498D02*
X49000D01*
X75050Y40100D02*
Y40119D01*
X74180Y39789D02*
X74510Y40119D01*
X59000Y86200D02*
X61000Y88200D01*
X143950Y36918D02*
Y37521D01*
X69125Y59962D02*
Y66000D01*
X60150Y65976D02*
Y66000D01*
Y65052D02*
Y65976D01*
X71894Y48526D02*
X73151Y49784D01*
X47104Y39905D02*
X47725D01*
X83045Y59702D02*
X84543Y61201D01*
X116850Y51830D02*
Y52870D01*
Y51000D02*
Y51830D01*
X73151Y49784D02*
X75050Y47885D01*
X78990Y55850D02*
X80302Y57161D01*
X82912D01*
X83241Y56832D01*
Y54621D02*
Y56832D01*
X82000Y53380D02*
X83241Y54621D01*
X80053Y59702D02*
X83045D01*
X110975Y65250D02*
X117750D01*
X120000Y63000D01*
X66875Y74129D02*
Y76400D01*
X45326Y32229D02*
X45732Y31822D01*
X47332D01*
X47739Y32229D01*
X47725Y36095D02*
X47739D01*
X63472Y65976D02*
X64393Y65055D01*
X59677Y64579D02*
X60150Y65052D01*
X55410Y64579D02*
X59677D01*
X117792Y54648D02*
Y58610D01*
Y54648D02*
X118605Y53835D01*
X112636Y48479D02*
X112915Y48200D01*
X112636Y48479D02*
Y49618D01*
X115125Y52108D01*
X116573D01*
X116850Y51830D01*
X133375Y40920D02*
X137609Y36686D01*
X143717D01*
X143950Y36918D01*
X61759Y77915D02*
X62268Y77406D01*
X64334Y48526D02*
X71894D01*
X63750Y49110D02*
X64334Y48526D01*
X63750Y49110D02*
Y50000D01*
X106050Y35000D02*
Y35070D01*
X108000Y37020D01*
X63750Y50000D02*
Y51117D01*
X65239Y52606D01*
Y56076D01*
X149968Y36941D02*
X150027Y37000D01*
X144529Y36941D02*
X149968D01*
X143950Y37521D02*
X144529Y36941D01*
X143950Y37521D02*
Y37900D01*
X42347Y69811D02*
X43950D01*
X41033Y71125D02*
X42347Y69811D01*
X38125Y71125D02*
X41033D01*
X119150Y51000D02*
Y51117D01*
X35166Y71125D02*
X38125D01*
X44000Y73595D02*
X44970Y72625D01*
X69125Y71325D02*
Y72682D01*
X77000Y80557D01*
Y88200D01*
X87890Y9893D02*
X88500Y9283D01*
Y8200D02*
Y9283D01*
X82500Y11000D02*
Y14998D01*
X108000Y43623D02*
X108800Y42823D01*
X107200Y42303D02*
X108000Y41503D01*
X76000Y58150D02*
X77092D01*
X79942Y61000D01*
X82000D01*
X128950Y40920D02*
Y44420D01*
X66750Y81000D02*
Y88975D01*
X67398Y89623D01*
X69837D01*
X70421Y89039D01*
Y75882D02*
Y89039D01*
X69837Y75298D02*
X70421Y75882D01*
X67977Y75298D02*
X69837D01*
X66875Y76400D02*
X67977Y75298D01*
X60134Y84035D02*
X60150Y84019D01*
Y81000D02*
Y84019D01*
X80478Y36690D02*
X81013Y37225D01*
X75250Y37900D02*
X76460Y36690D01*
X79814Y40225D02*
X80600D01*
X78244Y41795D02*
X79814Y40225D01*
X60150Y80987D02*
Y81000D01*
X66750Y80987D02*
Y81000D01*
X43850Y45000D02*
Y47774D01*
X43624Y48000D02*
X43850Y47774D01*
X42855Y48000D02*
X43624D01*
X134659Y42176D02*
X141674D01*
X133375Y43460D02*
X134659Y42176D01*
X46300Y39101D02*
X47104Y39905D01*
X119150Y39000D02*
Y43000D01*
Y47000D01*
X119150Y48983D02*
Y51000D01*
X119150Y48983D02*
X119150Y48983D01*
X119150Y47000D02*
Y48983D01*
X69125Y66000D02*
Y71325D01*
X89000Y11000D02*
X90000D01*
Y8200D02*
Y11000D01*
X88500Y8200D02*
X90000D01*
X103025Y65250D02*
X110975D01*
X116850Y39000D02*
Y43000D01*
Y47000D01*
Y51000D01*
X64125Y76400D02*
X66875D01*
X63639Y75915D02*
X64125Y76400D01*
X42275Y38635D02*
Y39265D01*
D11*
X42855Y50000D02*
D03*
Y49500D02*
D03*
Y49000D02*
D03*
Y48500D02*
D03*
Y48000D02*
D03*
X47145D02*
D03*
Y48500D02*
D03*
Y49000D02*
D03*
Y49500D02*
D03*
Y50000D02*
D03*
D12*
X127200Y25695D02*
D03*
Y26965D02*
D03*
Y28235D02*
D03*
Y29505D02*
D03*
X122400Y25695D02*
D03*
Y26965D02*
D03*
Y28235D02*
D03*
Y29505D02*
D03*
D13*
X125750Y32042D02*
D03*
X123450D02*
D03*
X35784Y50000D02*
D03*
X38084D02*
D03*
X44000Y33000D02*
D03*
X46300D02*
D03*
X66175Y54000D02*
D03*
X63875D02*
D03*
X43850Y45000D02*
D03*
X46150D02*
D03*
X38150Y42000D02*
D03*
X35850D02*
D03*
X58150Y42000D02*
D03*
X55850D02*
D03*
X43700Y54000D02*
D03*
X46000D02*
D03*
X57850Y81000D02*
D03*
X60150D02*
D03*
X112675Y27000D02*
D03*
X114975D02*
D03*
X108350Y27000D02*
D03*
X106050D02*
D03*
X108350Y35000D02*
D03*
X106050D02*
D03*
X116850Y51000D02*
D03*
X119150D02*
D03*
X116850Y47000D02*
D03*
X119150D02*
D03*
X116850Y39000D02*
D03*
X119150D02*
D03*
X116850Y43000D02*
D03*
X119150D02*
D03*
X51450Y75882D02*
D03*
X49150D02*
D03*
D14*
X128400Y31550D02*
D03*
Y33850D02*
D03*
X130900Y26790D02*
D03*
Y29090D02*
D03*
X76000Y58150D02*
D03*
Y55850D02*
D03*
X142519Y58235D02*
D03*
Y55935D02*
D03*
X22000Y49150D02*
D03*
Y46850D02*
D03*
D15*
X40850Y92805D02*
D03*
X43150D02*
D03*
D16*
X43300Y90000D02*
D03*
X40700D02*
D03*
X42650D02*
D03*
X42000D02*
D03*
X41350D02*
D03*
D17*
X45950Y80950D02*
D03*
X43700D02*
D03*
X38063Y46000D02*
D03*
X35813D02*
D03*
X66750Y81000D02*
D03*
X69000D02*
D03*
X58160Y50050D02*
D03*
X55910D02*
D03*
X58125Y54000D02*
D03*
X55875D02*
D03*
X63750Y50000D02*
D03*
X66000D02*
D03*
X55875Y46000D02*
D03*
X58125D02*
D03*
X35875Y54000D02*
D03*
X38125D02*
D03*
X102875Y55000D02*
D03*
X105125D02*
D03*
X114975Y31000D02*
D03*
X112725D02*
D03*
X114975Y35000D02*
D03*
X112725D02*
D03*
X106100Y31026D02*
D03*
X108350D02*
D03*
X112125Y55000D02*
D03*
X109875D02*
D03*
X119125Y55000D02*
D03*
X116875D02*
D03*
X45950Y75915D02*
D03*
X43700D02*
D03*
X50750Y81000D02*
D03*
X53000D02*
D03*
X57875Y72000D02*
D03*
X60125D02*
D03*
X66875Y76400D02*
D03*
X69125D02*
D03*
Y71325D02*
D03*
X66875D02*
D03*
X57900Y66000D02*
D03*
X60150D02*
D03*
X66875Y66000D02*
D03*
X69125D02*
D03*
X39250Y81000D02*
D03*
X37000D02*
D03*
X37000Y76000D02*
D03*
X39250D02*
D03*
X49100Y66000D02*
D03*
X51350D02*
D03*
D18*
X52927Y68725D02*
D03*
Y69375D02*
D03*
Y70025D02*
D03*
Y70675D02*
D03*
Y71325D02*
D03*
Y71975D02*
D03*
Y72625D02*
D03*
Y73275D02*
D03*
X47073D02*
D03*
Y72625D02*
D03*
Y71975D02*
D03*
Y71325D02*
D03*
Y70675D02*
D03*
Y70025D02*
D03*
Y69375D02*
D03*
Y68725D02*
D03*
D19*
X50000Y71000D02*
D03*
D20*
X104000Y39150D02*
D03*
X104800D02*
D03*
X105600D02*
D03*
X106400D02*
D03*
X107200D02*
D03*
X108000D02*
D03*
X108800D02*
D03*
X109600D02*
D03*
X110400D02*
D03*
X111200D02*
D03*
X112000D02*
D03*
Y50850D02*
D03*
X111200D02*
D03*
X110400D02*
D03*
X109600D02*
D03*
X108800D02*
D03*
X108000D02*
D03*
X107200D02*
D03*
X106400D02*
D03*
X105600D02*
D03*
X104800D02*
D03*
X104000D02*
D03*
D21*
X113850Y41000D02*
D03*
Y41800D02*
D03*
Y42600D02*
D03*
Y43400D02*
D03*
Y44200D02*
D03*
Y45000D02*
D03*
Y45800D02*
D03*
Y46600D02*
D03*
Y47400D02*
D03*
Y48200D02*
D03*
Y49000D02*
D03*
X102150D02*
D03*
Y48200D02*
D03*
Y47400D02*
D03*
Y46600D02*
D03*
Y45800D02*
D03*
Y45000D02*
D03*
Y44200D02*
D03*
Y43400D02*
D03*
Y42600D02*
D03*
Y41800D02*
D03*
Y41000D02*
D03*
D22*
X58000Y78829D02*
D03*
X58500D02*
D03*
X59000D02*
D03*
X59500D02*
D03*
X60000D02*
D03*
Y75000D02*
D03*
X59500D02*
D03*
X59000D02*
D03*
X58500D02*
D03*
X58000D02*
D03*
D23*
X60915Y77915D02*
D03*
Y77415D02*
D03*
Y76915D02*
D03*
Y76415D02*
D03*
Y75915D02*
D03*
X57085D02*
D03*
Y76415D02*
D03*
Y76915D02*
D03*
Y77415D02*
D03*
D24*
Y77915D02*
D03*
D25*
X59000Y76915D02*
D03*
D26*
X150800Y37000D02*
D03*
X148000Y38000D02*
D03*
X150800Y39000D02*
D03*
X148000Y40000D02*
D03*
X80600Y40225D02*
D03*
X83400Y39225D02*
D03*
X80600Y38225D02*
D03*
X83400Y37225D02*
D03*
D27*
X150800Y35500D02*
D03*
X148000D02*
D03*
X150800Y41500D02*
D03*
X148000D02*
D03*
X80600Y41725D02*
D03*
X83400D02*
D03*
X80600Y35725D02*
D03*
X83400D02*
D03*
D28*
X42275Y39905D02*
D03*
Y38635D02*
D03*
Y37365D02*
D03*
Y36095D02*
D03*
X47725Y39905D02*
D03*
Y38635D02*
D03*
Y37365D02*
D03*
Y36095D02*
D03*
D29*
X128000Y46820D02*
D03*
X128950Y44420D02*
D03*
X127050D02*
D03*
D30*
X38125Y68875D02*
D03*
Y71125D02*
D03*
D31*
X75250Y37900D02*
D03*
X143750Y40100D02*
D03*
D32*
X76950Y37900D02*
D03*
Y40100D02*
D03*
X75050D02*
D03*
X143950Y37900D02*
D03*
X142050D02*
D03*
Y40100D02*
D03*
D33*
X127000Y55000D02*
D03*
X125500D02*
D03*
D34*
X90000Y8200D02*
D03*
Y11000D02*
D03*
X82500Y8200D02*
D03*
Y11000D02*
D03*
D35*
X86500Y8200D02*
D03*
X87000Y11000D02*
D03*
X85500Y8200D02*
D03*
X86000Y11000D02*
D03*
X83500Y8200D02*
D03*
X84000Y11000D02*
D03*
X84500Y8200D02*
D03*
X85000Y11000D02*
D03*
X88000D02*
D03*
X89000D02*
D03*
X87500Y8200D02*
D03*
X88500D02*
D03*
D36*
X42100Y65000D02*
D03*
X44000D02*
D03*
X43050Y67000D02*
D03*
X43000Y71000D02*
D03*
X43950Y69000D02*
D03*
X42050D02*
D03*
D37*
X103025Y65250D02*
D03*
X110975D02*
D03*
X103025Y60750D02*
D03*
X110975D02*
D03*
D38*
X55491Y77406D02*
X55983Y76915D01*
X44044Y49890D02*
X44137D01*
X42855Y49000D02*
X44061D01*
X46040Y49384D02*
X46401Y49023D01*
X44061Y49000D02*
X44372Y49311D01*
X42878Y49523D02*
X43676D01*
X42855Y49500D02*
X42878Y49523D01*
X43676D02*
X44044Y49890D01*
X46401Y49023D02*
X46841D01*
X45974Y49890D02*
X46040Y49824D01*
Y49384D02*
Y49824D01*
X44716Y49655D02*
X47423Y52362D01*
X55765D01*
X44372Y49311D02*
X44377D01*
X44716Y49650D01*
Y49655D01*
X57900Y66255D02*
X59042D01*
X57993Y74762D02*
X58000Y74770D01*
X57979Y74762D02*
X57993D01*
X58000Y74770D02*
Y75000D01*
X57823Y74606D02*
X57979Y74762D01*
X57823Y73825D02*
Y74606D01*
X51827Y72862D02*
Y73248D01*
X51493Y73582D02*
Y73582D01*
X51827Y72862D02*
X51828Y72861D01*
X51493Y73582D02*
X51827Y73248D01*
X51828Y72472D02*
Y72861D01*
Y72472D02*
X52132Y72168D01*
X52135D02*
X52278Y72026D01*
X52132Y72168D02*
X52135D01*
X51250Y73825D02*
X51493Y73582D01*
X38125Y52311D02*
X40936Y49500D01*
X38125Y52311D02*
Y54000D01*
X40936Y49500D02*
X42855D01*
X46841Y49023D02*
X46863Y49001D01*
X130441Y37459D02*
Y61559D01*
Y37459D02*
X137000Y30900D01*
Y29240D02*
Y30900D01*
X135700Y27940D02*
X137000Y29240D01*
X52877Y72026D02*
X52927Y71975D01*
X52278Y72026D02*
X52877D01*
X45685Y73825D02*
X51250D01*
X127907Y29505D02*
X128322Y29090D01*
X130900D01*
X127200Y29505D02*
X127907D01*
X131400Y29110D02*
X134330D01*
X135700Y30480D01*
X120307Y25635D02*
X122600D01*
X120354Y26952D02*
X122553D01*
X114420Y28175D02*
X122600D01*
X125920Y26905D02*
X127400D01*
X126281Y25635D02*
X127400D01*
X125082Y24320D02*
X125488Y24726D01*
Y26473D01*
X126174Y25742D02*
X126281Y25635D01*
X126174Y25742D02*
Y26174D01*
X125488Y26473D02*
X125920Y26905D01*
X122553Y26952D02*
X122600Y26905D01*
X120307Y24320D02*
X125082D01*
X85850Y82700D02*
X88850Y85700D01*
X58125Y50050D02*
Y54000D01*
X35875Y50125D02*
X36000Y50000D01*
X64884Y49872D02*
X66000D01*
X71234Y70446D02*
X80251Y79463D01*
X126016Y55679D02*
X126199Y55496D01*
X119614Y55679D02*
X126016D01*
X119192Y55257D02*
X119614Y55679D01*
X119125Y55257D02*
X119192D01*
X81425Y64478D02*
Y86475D01*
X77127Y60180D02*
X81425Y64478D01*
Y86475D02*
X84500Y89550D01*
X85931D01*
X88074Y91300D02*
X88850Y90524D01*
Y85700D02*
Y90524D01*
X84300Y91300D02*
X88074D01*
X80251Y87251D02*
X84300Y91300D01*
X96227Y19523D02*
Y83502D01*
X102171Y89446D01*
X45975Y80975D02*
X50725D01*
X50750Y81000D01*
X45950Y80950D02*
X45975Y80975D01*
X115083Y45233D02*
Y47039D01*
X114850Y45000D02*
X115083Y45233D01*
X108800Y51419D02*
X112125Y54744D01*
Y55000D01*
X108800Y50850D02*
Y51419D01*
X119125Y55257D02*
Y58688D01*
X120000Y56575D02*
X125695D01*
X126727Y55273D02*
Y55543D01*
Y55273D02*
X127000Y55000D01*
X126199Y54597D02*
Y55496D01*
X125695Y56575D02*
X126727Y55543D01*
X128000Y48526D02*
Y52796D01*
X126199Y54597D02*
X128000Y52796D01*
X109875Y55250D02*
X111200Y56575D01*
X114700D01*
X66111Y68000D02*
Y72182D01*
X66382Y72453D01*
X146170Y37421D02*
X149689D01*
X150736Y38468D01*
Y38936D01*
X150800Y39000D01*
X151250D02*
X151829Y39579D01*
X150800Y39000D02*
X151250D01*
X151829Y39579D02*
Y52901D01*
X149475Y50343D02*
X150168Y51037D01*
X149475Y38149D02*
Y50343D01*
X148000Y38000D02*
X149326D01*
X149475Y38149D01*
X150168Y51037D02*
Y53681D01*
X149000Y55730D02*
X151829Y52901D01*
X50042Y49500D02*
X51000Y48542D01*
Y40100D02*
Y48542D01*
X59275Y69450D02*
X60725Y68000D01*
X59275Y69450D02*
Y72631D01*
X59000Y72906D02*
X59275Y72631D01*
X58629Y69371D02*
Y72702D01*
X58500Y72831D02*
X58629Y72702D01*
Y69371D02*
X60475Y67525D01*
X59000Y72906D02*
Y75000D01*
X58500Y72831D02*
Y75000D01*
X60475Y67525D02*
X62725D01*
X60725Y68000D02*
X66111D01*
X66875Y67236D01*
X57043Y75915D02*
X57085D01*
X57035Y75907D02*
X57043Y75915D01*
X57035Y75035D02*
X57035Y75035D01*
Y75907D01*
X57035Y73275D02*
Y75035D01*
X55652Y70687D02*
X57900Y68440D01*
X55652Y70687D02*
Y73797D01*
X84000Y33006D02*
X84000Y33006D01*
X84000Y11000D02*
Y33006D01*
X53993Y68791D02*
Y69223D01*
Y68791D02*
X54059Y68725D01*
X53841Y69375D02*
X53993Y69223D01*
X52927Y69375D02*
X53841D01*
X52927Y72625D02*
X53784D01*
X52927Y71325D02*
X53784D01*
X53886Y71427D02*
Y72523D01*
X53784Y72625D02*
X53886Y72523D01*
X53784Y71325D02*
X53886Y71427D01*
X52877Y69974D02*
X52927Y70025D01*
X50750Y79488D02*
Y81000D01*
Y79488D02*
X51244Y78994D01*
X108350Y28778D02*
X108350Y28778D01*
X108350Y27000D02*
X108350Y27000D01*
Y28778D01*
X108350Y28778D02*
Y31026D01*
X112700Y28790D02*
X112712Y28803D01*
X112688Y28778D02*
X112700Y28790D01*
X112712Y28803D02*
Y30988D01*
X112675Y27000D02*
X112688Y27012D01*
Y28778D01*
X112712Y30988D02*
X112725Y31000D01*
X113804Y28790D02*
X114420Y28175D01*
X113804Y28790D02*
Y31635D01*
X108848Y32042D02*
X113398D01*
X113804Y31635D01*
X47539Y64249D02*
X48692Y65402D01*
X48692D02*
X49100Y65810D01*
X48692Y65402D02*
X48692D01*
X42811Y64249D02*
X47539D01*
X49100Y65810D02*
Y66000D01*
X61500Y10250D02*
Y49562D01*
X64655Y52717D01*
X62400Y24100D02*
X80773Y5727D01*
X83558D01*
X66382Y58364D02*
X68059Y60040D01*
Y72097D01*
X66342Y59702D02*
X67652Y61013D01*
Y64960D01*
X63704Y58364D02*
X64655Y57412D01*
Y52717D02*
Y57412D01*
X63704Y58364D02*
Y64147D01*
X52927Y69375D02*
Y70025D01*
Y70675D01*
Y71325D01*
X83558Y5727D02*
X84478Y6647D01*
X67652Y64960D02*
Y68211D01*
X66875Y66000D02*
Y67236D01*
X58000Y78829D02*
Y80850D01*
X57850Y81000D02*
X58000Y80850D01*
X43845Y75664D02*
X45685Y73825D01*
X100503Y49277D02*
Y57463D01*
Y49277D02*
X101581Y48200D01*
X101892Y50101D02*
Y57475D01*
X103716Y54759D02*
X104800Y53675D01*
X103716Y54759D02*
Y57463D01*
X102831Y36994D02*
Y41000D01*
X51350Y65747D02*
X52870D01*
X62674Y64096D02*
X62972Y63799D01*
Y56527D02*
Y63799D01*
X55983Y76915D02*
X57085D01*
X125082Y40920D02*
Y45872D01*
X125678Y46469D01*
X100926Y45173D02*
X101075Y45024D01*
X100344Y44030D02*
X100975Y43400D01*
X100344Y44030D02*
Y46310D01*
X100196Y46459D02*
X100344Y46310D01*
X98476Y46459D02*
X100196D01*
X101075Y45024D02*
X102126D01*
X100926Y45173D02*
Y46748D01*
X100675Y47000D02*
X100926Y46748D01*
X102126Y45024D02*
X102150Y45000D01*
Y45800D02*
X102719D01*
X103743Y46427D02*
X103809Y46494D01*
X103347Y46427D02*
X103743D01*
X102719Y45800D02*
X103347Y46427D01*
X105875Y31000D02*
Y31609D01*
X76938Y38225D02*
X80600D01*
X39250Y75653D02*
X40170D01*
X102150Y42600D02*
X103492D01*
X109600Y50253D02*
Y50850D01*
X102150Y47400D02*
X103851D01*
X111200Y37325D02*
Y39150D01*
X106400Y37574D02*
Y39150D01*
X113850Y49000D02*
X114727D01*
X110400Y37574D02*
Y39150D01*
X102150Y41000D02*
X102831D01*
X113850Y44200D02*
X115117D01*
X107200Y37574D02*
Y39150D01*
X109600Y37574D02*
Y39150D01*
X110400Y46494D02*
Y50850D01*
X113850Y45000D02*
X114850D01*
X111973Y37601D02*
Y39123D01*
X102150Y44200D02*
X103809D01*
X103716Y42823D02*
X103809D01*
X103492Y42600D02*
X103716Y42823D01*
X103207Y49644D02*
X104800Y48051D01*
Y39150D02*
Y48051D01*
X105600Y39150D02*
Y40908D01*
X99174Y43130D02*
X100503Y41800D01*
X102150D01*
X99174Y43130D02*
Y45067D01*
X95648Y12209D02*
Y42163D01*
X96888Y45961D02*
X97927Y47000D01*
X91935Y6718D02*
X96888Y11671D01*
Y45961D01*
X109066Y45437D02*
X109343D01*
X110400Y46494D01*
X104800Y50850D02*
Y53675D01*
X111946Y45800D02*
X113850D01*
X100975Y43400D02*
X102150D01*
X111466Y46600D02*
X113850D01*
X101581Y48200D02*
X102150D01*
X109066Y44200D02*
X111466Y46600D01*
X57085Y77915D02*
Y78680D01*
X60915Y76915D02*
X61412D01*
X60915Y76415D02*
X63385D01*
X56514Y38635D02*
X58150Y40271D01*
X47725Y38635D02*
X56514D01*
X141000Y38049D02*
Y38773D01*
X141149Y37900D02*
X142050D01*
X141000Y38049D02*
X141149Y37900D01*
X142050D02*
Y38100D01*
X148196Y54358D02*
X149491D01*
X147815Y54739D02*
X148196Y54358D01*
X149491D02*
X150168Y53681D01*
X147815Y54739D02*
Y57085D01*
X142050Y39813D02*
X142760Y39103D01*
X144487D01*
X142050Y39813D02*
Y40100D01*
X144487Y39103D02*
X146170Y37421D01*
X85004Y13274D02*
Y42687D01*
X85356Y43040D01*
Y43040D01*
X85000Y13270D02*
X85004Y13274D01*
X85000Y11000D02*
Y13270D01*
X85356Y43040D02*
X86804Y44488D01*
X47407Y46688D02*
X48425D01*
X49000Y46113D01*
X54978Y40122D02*
X55000Y40100D01*
X54978Y40122D02*
Y51574D01*
X54989Y37365D02*
X54994Y37360D01*
Y33006D02*
X55000Y33000D01*
X54994Y33006D02*
Y37360D01*
X84000Y11000D02*
X84000Y11000D01*
X86804Y44488D02*
X90233D01*
X90578Y7139D02*
X95648Y12209D01*
X90227Y38360D02*
X90233D01*
X88000Y36133D02*
X90227Y38360D01*
X86000Y38223D02*
X90233Y42456D01*
X86000Y11000D02*
Y38223D01*
X88000Y11000D02*
Y36133D01*
X120307Y27000D02*
X120354Y26952D01*
X111973Y39123D02*
X112000Y39150D01*
X111946Y37574D02*
X111973Y37601D01*
X102349Y49644D02*
X103207D01*
X103421Y39940D02*
X104389Y40908D01*
Y46862D01*
X103421Y34064D02*
X105875Y31609D01*
X103421Y34064D02*
Y39940D01*
X97927Y47000D02*
X100675D01*
X98000Y45983D02*
X98476Y46459D01*
X98000Y11000D02*
Y45983D01*
X103851Y47400D02*
X104389Y46862D01*
X109870Y47870D02*
Y48080D01*
X109875Y48085D01*
X109000Y47000D02*
X109870Y47870D01*
X109875Y48085D02*
Y49978D01*
X109600Y50253D02*
X109875Y49978D01*
X80251Y79463D02*
Y87251D01*
X57837Y80987D02*
X57850Y81000D01*
X55491Y80987D02*
X57837D01*
X62972Y64879D02*
X63704Y64147D01*
X61810Y64879D02*
X62972D01*
X57234Y78829D02*
X58000D01*
X57085Y78680D02*
X57234Y78829D01*
X38125Y68875D02*
X38250Y69000D01*
X42050D01*
X43050Y67000D02*
Y67050D01*
X42777Y67323D02*
X43050Y67050D01*
X42727Y67323D02*
X42777D01*
X42050Y68000D02*
Y69000D01*
Y68000D02*
X42727Y67323D01*
X82363Y58460D02*
X83721Y57102D01*
Y46459D02*
Y57102D01*
X82000Y58460D02*
X82363D01*
X57595Y72280D02*
Y72715D01*
X57035Y73275D02*
X57595Y72715D01*
Y72280D02*
X57875Y72000D01*
X55850Y42000D02*
Y45733D01*
X55875D02*
Y46000D01*
X55750Y46125D02*
Y50000D01*
Y46125D02*
X55875Y46000D01*
X35813Y46000D02*
X35834Y46022D01*
X37135D01*
X35875Y50125D02*
Y54000D01*
X35850Y42000D02*
Y45792D01*
Y38856D02*
Y42000D01*
Y38856D02*
X37341Y37365D01*
X87569Y7288D02*
X87718Y7139D01*
X87500Y8200D02*
X87569Y8131D01*
X87718Y7139D02*
X90578D01*
X87569Y7288D02*
Y8131D01*
X84478Y6647D02*
Y8178D01*
X84500Y8200D01*
X81629Y39809D02*
Y43439D01*
X80810Y44259D02*
X81629Y43439D01*
X82045Y42555D02*
Y44783D01*
Y42555D02*
X82081Y42519D01*
X82045Y44783D02*
X83721Y46459D01*
X82081Y39225D02*
Y42519D01*
X79429Y39646D02*
X81466D01*
X82081Y39225D02*
X83400D01*
X77825D02*
X82081D01*
X81466Y39646D02*
X81629Y39809D01*
X85686Y5727D02*
X92727D01*
X98000Y11000D01*
X148000Y38000D02*
Y38755D01*
X42275Y37365D02*
X42922D01*
X37341D02*
X42275D01*
X107454Y33436D02*
Y35699D01*
Y33436D02*
X108848Y32042D01*
X107454Y35699D02*
X108673Y36918D01*
X66000Y49872D02*
Y50000D01*
X108673Y36918D02*
X110794D01*
X111200Y37325D01*
X110528Y35000D02*
X110528Y35000D01*
X108350Y35000D02*
X110528D01*
X110528Y35000D02*
X112725D01*
X45069Y52819D02*
X46000Y53750D01*
Y54000D01*
X43218Y52819D02*
X45069D01*
X42913Y53124D02*
Y56527D01*
Y53124D02*
X43218Y52819D01*
X47145Y49500D02*
X50042D01*
X56607Y44000D02*
Y45000D01*
X55875Y45733D02*
X56607Y45000D01*
X58150Y42000D02*
Y43980D01*
Y40271D02*
Y42000D01*
X58125Y44005D02*
Y46000D01*
Y44005D02*
X58150Y43980D01*
X58125Y46000D02*
Y47094D01*
X54978Y51574D02*
X55765Y52362D01*
X47725Y37365D02*
X51000D01*
X57900Y66255D02*
Y68440D01*
Y66000D02*
Y66255D01*
X125678Y46469D02*
X127050Y45097D01*
X119125Y53022D02*
X125678Y46469D01*
X39250Y75653D02*
Y76000D01*
X119125Y55000D02*
Y55257D01*
X55765Y52362D02*
X55875Y54000D01*
X51350Y65747D02*
Y66000D01*
X52870Y65747D02*
X54521Y64096D01*
X62674D01*
X62725Y67525D02*
X65290Y64960D01*
X67652D01*
X66875Y68989D02*
X67652Y68211D01*
X87000Y11000D02*
Y36835D01*
X90233Y40068D01*
X85500Y7412D02*
Y8200D01*
Y7412D02*
X86194Y6718D01*
X91935D01*
X61412Y76915D02*
X61506Y76821D01*
X63217D01*
X66342Y79946D01*
X68746D01*
X69000Y80200D01*
Y81000D01*
X66875Y68989D02*
Y71325D01*
X66382Y72453D02*
X67703D01*
X68059Y72097D01*
X42913Y56527D02*
X49568Y63182D01*
X61810D01*
X101892Y50101D02*
X102349Y49644D01*
X128000Y46820D02*
Y48526D01*
X71234Y59905D02*
Y70446D01*
X66175Y54847D02*
X71234Y59905D01*
X66175Y54000D02*
Y54847D01*
X110975Y60750D02*
X117063D01*
X119125Y58688D01*
X116875Y53533D02*
Y55000D01*
Y53533D02*
X117386Y53022D01*
X119125D01*
X127050Y44420D02*
Y45097D01*
X148000Y38755D02*
X148018Y38773D01*
X112725Y35000D02*
Y37135D01*
X115887Y40297D01*
Y47840D01*
X114727Y49000D02*
X115887Y47840D01*
X85001Y6413D02*
X85686Y5727D01*
X85001Y6413D02*
Y9080D01*
X85153Y9232D01*
X86296D01*
X86500Y9028D01*
Y8200D02*
Y9028D01*
X147815Y57085D02*
X149000Y58270D01*
X43000Y71000D02*
Y71869D01*
X42441Y72428D02*
X43000Y71869D01*
X38392Y72428D02*
X42441D01*
X36233Y74587D02*
X38392Y72428D01*
X36233Y74587D02*
Y81826D01*
X36461Y82054D01*
X39021D01*
X39250Y81826D01*
Y81000D02*
Y81826D01*
X58125Y54000D02*
Y54800D01*
X57693Y55232D02*
X58125Y54800D01*
X44132Y55232D02*
X57693D01*
X43700Y54800D02*
X44132Y55232D01*
X43700Y54000D02*
Y54800D01*
X63875Y52844D02*
Y54000D01*
X58125Y47094D02*
X63875Y52844D01*
X68481Y76400D02*
X69125D01*
X67475Y77406D02*
X68481Y76400D01*
X64377Y77406D02*
X67475D01*
X63385Y76415D02*
X64377Y77406D01*
X42100Y64960D02*
X42811Y64249D01*
X42100Y64960D02*
Y65000D01*
X39250Y76000D02*
Y76248D01*
X37000Y78498D02*
X39250Y76248D01*
X37000Y78498D02*
Y81000D01*
X129000Y63000D02*
X130441Y61559D01*
X76950Y40100D02*
X77825Y39225D01*
X80810Y54730D02*
X82000Y55920D01*
X80810Y44259D02*
Y54730D01*
X77965Y41109D02*
X79429Y39646D01*
X76288Y41109D02*
X77965D01*
X76161Y40982D02*
X76288Y41109D01*
X76161Y39001D02*
Y40982D01*
Y39001D02*
X76938Y38225D01*
X103025Y57947D02*
Y60750D01*
X102875Y57797D02*
X103025Y57947D01*
X102875Y55000D02*
Y57797D01*
X103025Y60750D02*
X110975D01*
D39*
X43626Y48500D02*
X47145D01*
D40*
X135700Y27940D02*
D03*
Y30480D02*
D03*
X133375Y40920D02*
D03*
Y43460D02*
D03*
Y46000D02*
D03*
Y48540D02*
D03*
Y51080D02*
D03*
D41*
X135700Y25400D02*
D03*
X133375Y38380D02*
D03*
D42*
X87000Y89579D02*
D03*
D43*
Y76979D02*
D03*
Y83279D02*
D03*
X103300Y89579D02*
D03*
Y76979D02*
D03*
Y83279D02*
D03*
D44*
X39775Y89750D02*
D03*
X44225D02*
D03*
D45*
X59000Y33006D02*
D03*
X61000Y88200D02*
D03*
X51000Y88200D02*
D03*
X129000Y63000D02*
D03*
X69000Y88200D02*
D03*
X77000D02*
D03*
X68000Y33006D02*
D03*
X120000Y63000D02*
D03*
D46*
X30001Y74311D02*
D03*
X13999Y19066D02*
D03*
D47*
X30001Y10836D02*
D03*
D48*
X105500Y10250D02*
D03*
X61500D02*
D03*
D49*
X110500D02*
D03*
X66500D02*
D03*
D50*
X149000Y89000D02*
D03*
Y6000D02*
D03*
X6000D02*
D03*
Y89000D02*
D03*
D51*
X82000Y61000D02*
D03*
X149000Y60810D02*
D03*
D52*
X82000Y55920D02*
D03*
Y53380D02*
D03*
Y58460D02*
D03*
X149000Y58270D02*
D03*
Y53190D02*
D03*
Y55730D02*
D03*
D53*
X55491Y77406D02*
D03*
X44137Y49890D02*
D03*
X51244Y74404D02*
D03*
X45974Y49890D02*
D03*
X126174Y26174D02*
D03*
X115083Y47039D02*
D03*
X120000Y56575D02*
D03*
X114700D02*
D03*
X105150Y57475D02*
D03*
X84000Y33006D02*
D03*
X54059Y68725D02*
D03*
X55652Y73797D02*
D03*
X51244Y78994D02*
D03*
X108350Y28778D02*
D03*
X112700Y28790D02*
D03*
X114975Y29464D02*
D03*
X77000Y32836D02*
D03*
X62400Y24100D02*
D03*
X66382Y58364D02*
D03*
X66342Y59702D02*
D03*
X123300Y40900D02*
D03*
X22000Y11900D02*
D03*
X100503Y57463D02*
D03*
X101892Y57475D02*
D03*
X103716Y57463D02*
D03*
X43891Y71389D02*
D03*
X48365Y72994D02*
D03*
X125082Y40920D02*
D03*
X103809Y46494D02*
D03*
Y42823D02*
D03*
Y44200D02*
D03*
X105600Y40908D02*
D03*
X99174Y45067D02*
D03*
X95648Y42163D02*
D03*
X109066Y45437D02*
D03*
Y44200D02*
D03*
X51000Y40100D02*
D03*
X141000Y38773D02*
D03*
X47407Y46688D02*
D03*
X55000Y40100D02*
D03*
X54989Y37365D02*
D03*
X51000Y36095D02*
D03*
Y37365D02*
D03*
X62972Y56527D02*
D03*
X66875Y51882D02*
D03*
X90233Y44488D02*
D03*
X96227Y19523D02*
D03*
X90233Y38360D02*
D03*
Y42456D02*
D03*
X120307Y24320D02*
D03*
Y27000D02*
D03*
X111946Y37574D02*
D03*
X107200D02*
D03*
X110400D02*
D03*
X109600D02*
D03*
X106400D02*
D03*
X102831Y36994D02*
D03*
X109000Y47000D02*
D03*
Y48540D02*
D03*
X55491Y80987D02*
D03*
X61810Y64879D02*
D03*
X62268Y79463D02*
D03*
X37135Y46022D02*
D03*
X111946Y45800D02*
D03*
X64884Y49872D02*
D03*
X51438Y53124D02*
D03*
X49000Y51000D02*
D03*
Y48498D02*
D03*
Y46113D02*
D03*
X56607Y44000D02*
D03*
X55000Y33000D02*
D03*
X40170Y75653D02*
D03*
X66875Y74129D02*
D03*
X77127Y60180D02*
D03*
X115117Y44200D02*
D03*
X90233Y40068D02*
D03*
X120307Y25635D02*
D03*
X57823Y73825D02*
D03*
X61810Y63182D02*
D03*
X59042Y66255D02*
D03*
X128000Y48526D02*
D03*
X117792Y58610D02*
D03*
X148018Y38773D02*
D03*
X62268Y77406D02*
D03*
X117995Y51117D02*
D03*
X128950Y40920D02*
D03*
X60134Y84035D02*
D03*
D54*
X143788Y80008D02*
D03*
X138788Y70008D02*
D03*
Y50008D02*
D03*
Y30008D02*
D03*
X143788Y20008D02*
D03*
X138788Y10008D02*
D03*
X133788Y80008D02*
D03*
X128788Y70008D02*
D03*
X133788Y60008D02*
D03*
Y20008D02*
D03*
X128788Y10008D02*
D03*
X123788Y80008D02*
D03*
X118788Y70008D02*
D03*
X123788Y60008D02*
D03*
Y40008D02*
D03*
X118788Y30008D02*
D03*
X123788Y20008D02*
D03*
X118788Y10008D02*
D03*
X113788Y80008D02*
D03*
X108788Y70008D02*
D03*
X113788Y60008D02*
D03*
Y40008D02*
D03*
Y20008D02*
D03*
X108788Y10008D02*
D03*
X103788Y80008D02*
D03*
X98788Y70008D02*
D03*
Y50008D02*
D03*
X103788Y20008D02*
D03*
X98788Y10008D02*
D03*
X93788Y80008D02*
D03*
X88788Y70008D02*
D03*
Y50008D02*
D03*
X93788Y20008D02*
D03*
X83788Y80008D02*
D03*
X78788Y70008D02*
D03*
X73788Y80008D02*
D03*
X68788Y50008D02*
D03*
Y10008D02*
D03*
X63788Y80008D02*
D03*
X58788Y30008D02*
D03*
X63788Y20008D02*
D03*
X58788Y10008D02*
D03*
X53788Y60008D02*
D03*
Y40008D02*
D03*
X48788Y30008D02*
D03*
X53788Y20008D02*
D03*
X48788Y10008D02*
D03*
X38788Y70008D02*
D03*
X43788Y60008D02*
D03*
Y40008D02*
D03*
X38788Y30008D02*
D03*
X43788Y20008D02*
D03*
X38788Y10008D02*
D03*
X33788Y80008D02*
D03*
X28788Y70008D02*
D03*
X33788Y60008D02*
D03*
X28788Y50008D02*
D03*
Y30008D02*
D03*
X33788Y20008D02*
D03*
X23788Y80008D02*
D03*
X18788Y70008D02*
D03*
Y50008D02*
D03*
X23788Y40008D02*
D03*
X18788Y30008D02*
D03*
X23788Y20008D02*
D03*
X13788Y80008D02*
D03*
X8788Y70008D02*
D03*
X13788Y60008D02*
D03*
X8788Y50008D02*
D03*
X13788Y40008D02*
D03*
X8788Y30008D02*
D03*
Y10008D02*
D03*
%TF.MD5,5fa4c8ed083d0ffe7a7e6f40043c1a84*%
M02*
